<svg width="2465" height="190" viewBox="0 0 2465 190" fill="none" xmlns="http://www.w3.org/2000/svg">
<path d="M264.49 189.52H379.49H470.84H684.53H726.05H820.33H851.66H874.99H887.72H912.83H955.99H1479.44H1562.96H1627.89H1651.77H1788.33H1819.94H2006.3V189.54H2035.17V189.56H1.18994V189.52H132.56H163.09H264.49Z" fill="#492909"/>
<path d="M0 189.47H132.67C134.59 188.56 136.41 187.42 138.06 186.02C145.76 179.46 148.1 166.48 141.23 159.06C151.06 165.82 154.1 178.89 161.73 188.06C162.15 188.56 162.6 189 163.04 189.47H264.63C293.76 179.28 321.73 165.31 349.39 151.44C352.45 167.89 365.14 179.79 379.41 189.47H470.83C469.15 181.86 465.48 174.7 460.26 168.92C483.53 177.16 507.92 182.26 532.55 184.02C545.03 184.91 558.38 184.73 568.93 178C575.05 174.09 579.7 168.27 583.86 162.32C586.35 158.75 588.75 155.01 589.96 150.82C593.72 137.79 585.32 124.66 577.35 113.68C588.91 117.42 597.5 127.12 604.29 137.2C611.08 147.28 616.78 158.26 625.4 166.81C640.58 181.86 662.68 187.32 684.04 189.47H726.45C731.5 188.85 736.52 187.99 741.47 186.78C766.89 180.57 790.13 165.81 806.57 145.46C802.13 161.1 808.1 178.88 820.28 189.47H851.64C850.61 187.7 849.6 185.92 848.23 184.42C845.94 181.92 842.75 180.4 839.46 179.61C836.17 178.82 832.76 178.7 829.37 178.65C826.74 178.61 824.08 178.6 821.52 177.97C818.96 177.34 816.47 176.03 814.97 173.87C812.98 171.02 813.02 167.16 814.02 163.83C815.87 157.61 820.67 152.55 826.35 149.41C832.03 146.27 838.53 144.88 844.99 144.32C854.04 143.53 863.67 144.44 871.2 149.51C875.32 152.29 878.57 156.16 881.44 160.21C882.74 162.05 883.98 163.98 884.54 166.15C885.57 170.18 884.11 174.39 882.53 178.24C881.01 181.93 879.3 185.66 876.4 188.4C875.99 188.79 875.54 189.13 875.09 189.47H887.77C891.59 179.79 894.61 169.24 890.52 159.89C887.41 152.78 880.7 147.9 873.77 144.39C855.82 135.29 834.37 133.3 815.05 138.94C818 130.12 817.73 120.26 814.3 111.62C827.89 119.71 842.32 128.05 858.13 128.18C881.11 128.36 900.29 111.46 921.98 103.86C934.33 99.53 948.89 97.4 956.46 86.73C962.08 78.81 962.07 67.91 958.58 58.85C955.09 49.79 948.58 42.24 941.79 35.3C937.13 30.54 932.07 25.88 926.53 22.15H1054.03C1053.72 22.27 1053.4 22.38 1053.09 22.5C1040.72 27.08 1028.28 32.25 1018.29 40.86C1008.3 49.47 1000.99 62.13 1001.83 75.28C1002.18 80.82 1003.94 86.18 1006.05 91.32C1011.8 105.32 1020.34 118.17 1031.01 128.9C1027.06 126.43 1023.11 123.96 1019.15 121.49C1015.94 123.26 1013.8 126.82 1013.75 130.48C1000.11 123.58 985.6 118.39 970.68 115.07C958.66 112.4 945.94 110.96 934.17 114.57C922.4 118.18 911.82 127.84 910.3 140.05C908.92 151.07 915.17 162.05 924.04 168.73C927.43 171.28 931.2 173.33 934.24 176.29C937.28 179.24 939.55 183.43 938.83 187.6C936.36 182.82 929.8 181.59 924.64 183.12C920.36 184.39 916.7 187.03 912.94 189.48H955.9C953.99 188.74 952.21 187.74 950.7 186.31C944.9 180.86 943.27 170.02 935.38 169.03C952.81 168.45 969.46 176 986.79 177.96C1004.12 179.92 1025.23 173.17 1029.39 156.24C1031.34 148.28 1029.02 139.96 1026.52 132.16C1060.09 163.73 1110.82 166.21 1156.91 166.91C1208.43 167.69 1259.95 168.46 1311.47 169.24C1326.58 169.47 1341.86 169.68 1356.59 166.31C1371.32 162.94 1385.68 155.59 1394.54 143.36C1398.37 156.1 1411.23 164.73 1424.43 166.39C1437.63 168.05 1450.97 163.75 1462.65 157.38C1469.47 153.66 1476.02 149.18 1483.53 147.22C1500.7 142.74 1518.1 152.24 1533.31 161.38C1515.13 166.15 1495.91 171.51 1483.12 185.29C1481.88 186.63 1480.69 188.05 1479.51 189.47H1561.97C1552.79 188.99 1543.62 188.63 1534.46 188.75C1519.8 188.95 1505.02 190.39 1490.56 187.97C1506.71 173.76 1529.27 168.94 1546.29 155.78C1556.8 147.66 1564.74 136.7 1571.7 125.4C1574.46 120.92 1577.12 116.29 1578.53 111.21C1582.22 97.95 1576.91 83.91 1570.44 71.76C1587.3 79.13 1606.57 77.39 1624.88 75.5C1630.39 74.93 1635.94 74.36 1641.24 72.77C1635.43 75.01 1630.6 79.15 1625.89 83.22C1616.86 91.01 1607.46 99.34 1603.56 110.61C1600.53 119.37 1601.19 128.92 1601.95 138.16C1602.25 141.88 1602.57 145.62 1603.53 149.23C1605.08 155.1 1608.25 160.41 1611.63 165.46C1618.16 175.23 1626.55 185.01 1638.06 187.36C1636.45 188.16 1634.66 188.5 1632.88 188.79C1631.35 189.04 1629.82 189.25 1628.29 189.45H1651.68C1649.79 188.49 1647.88 187.6 1645.86 186.97C1649.07 186.71 1652.29 186.96 1655.51 187.07C1681.96 187.98 1707.71 179.44 1732.79 171.01C1749.3 165.46 1765.96 159.84 1780.9 150.87C1788.56 146.27 1795.96 140.52 1799.92 132.52C1801.64 138.66 1799.73 145.67 1795.14 150.1C1791.98 153.14 1787.47 155.37 1786.43 159.62C1785.27 164.41 1789.24 168.87 1793.27 171.7C1801.43 177.42 1811.29 180.69 1821.25 180.96C1811.71 182.4 1802.07 183.87 1793.1 187.44C1791.53 188.06 1789.99 188.75 1788.46 189.45H1820.07C1828.89 185.92 1837.03 180.67 1843.83 174.03C1846.38 171.54 1848.77 168.84 1850.63 165.8C1855.14 158.42 1856.3 149.32 1855.12 140.75C1853.93 132.18 1850.54 124.06 1846.48 116.42C1840.92 105.96 1833.84 96.01 1824.11 89.24C1832.44 92.32 1839.97 97.51 1845.81 104.19C1850.42 109.46 1853.96 115.6 1858.54 120.9C1863.05 126.12 1868.48 130.44 1874.01 134.56C1885.58 143.21 1897.86 151.22 1911.53 155.88C1925.2 160.54 1940.5 161.62 1954 156.46C1960.26 154.07 1965.98 150.41 1971.18 146.19C1989.54 131.26 2000.7 108.32 2000.9 84.66C2000.49 82.48 2000.1 80.16 1999.53 78.35C1998.13 74.6 1996.9 72.63 1995.79 70.6C1990.97 62.93 1985.98 55.54 1979.28 49.44C1970.99 41.89 1960.32 37.29 1949.35 34.94C1938.38 32.59 1927.07 32.37 1915.86 32.72C1903.15 33.12 1889.21 33.91 1879.05 26.25C1878.15 25.57 1877.24 24.74 1877.06 23.63C1876.98 23.12 1877.06 22.62 1877.21 22.12H2005.79V22.11H0V189.45V189.47ZM1012.01 152.75C1011.4 156.01 1010.66 159.23 1009.81 162.42C1009.15 164.92 1008.35 167.49 1006.37 169.24C1003.41 171.86 998.53 172.07 994.02 171.96C980.31 171.64 966.37 169.65 952.7 166.06C947.32 164.65 941.9 162.95 937.07 160.11C932.25 157.27 928.03 153.15 926.4 148.41C924.86 143.94 925.73 139.45 926.61 135.17C927.16 132.51 927.8 129.69 929.99 127.97C931.13 127.07 932.6 126.55 934.05 126.05C940.97 123.65 948.3 121.34 956.2 122.29C959.29 122.66 962.35 123.52 965.39 124.38C970.89 125.93 976.39 127.47 981.89 129.02C984.99 129.89 988.09 130.76 991.12 131.91C996.27 133.86 1001.12 136.59 1005.67 139.65C1008.12 141.3 1010.61 143.2 1011.72 145.66C1012.79 148 1012.43 150.46 1011.99 152.76L1012.01 152.75ZM1438.97 40.31C1435.79 47.72 1429.82 53.8 1423.04 58.97C1413.54 66.2 1401.62 72.02 1387.71 71.82C1380.11 71.71 1372.34 69.82 1364.83 67.44C1361.43 66.36 1357.99 65.15 1355.07 63.19C1349.68 59.55 1346.93 53.96 1344.71 48.68C1342.58 43.62 1340.62 38.36 1341.05 33.34C1341.41 29.1 1343.43 25.45 1346.16 22.14H1405.43H1424.8H1440.38C1442.03 28.37 1441.34 34.75 1438.95 40.3L1438.97 40.31ZM1832.43 67.29C1834.77 64.31 1838.41 62.73 1841.62 60.72C1852.39 53.95 1859.69 41.23 1872.1 38.43C1878.2 37.05 1884.54 38.38 1890.74 39.16C1901.75 40.55 1912.9 40.19 1924 39.8C1928.94 39.63 1933.89 39.45 1938.82 39.76C1942.63 40 1946.41 40.53 1950.14 41.34C1964.8 44.55 1979 52.86 1986 66.13C1995.1 83.37 1990.18 105.09 1979.84 121.62C1977 126.15 1973.74 130.5 1969.59 133.87C1965.85 136.9 1961.49 139.07 1957.07 141C1951.07 143.63 1944.88 145.87 1938.46 147.19C1912.55 152.49 1884.71 141.34 1867.21 121.51C1861.3 114.82 1856.42 107.2 1849.88 101.13C1844.7 96.32 1838.51 92.51 1834.22 86.89C1829.93 81.27 1828.06 72.84 1832.42 67.29H1832.43ZM1805.58 145.12C1807.42 142.28 1808.09 138.81 1808.04 135.42C1807.98 132.04 1807.24 128.7 1806.44 125.41C1805.82 122.85 1805.16 120.27 1805.13 117.64C1805.09 115.01 1805.74 112.27 1807.45 110.27C1809.71 107.63 1813.46 106.7 1816.94 106.83C1823.42 107.06 1829.53 110.44 1834 115.14C1838.47 119.84 1841.44 125.78 1843.61 131.9C1846.64 140.46 1848.19 150 1845.16 158.56C1843.51 163.24 1840.58 167.36 1837.37 171.15C1835.92 172.86 1834.36 174.56 1832.39 175.64C1828.75 177.65 1824.3 177.29 1820.18 176.73C1816.23 176.19 1812.18 175.47 1808.8 173.35C1803.41 169.98 1800.66 163.74 1798.21 157.87C1797.84 156.99 1797.47 156.07 1797.59 155.12C1797.68 154.39 1798.07 153.73 1798.49 153.12C1800.54 150.19 1803.64 148.1 1805.59 145.1L1805.58 145.12ZM1797.12 83.18C1795.49 68.16 1782.46 56.25 1768.02 51.77C1753.59 47.29 1738 48.91 1723.13 51.62C1705.82 54.78 1688.56 59.38 1670.97 59.03C1677.1 55.46 1680.34 47.57 1678.5 40.73C1676.45 33.12 1669.41 28.2 1664.26 22.14H1864.75C1863.3 28.64 1861.27 35.2 1856.36 39.56C1854.09 41.58 1851.36 42.98 1848.72 44.48C1843.48 47.48 1838.54 50.98 1833.98 54.93C1830.07 58.32 1826.34 62.18 1824.53 67.02C1822.71 71.86 1823.21 77.87 1826.92 81.47C1822.81 79.91 1818.82 78.02 1815.01 75.82C1810.07 79.5 1809.12 87.47 1813.05 92.21C1814.33 93.76 1816.16 95.6 1815.28 97.41C1810.52 94.46 1803.67 95.53 1800.04 99.79C1796.87 95.05 1797.74 88.83 1797.12 83.17V83.18ZM1654.87 72.37C1661.13 69.84 1667.79 68.47 1674.41 67.12C1686.37 64.68 1698.33 62.23 1710.29 59.79C1717.03 58.41 1723.78 57.04 1730.62 56.39C1742.27 55.29 1754.05 56.32 1765.56 58.5C1771.75 59.67 1778.24 61.37 1782.62 65.9C1786.79 70.22 1788.32 76.36 1789.57 82.23C1791.34 90.54 1792.85 98.91 1794.1 107.31C1795.08 113.9 1795.88 120.8 1793.67 127.08C1790.36 136.48 1781.18 142.35 1772.41 147.08C1745.8 161.45 1717.22 172.16 1687.72 178.81C1676.11 181.43 1664.16 183.43 1652.33 182.1C1640.5 180.77 1628.68 175.75 1621.26 166.44C1614.26 157.66 1611.88 146.19 1609.69 135.18C1608.33 128.34 1607.02 121.03 1609.67 114.58C1611.05 111.22 1613.4 108.37 1615.73 105.59C1626.84 92.34 1638.84 78.85 1654.87 72.36V72.37ZM1577.44 60.92C1574.16 56.85 1573.37 51.86 1572.67 47.07C1572.24 44.1 1571.84 40.92 1573.47 38.31C1574.32 36.95 1575.65 35.85 1576.97 34.78C1583.26 29.68 1590.01 24.52 1598.59 22.52C1599.24 22.37 1599.89 22.25 1600.55 22.14H1657.38C1660.29 22.91 1663.21 23.94 1665.13 25.89C1667.12 27.93 1667.68 30.61 1668.09 33.17C1668.68 36.79 1669.13 40.42 1669.45 44.05C1669.7 46.9 1669.84 49.87 1668.45 52.44C1666.36 56.28 1661.37 58.33 1656.63 59.93C1642.26 64.77 1627.01 67.95 1611.44 69.37C1605.31 69.93 1599.03 70.2 1592.95 69.07C1586.86 67.94 1580.93 65.24 1577.44 60.92ZM1542.27 32.37C1531.63 28.57 1520.05 28.7 1508.75 28.87C1503.41 28.95 1498.05 29.04 1492.77 29.79C1487.45 30.55 1482.25 31.99 1477.12 33.59C1471.31 35.4 1465.56 37.42 1459.9 39.65C1453.33 42.24 1446.76 45.22 1441.03 49.27C1438.73 51.62 1436.24 53.78 1433.62 55.71C1435.84 53.27 1438.35 51.16 1441.03 49.27C1447.98 42.17 1453.11 33.33 1454.33 23.56C1454.39 23.09 1454.42 22.61 1454.46 22.14H1576.92C1573.82 25.91 1571.62 30.48 1570.56 35.26C1568.72 43.56 1569.98 52.32 1572.94 60.29C1566.26 47.83 1555.59 37.13 1542.27 32.37ZM1412.63 93.04C1420.8 79.01 1433 67.7 1446.18 58.21C1464.63 44.92 1486.49 34.52 1509.19 35.79C1521.6 36.48 1533.57 40.63 1544.92 45.68C1550.06 47.97 1555.22 50.52 1559.21 54.48C1566.59 61.82 1568.86 72.74 1570.39 83.04C1571.86 92.91 1572.96 103.14 1570.25 112.75C1565.93 128.07 1552.87 139.05 1540.48 149.04C1538.63 150.53 1536.66 152.08 1534.31 152.45C1532.48 152.74 1530.62 152.28 1528.87 151.69C1520.39 148.83 1513.19 142.84 1504.61 140.27C1496.49 137.83 1487.67 138.66 1479.57 141.17C1471.48 143.68 1463.99 147.81 1456.64 152.03C1450.92 155.31 1445.19 158.7 1438.89 160.63C1432.59 162.57 1425.56 162.93 1419.55 160.22C1411.61 156.64 1406.76 148.29 1404.62 139.85C1400.63 124.11 1404.46 107.07 1412.63 93.04ZM1381.89 92.5C1377.97 87.78 1373.26 83.77 1368.28 80.18C1345.28 63.6 1316.95 56.09 1288.86 52.19C1260.78 48.29 1232.29 47.68 1204.29 43.22C1182.11 39.69 1159.85 33.48 1140.63 22.14H1339.02C1336.95 30.6 1333.26 38.96 1335.75 47.14C1337.97 54.44 1344.59 59.42 1351.09 63.42C1361.27 69.69 1372.3 74.91 1384.09 76.91C1395.88 78.92 1408.53 77.48 1418.74 71.25C1404.85 84.35 1396.16 102.83 1394.94 121.88C1393.1 111.2 1388.84 100.82 1381.91 92.48L1381.89 92.5ZM1086.58 28.98C1103.56 28.82 1120.38 32.42 1137.12 35.88C1182.83 45.33 1228.68 53.86 1274.74 60.36C1302.49 64.28 1330.8 67.62 1356.49 80.88C1365.15 85.35 1373.62 91.11 1379.67 99.83C1385.72 108.55 1389.02 120.68 1386.33 131.58C1383.63 142.51 1375.41 150.43 1366.52 154.25C1357.62 158.07 1348 158.43 1338.57 158.75C1307.59 159.79 1276.61 160.76 1245.62 161.65C1186.32 163.35 1125.27 164.44 1069.86 138.86C1052.27 130.74 1034.75 119.2 1024.6 100.04C1021.54 94.26 1019.19 87.75 1018.87 80.9C1018.15 65.78 1027.36 52.36 1037.95 44.26C1052.29 33.28 1069.63 29.13 1086.6 28.97L1086.58 28.98ZM624.5 38.04C622.51 40.45 619.56 41.84 616.72 43.16C605.14 48.55 592.87 54.98 587.33 66.48C588.04 58.75 577.64 54.45 575.83 46.9C574.53 41.5 577.65 34.66 573.6 30.85C572.12 29.46 570.05 28.95 568.1 28.41C563.44 27.12 558.91 25.36 554.61 23.15C554.1 22.89 553.6 22.57 553.22 22.14H614.87C616.8 23.83 618.92 25.3 621.18 26.51C622.67 27.31 624.27 28.05 625.31 29.38C627.24 31.85 626.51 35.61 624.51 38.03L624.5 38.04ZM813.5 71.31C814.48 68.93 816.15 66.91 817.8 64.94C825.68 55.54 834.18 45.98 845.55 41.38C849.99 39.58 854.71 38.62 859.4 37.66C867.88 35.93 876.36 34.2 884.84 32.46C889.62 31.48 894.4 30.51 899.26 30.05C907.52 29.27 915.88 30 924.03 31.54C928.42 32.37 933.02 33.57 936.13 36.79C939.08 39.85 940.17 44.21 941.06 48.37C942.31 54.26 943.38 60.19 944.27 66.15C944.97 70.82 945.53 75.71 943.96 80.17C941.61 86.83 935.1 91 928.88 94.35C910.02 104.54 889.75 112.14 868.83 116.85C860.6 118.71 852.13 120.12 843.74 119.18C835.35 118.24 826.97 114.68 821.71 108.08C816.75 101.86 815.06 93.72 813.51 85.92C812.55 81.07 811.62 75.89 813.49 71.31H813.5ZM809.02 69.13C807.81 61.86 803.32 55.46 797.78 50.6C792.24 45.74 785.67 42.22 779.15 38.8C773.57 35.87 767.93 32.95 761.88 31.17C753.49 28.71 744.62 28.53 735.88 28.37C717.74 28.04 699.61 27.71 681.47 27.38C670.93 27.19 660.34 26.99 649.96 25.16C645.8 24.43 641.69 23.4 637.66 22.15H853.18C849.38 23.64 845.68 25.36 842.17 27.49C832.38 33.41 824.44 41.89 816.92 50.5C812.31 55.78 807.49 62.28 809.02 69.12V69.13ZM596.23 71.52C599.35 67.55 604.2 65.44 608.48 62.75C622.84 53.72 632.58 36.76 649.13 33.02C657.27 31.18 665.71 32.96 673.99 34C688.68 35.85 703.54 35.38 718.34 34.86C724.92 34.63 731.52 34.39 738.1 34.8C743.18 35.12 748.23 35.83 753.19 36.91C772.74 41.19 791.67 52.28 801.01 69.97C813.15 92.96 806.59 121.93 792.8 143.96C789.02 150.01 784.67 155.8 779.13 160.29C774.14 164.34 768.32 167.22 762.44 169.8C754.44 173.3 746.18 176.3 737.62 178.05C703.07 185.11 665.94 170.24 642.62 143.81C634.74 134.89 628.23 124.73 619.51 116.63C612.6 110.22 604.35 105.14 598.63 97.65C592.91 90.16 590.41 78.92 596.24 71.51L596.23 71.52ZM569.86 97.85C563.37 97.67 557.08 95.55 551.23 92.74C543.04 88.81 535.21 83.13 531.32 74.93C529.19 70.45 528.36 65.46 527.96 60.51C527.78 58.27 527.69 55.98 528.32 53.82C529.48 49.83 532.89 46.95 536.21 44.44C539.39 42.04 542.77 39.7 546.66 38.81C552.86 37.4 559.21 39.88 565.09 42.32C565.97 42.68 566.89 43.08 567.47 43.83C567.92 44.41 568.12 45.15 568.24 45.88C568.86 49.4 568.13 53.07 568.87 56.57C569.57 59.88 571.54 62.82 573.97 65.18C576.4 67.54 579.28 69.38 582.16 71.15C584.4 72.53 586.69 73.89 588.57 75.73C590.45 77.57 591.93 79.96 592.12 82.59C592.38 86.06 590.38 89.35 587.82 91.72C583.06 96.13 576.35 98.04 569.86 97.86V97.85ZM418.65 115.96C413.32 104.73 411.24 92.24 410.24 79.86C409.79 74.25 409.56 68.51 411.14 63.11C414.05 53.12 422.57 45.91 430.88 39.63C438.85 33.62 447.31 27.76 457.04 25.54C472.56 22 488.46 28.22 503.16 34.32C505.36 35.23 507.66 36.22 509.11 38.1C510.24 39.56 510.73 41.42 511.04 43.24C512.59 52.06 510.77 61.24 512.61 70C514.35 78.29 519.3 85.64 525.38 91.55C531.46 97.45 538.66 102.05 545.89 106.48C551.51 109.93 557.23 113.35 561.94 117.95C566.65 122.56 570.34 128.55 570.83 135.12C571.48 143.81 566.47 152.05 560.08 157.97C548.16 169 531.36 173.8 515.12 173.34C498.88 172.88 483.12 167.58 468.48 160.55C447.98 150.72 428.39 136.5 418.64 115.96H418.65ZM362.94 146.73C363.49 144.07 364.13 141.25 366.32 139.53C367.46 138.63 368.93 138.11 370.38 137.61C377.3 135.21 384.63 132.9 392.53 133.85C395.62 134.22 398.68 135.08 401.72 135.94C407.22 137.49 412.72 139.03 418.22 140.58C421.32 141.45 424.42 142.32 427.45 143.47C432.6 145.42 437.45 148.15 442 151.21C444.45 152.86 446.94 154.76 448.05 157.22C449.12 159.56 448.76 162.02 448.32 164.32C447.71 167.58 446.97 170.8 446.12 173.99C445.46 176.49 444.66 179.06 442.68 180.81C439.72 183.43 434.84 183.64 430.33 183.53C416.62 183.21 402.68 181.22 389.01 177.63C383.63 176.22 378.21 174.52 373.38 171.68C368.56 168.84 364.34 164.72 362.71 159.98C361.17 155.51 362.04 151.02 362.92 146.74L362.94 146.73ZM134.93 92.85C138.65 79.7 146.38 72.33 155.33 68.77C164.28 65.21 174.49 65.19 184.6 65.07C212.21 64.73 239.56 63.48 266.31 60.31C282.43 58.4 298.63 55.83 316.97 63.07C323.15 65.51 329.69 69.2 335.99 76.13C342.29 83.07 348.34 93.75 350.78 104.49C353.22 115.26 351.67 124.31 348.3 129.68C344.93 135.04 339.96 137.32 335.06 139.51C318.99 146.71 302.89 153.84 286.76 160.9C255.89 174.41 223.88 187.7 185.41 174.91C173.2 170.85 159.81 163.58 147.63 147.7C143.96 142.91 140.4 137.29 137.8 130.95C132.06 116.95 132.19 102.55 134.93 92.84V92.85ZM130.07 63.73C132.45 50.63 128.8 36.56 120.34 26.28C119.17 24.86 117.91 23.49 116.61 22.15H432.4C425.4 25.56 418.62 29.36 412.46 34.1C401.64 42.41 392.7 53.96 390.35 67.39C388.25 79.38 391.58 91.8 397.31 102.54C403.03 113.28 411.04 122.6 418.98 131.82C403.37 117.26 376.18 117.67 361.01 132.69C366.96 113.06 364.16 90.82 352.99 73.61C341.82 56.4 322.32 44.71 301.83 43.59C289.85 42.93 277.99 45.68 266.21 47.96C227.87 55.37 188.59 57.87 149.62 55.38C145.73 55.13 141.74 54.84 138 55.95C134.26 57.06 130.76 59.89 130.07 63.73ZM62.16 134.66C63.32 130.67 66.73 127.79 70.05 125.28C73.23 122.88 76.61 120.54 80.5 119.65C86.7 118.24 93.05 120.72 98.93 123.16C99.81 123.52 100.73 123.92 101.31 124.67C101.76 125.26 101.96 125.99 102.08 126.72C102.7 130.24 101.97 133.91 102.71 137.41C103.41 140.72 105.38 143.66 107.81 146.02C110.24 148.38 113.12 150.22 116 151.99C118.24 153.37 120.53 154.73 122.41 156.57C124.29 158.41 125.77 160.81 125.96 163.43C126.22 166.9 124.22 170.19 121.66 172.56C116.9 176.97 110.19 178.88 103.7 178.7C97.21 178.52 90.92 176.4 85.07 173.59C76.88 169.66 69.05 163.98 65.16 155.78C63.03 151.3 62.2 146.31 61.8 141.36C61.62 139.12 61.53 136.83 62.16 134.67V134.66ZM37.48 65C37.89 63.61 38.8 62.34 39.69 61.09C43.96 55.14 48.62 49.03 55.63 45.26C58.36 43.79 61.36 42.72 64.34 41.67C69.73 39.76 75.11 37.86 80.5 35.95C83.53 34.88 86.57 33.8 89.71 33C95.04 31.63 100.58 31.06 106.06 30.95C109.01 30.89 112.14 31 114.47 32.37C116.69 33.67 117.82 35.88 118.79 38.01C120.17 41.03 121.43 44.08 122.57 47.18C123.47 49.6 124.3 52.16 123.69 54.73C122.78 58.57 118.92 61.56 115.16 64.07C103.78 71.71 91.23 78.12 77.99 83.05C72.78 84.99 67.37 86.73 61.79 87.19C56.21 87.65 50.39 86.71 46.33 83.77C42.5 81 40.62 76.84 38.87 72.83C37.78 70.34 36.68 67.67 37.48 65Z" fill="#4C3B30"/>
<path d="M1086.59 28.98C1069.61 29.14 1052.28 33.29 1037.94 44.27C1027.35 52.37 1018.15 65.79 1018.86 80.91C1019.19 87.76 1021.53 94.27 1024.59 100.05C1034.74 119.21 1052.27 130.75 1069.85 138.87C1125.26 164.44 1186.31 163.36 1245.61 161.66C1276.59 160.77 1307.58 159.8 1338.56 158.76C1348 158.44 1357.62 158.08 1366.51 154.26C1375.41 150.44 1383.62 142.52 1386.32 131.59C1389.02 120.69 1385.72 108.55 1379.66 99.84C1373.61 91.12 1365.14 85.36 1356.48 80.89C1330.79 67.62 1302.48 64.29 1274.73 60.37C1228.67 53.86 1182.82 45.34 1137.11 35.89C1120.38 32.43 1103.55 28.83 1086.57 28.99L1086.59 28.98ZM1066.64 74.46C1080.1 61.28 1099.16 62.28 1116.36 63.93C1122.17 64.49 1127.99 65.04 1133.8 65.6C1140.56 66.25 1147.32 66.9 1154.08 67.62C1171.44 69.49 1188.75 71.91 1206.03 74.65C1232.44 78.84 1258.77 83.8 1285.09 88.76C1300.38 91.64 1315.68 94.52 1330.75 98.79C1337.15 100.6 1343.58 102.7 1349.3 106.64C1351.54 108.18 1353.93 110.67 1353.59 113.79C1353.41 115.48 1352.43 116.88 1351.41 118.04C1347.61 122.38 1342.7 124.97 1337.77 127.01C1319.64 134.51 1300.19 135.71 1281.05 135.93C1252.75 136.26 1224.45 134.6 1196.2 132.38C1169.47 130.27 1142.65 127.63 1116.54 120.33C1099.84 115.66 1083.4 109.04 1068.42 98.88C1065.28 96.75 1061.97 94.12 1060.89 89.93C1059.4 84.19 1062.79 78.24 1066.64 74.47V74.46Z" fill="#665040"/>
<path d="M1066.64 74.45C1062.79 78.22 1059.41 84.17 1060.89 89.91C1061.97 94.09 1065.28 96.73 1068.42 98.86C1083.4 109.02 1099.84 115.64 1116.54 120.31C1142.65 127.61 1169.47 130.26 1196.2 132.36C1224.45 134.59 1252.74 136.24 1281.05 135.91C1300.2 135.69 1319.64 134.49 1337.77 126.99C1342.7 124.95 1347.61 122.37 1351.41 118.02C1352.43 116.85 1353.4 115.46 1353.59 113.77C1353.93 110.65 1351.54 108.16 1349.3 106.62C1343.58 102.69 1337.14 100.59 1330.75 98.7701C1315.68 94.5 1300.38 91.62 1285.09 88.74C1258.77 83.78 1232.44 78.82 1206.03 74.63C1188.75 71.89 1171.43 69.48 1154.08 67.6C1147.32 66.87 1140.56 66.22 1133.8 65.58C1127.99 65.02 1122.17 64.47 1116.36 63.91C1099.16 62.26 1080.1 61.27 1066.64 74.44V74.45ZM1160.86 97.55C1161.95 93.18 1165.4 90.1501 1169.05 88.9601C1172.69 87.7701 1176.55 88.11 1180.31 88.49C1191.58 89.65 1202.83 91.17 1214.03 93.04C1226.7 95.16 1239.54 97.8101 1250.95 104.78C1252.09 105.48 1253.26 106.26 1253.96 107.55C1255.4 110.17 1254.26 113.94 1252.19 115.85C1250.12 117.75 1247.41 118.25 1244.82 118.62C1220.78 122.02 1196.13 118.99 1173.14 109.82C1167.83 107.7 1161.84 104.2 1160.86 97.55Z" fill="#8C6D57"/>
<path d="M1160.87 97.55C1161.85 104.2 1167.84 107.7 1173.15 109.82C1196.14 118.99 1220.79 122.02 1244.83 118.62C1247.42 118.25 1250.12 117.75 1252.2 115.85C1254.27 113.95 1255.41 110.18 1253.97 107.55C1253.27 106.26 1252.1 105.48 1250.96 104.78C1239.55 97.81 1226.71 95.16 1214.04 93.04C1202.83 91.17 1191.59 89.65 1180.32 88.49C1176.56 88.1 1172.71 87.76 1169.06 88.96C1165.42 90.15 1161.96 93.18 1160.87 97.55ZM1187.82 102.85C1188.95 99.63 1192.56 99.28 1195.45 99.53C1204.14 100.3 1212.77 101.99 1221.3 104.18C1222.67 104.53 1224.09 104.93 1225.16 106.03C1226.23 107.12 1226.78 109.14 1226.01 110.55C1217.92 111.93 1209.7 110.28 1201.64 108.64C1196.78 107.65 1191.69 106.54 1187.82 102.86V102.85Z" fill="#A58065"/>
<path d="M1195.45 99.53C1204.14 100.3 1212.77 101.99 1221.3 104.18C1222.67 104.53 1224.09 104.93 1225.16 106.03C1226.23 107.12 1226.78 109.14 1226.01 110.55C1217.92 111.93 1209.7 110.28 1201.64 108.64C1196.78 107.65 1191.69 106.54 1187.82 102.86C1188.95 99.64 1192.56 99.29 1195.45 99.54V99.53Z" fill="#CCA47A"/>
<path d="M134.94 92.84C132.19 102.55 132.07 116.95 137.81 130.95C140.41 137.29 143.96 142.91 147.64 147.7C159.82 163.58 173.21 170.85 185.42 174.91C223.89 187.69 255.91 174.41 286.77 160.9C302.9 153.84 319 146.71 335.07 139.51C339.97 137.32 344.94 135.04 348.31 129.68C351.68 124.32 353.23 115.26 350.79 104.49C348.36 93.75 342.3 83.06 336 76.13C329.7 69.19 323.16 65.51 316.98 63.07C298.64 55.82 282.43 58.39 266.32 60.31C239.57 63.48 212.22 64.73 184.61 65.07C174.5 65.2 164.3 65.21 155.34 68.77C146.39 72.33 138.66 79.6999 134.94 92.8499V92.84ZM160.88 115.31C163.35 100.28 173.82 97.38 183.53 95.46C186.81 94.81 190.1 94.16 193.38 93.52C197.2 92.77 201.02 92.01 204.86 91.34C214.74 89.6 224.78 88.3799 234.92 87.4699C250.42 86.0799 266.15 85.43 281.88 84.77C291.01 84.39 300.16 84.0099 309.67 84.9699C313.71 85.3799 317.87 86.05 322.3 88.58C324.04 89.57 326.19 91.42 327.11 94.4C327.61 96.02 327.59 97.52 327.46 98.81C326.98 103.64 325.29 107.04 323.4 109.94C316.44 120.6 306.54 125.63 296.46 129.68C281.56 135.68 265.95 139.82 250.17 143.41C235.24 146.81 220.07 149.73 203.62 148.15C193.1 147.14 182.03 144.25 170.48 137.76C168.06 136.4 165.37 134.6 163.31 130.91C160.48 125.84 160.17 119.59 160.88 115.3V115.31Z" fill="#665040"/>
<path d="M160.88 115.31C160.17 119.61 160.49 125.85 163.31 130.92C165.37 134.61 168.06 136.41 170.48 137.77C182.03 144.26 193.1 147.14 203.62 148.16C220.07 149.74 235.23 146.82 250.17 143.42C265.95 139.83 281.55 135.68 296.46 129.69C306.54 125.63 316.44 120.61 323.4 109.95C325.29 107.05 326.99 103.65 327.46 98.82C327.59 97.52 327.61 96.02 327.11 94.41C326.18 91.43 324.04 89.58 322.3 88.59C317.87 86.06 313.71 85.39 309.67 84.98C300.16 84.02 291.02 84.4001 281.88 84.7801C266.15 85.4301 250.43 86.09 234.92 87.48C224.78 88.39 214.73 89.61 204.86 91.35C201.02 92.03 197.2 92.7801 193.38 93.5301C190.1 94.18 186.81 94.83 183.53 95.47C173.82 97.39 163.35 100.29 160.88 115.32V115.31ZM220.37 108.3C221.88 106.45 224.05 105.99 226.18 105.6C232.57 104.42 239.08 103.58 245.69 103.08C253.16 102.51 260.92 102.42 269.45 106.64C270.3 107.06 271.2 107.56 272.03 108.62C273.72 110.79 274.46 114.54 274.03 116.74C273.6 118.94 272.34 119.95 271.1 120.81C259.55 128.82 245.39 130.95 229.94 126.99C226.37 126.08 221.95 124.01 219.07 117.98C218.1 113.68 218.86 110.15 220.37 108.3Z" fill="#A58065"/>
<path d="M220.37 108.3C218.86 110.15 218.1 113.68 219.07 117.98C221.95 124 226.37 126.07 229.94 126.99C245.39 130.95 259.54 128.82 271.1 120.81C272.34 119.95 273.6 118.94 274.03 116.74C274.46 114.54 273.72 110.79 272.03 108.62C271.2 107.56 270.3 107.06 269.45 106.64C260.92 102.42 253.17 102.51 245.69 103.08C239.08 103.58 232.57 104.42 226.18 105.6C224.05 105.99 221.88 106.45 220.37 108.3ZM238.12 112.88C243.01 111.85 248.18 111.7 253.49 112.03C254.34 112.08 255.24 112.17 256.19 112.98C257.14 113.79 258.15 115.56 258.24 117.04C254.43 119.96 249.49 120.07 244.63 120.15C241.7 120.2 238.61 120.19 235.25 117.52C234.71 114.28 236.5 113.22 238.12 112.88Z" fill="#A58065"/>
<path d="M238.13 112.88C243.02 111.85 248.19 111.7 253.5 112.03C254.35 112.08 255.25 112.17 256.2 112.98C257.15 113.79 258.16 115.56 258.25 117.04C254.44 119.96 249.5 120.07 244.64 120.15C241.71 120.2 238.62 120.19 235.26 117.52C234.72 114.28 236.51 113.22 238.13 112.88Z" fill="#CCA47A"/>
<path d="M596.25 71.51C590.43 78.92 592.93 90.16 598.64 97.65C604.36 105.14 612.61 110.22 619.52 116.63C628.25 124.73 634.76 134.88 642.63 143.81C665.96 170.24 703.09 185.11 737.63 178.05C746.19 176.3 754.45 173.3 762.45 169.8C768.33 167.23 774.15 164.34 779.14 160.29C784.68 155.8 789.03 150.01 792.81 143.96C806.6 121.92 813.16 92.95 801.02 69.97C791.68 52.28 772.74 41.19 753.2 36.91C748.23 35.82 743.18 35.12 738.11 34.8C731.53 34.39 724.94 34.63 718.35 34.86C703.56 35.38 688.69 35.85 674 34C665.72 32.96 657.28 31.19 649.14 33.02C632.59 36.76 622.85 53.72 608.49 62.75C604.21 65.44 599.36 67.54 596.24 71.52L596.25 71.51ZM628.82 77.1C629.29 68.62 636.86 62.05 644.87 59.2C652.88 56.35 661.56 56.17 669.88 54.4C675.49 53.2 680.93 51.28 686.53 50.01C696.63 47.73 707.11 47.63 717.45 48.31C730 49.13 742.7 51.15 753.96 56.75C765.22 62.35 774.94 71.97 778.37 84.06C779.43 87.78 779.87 91.67 779.69 95.54C779.37 102.38 777.1 109 774.28 115.24C765.93 133.76 750.51 151.08 730.33 153.49C723.54 154.3 716.64 153.36 710.02 151.64C694.84 147.69 680.78 139.55 669.79 128.37C662.09 120.53 655.9 111.26 647.81 103.81C639.46 96.13 628.18 88.43 628.81 77.1H628.82Z" fill="#665040"/>
<path d="M628.82 77.09C628.19 88.42 639.47 96.11 647.82 103.8C655.91 111.25 662.1 120.52 669.8 128.36C680.79 139.55 694.85 147.68 710.03 151.63C716.65 153.35 723.55 154.29 730.34 153.48C750.52 151.07 765.93 133.75 774.29 115.23C777.11 108.98 779.38 102.37 779.7 95.53C779.88 91.67 779.43 87.77 778.38 84.05C774.95 71.96 765.22 62.34 753.97 56.74C742.71 51.14 730.01 49.12 717.46 48.3C707.12 47.62 696.64 47.72 686.54 50C680.94 51.27 675.5 53.19 669.89 54.39C661.58 56.16 652.89 56.33 644.88 59.19C636.87 62.05 629.3 68.61 628.83 77.09H628.82ZM659.51 71.32C664.38 67.27 670.83 65.7 677.11 64.83C696.14 62.21 715.9 65.06 733.41 72.96C736.71 74.45 740.1 76.27 741.94 79.38C743.25 81.59 743.63 84.22 743.74 86.78C744.32 99.39 738.66 112.4 728.31 119.65C717.96 126.9 703.09 127.57 692.72 120.35C685.06 115.02 680.32 106.19 672.47 101.13C666.15 97.06 657.58 95.11 654.46 88.27C651.84 82.5 654.62 75.38 659.49 71.32H659.51Z" fill="#8C6D57"/>
<path d="M654.48 88.27C657.59 95.11 666.17 97.06 672.49 101.13C680.34 106.18 685.07 115.02 692.74 120.35C703.11 127.56 717.98 126.89 728.33 119.65C738.68 112.4 744.34 99.39 743.76 86.78C743.64 84.22 743.26 81.59 741.96 79.38C740.12 76.27 736.72 74.45 733.43 72.96C715.92 65.06 696.16 62.21 677.13 64.83C670.85 65.7 664.4 67.26 659.53 71.32C654.66 75.37 651.87 82.5 654.5 88.27H654.48ZM683.35 83.7C684.51 80.7 686.88 78.32 689.46 76.4C690.32 75.76 691.24 75.14 692.28 74.89C693.84 74.52 695.46 75 696.99 75.5C701.98 77.12 706.91 78.9 711.78 80.85C716.96 82.93 722.82 86.15 723.39 91.7C723.58 93.5 723.15 95.29 722.7 97.04C721.88 100.21 720.87 103.53 718.42 105.7C715.34 108.41 710.86 108.6 706.76 108.65C702.53 108.7 697.58 108.4 695.2 104.9C693.77 102.81 693.65 100.02 692.1 98.02C690.24 95.61 686.81 94.95 684.7 92.74C682.48 90.41 682.19 86.7 683.35 83.7Z" fill="#A58065"/>
<path d="M689.46 76.4C690.32 75.76 691.24 75.14 692.28 74.89C693.84 74.52 695.46 75 696.99 75.5C701.98 77.12 706.91 78.9 711.78 80.85C716.96 82.93 722.82 86.15 723.39 91.7C723.58 93.5 723.15 95.29 722.7 97.04C721.88 100.21 720.87 103.53 718.42 105.7C715.34 108.41 710.86 108.6 706.76 108.65C702.53 108.7 697.58 108.4 695.2 104.9C693.77 102.81 693.65 100.02 692.1 98.02C690.24 95.61 686.81 94.95 684.7 92.74C682.48 90.41 682.19 86.7 683.35 83.7C684.51 80.7 686.88 78.32 689.46 76.4Z" fill="#CCA47A"/>
<path d="M1832.43 67.29C1828.06 72.85 1829.94 81.27 1834.23 86.89C1838.52 92.51 1844.71 96.32 1849.89 101.13C1856.43 107.2 1861.32 114.82 1867.22 121.51C1884.71 141.33 1912.56 152.49 1938.47 147.19C1944.89 145.88 1951.08 143.63 1957.08 141C1961.49 139.07 1965.86 136.9 1969.6 133.87C1973.75 130.5 1977.01 126.16 1979.85 121.62C1990.19 105.09 1995.11 83.37 1986.01 66.13C1979.01 52.86 1964.81 44.55 1950.15 41.34C1946.42 40.52 1942.64 39.99 1938.83 39.76C1933.9 39.45 1928.95 39.63 1924.01 39.8C1912.92 40.19 1901.77 40.54 1890.75 39.16C1884.54 38.38 1878.21 37.05 1872.11 38.43C1859.7 41.23 1852.4 53.95 1841.63 60.72C1838.42 62.74 1834.78 64.31 1832.44 67.29H1832.43ZM1856.86 71.48C1857.22 65.12 1862.89 60.19 1868.9 58.05C1874.9 55.91 1881.42 55.78 1887.65 54.45C1891.86 53.55 1895.94 52.11 1900.14 51.16C1907.72 49.45 1915.58 49.38 1923.33 49.88C1932.74 50.5 1942.27 52.01 1950.71 56.21C1959.15 60.41 1966.45 67.62 1969.02 76.69C1969.81 79.48 1970.15 82.4 1970.01 85.3C1969.77 90.43 1968.07 95.39 1965.95 100.07C1959.69 113.96 1948.12 126.95 1932.99 128.75C1927.9 129.36 1922.72 128.65 1917.76 127.36C1906.38 124.4 1895.83 118.3 1887.59 109.91C1881.81 104.03 1877.17 97.08 1871.11 91.49C1864.85 85.73 1856.39 79.96 1856.86 71.46V71.48Z" fill="#665040"/>
<path d="M1856.86 71.48C1856.39 79.97 1864.85 85.75 1871.11 91.51C1877.18 97.09 1881.82 104.05 1887.59 109.93C1895.83 118.32 1906.38 124.42 1917.76 127.38C1922.72 128.67 1927.9 129.38 1932.99 128.77C1948.12 126.96 1959.68 113.97 1965.95 100.09C1968.06 95.41 1969.77 90.45 1970.01 85.32C1970.15 82.42 1969.81 79.5 1969.02 76.71C1966.45 67.64 1959.15 60.43 1950.71 56.23C1942.27 52.03 1932.74 50.51 1923.33 49.9C1915.58 49.39 1907.72 49.46 1900.14 51.18C1895.94 52.13 1891.86 53.57 1887.65 54.47C1881.42 55.8 1874.9 55.93 1868.9 58.07C1862.9 60.21 1857.22 65.13 1856.86 71.5V71.48ZM1879.87 67.15C1883.52 64.11 1888.36 62.9301 1893.07 62.2801C1907.34 60.3101 1922.16 62.45 1935.29 68.37C1937.76 69.49 1940.31 70.85 1941.69 73.18C1942.67 74.84 1942.95 76.81 1943.04 78.73C1943.48 88.19 1939.23 97.95 1931.47 103.38C1923.71 108.81 1912.56 109.32 1904.78 103.91C1899.04 99.91 1895.48 93.29 1889.6 89.5C1884.86 86.45 1878.43 84.99 1876.1 79.86C1874.13 75.54 1876.22 70.19 1879.87 67.15Z" fill="#8C6D57"/>
<path d="M1876.1 79.86C1878.44 84.99 1884.86 86.45 1889.6 89.5C1895.48 93.29 1899.04 99.9199 1904.78 103.91C1912.56 109.32 1923.71 108.82 1931.47 103.38C1939.23 97.94 1943.48 88.19 1943.04 78.73C1942.95 76.81 1942.67 74.84 1941.69 73.18C1940.31 70.85 1937.76 69.48 1935.29 68.37C1922.16 62.45 1907.34 60.31 1893.07 62.28C1888.36 62.93 1883.52 64.11 1879.87 67.15C1876.22 70.19 1874.13 75.54 1876.1 79.86ZM1897.75 76.44C1898.62 74.19 1900.4 72.41 1902.33 70.96C1902.97 70.48 1903.66 70.02 1904.44 69.83C1905.61 69.55 1906.83 69.91 1907.97 70.28C1911.71 71.49 1915.41 72.83 1919.06 74.29C1922.95 75.85 1927.34 78.26 1927.77 82.43C1927.91 83.78 1927.59 85.12 1927.25 86.44C1926.64 88.82 1925.88 91.31 1924.04 92.93C1921.73 94.96 1918.37 95.11 1915.29 95.14C1912.12 95.18 1908.41 94.95 1906.62 92.33C1905.55 90.77 1905.46 88.67 1904.3 87.17C1902.91 85.36 1900.33 84.86 1898.75 83.21C1897.08 81.47 1896.87 78.68 1897.74 76.43L1897.75 76.44Z" fill="#A58065"/>
<path d="M1902.33 70.96C1902.97 70.48 1903.66 70.02 1904.44 69.83C1905.61 69.55 1906.83 69.91 1907.97 70.28C1911.71 71.49 1915.41 72.83 1919.06 74.29C1922.95 75.85 1927.34 78.26 1927.77 82.43C1927.91 83.78 1927.59 85.12 1927.25 86.44C1926.64 88.82 1925.88 91.31 1924.04 92.93C1921.73 94.96 1918.37 95.11 1915.29 95.14C1912.12 95.18 1908.41 94.95 1906.62 92.33C1905.55 90.77 1905.46 88.67 1904.3 87.17C1902.91 85.36 1900.33 84.86 1898.75 83.21C1897.08 81.47 1896.87 78.68 1897.74 76.43C1898.61 74.18 1900.39 72.4 1902.32 70.95L1902.33 70.96Z" fill="#CCA47A"/>
<path d="M813.51 71.3C811.63 75.87 812.57 81.06 813.53 85.91C815.08 93.72 816.77 101.85 821.73 108.07C826.99 114.67 835.37 118.23 843.76 119.17C852.15 120.11 860.62 118.7 868.85 116.84C889.77 112.12 910.03 104.53 928.9 94.34C935.12 90.98 941.63 86.82 943.98 80.16C945.55 75.71 944.98 70.81 944.29 66.14C943.4 60.18 942.33 54.25 941.08 48.36C940.2 44.2 939.11 39.84 936.15 36.78C933.05 33.56 928.44 32.36 924.05 31.53C915.89 29.99 907.54 29.25 899.28 30.04C894.43 30.5 889.64 31.48 884.86 32.45C876.38 34.18 867.9 35.91 859.42 37.65C854.73 38.61 850.01 39.58 845.57 41.37C834.2 45.97 825.7 55.53 817.82 64.93C816.17 66.9 814.5 68.92 813.52 71.3H813.51ZM831.96 62.64C835.79 58.21 841.97 56.78 847.71 55.6C853.62 54.38 859.53 53.17 865.44 51.95C873.53 50.29 881.62 48.62 889.72 47.01C893.8 46.2 897.97 45.4 902.11 45.9C909.43 46.79 915.95 51.95 918.99 58.66C922.03 65.37 921.7 73.4 918.61 80.1C917.64 82.19 916.41 84.19 914.75 85.79C913.05 87.43 910.95 88.61 908.89 89.77C899.74 94.9 890.49 100.06 880.45 103.11C869.68 106.38 858.15 107.12 847.05 105.24C843.97 104.72 840.86 103.97 838.23 102.29C832.22 98.44 830.13 90.76 828.93 83.72C827.69 76.48 827.17 68.2 831.97 62.64H831.96Z" fill="#665040"/>
<path d="M831.96 62.64C827.15 68.2 827.68 76.48 828.92 83.72C830.12 90.75 832.21 98.44 838.22 102.29C840.85 103.97 843.96 104.72 847.04 105.24C858.14 107.12 869.67 106.38 880.44 103.11C890.48 100.06 899.72 94.89 908.88 89.77C910.95 88.61 913.04 87.44 914.74 85.79C916.4 84.19 917.63 82.2 918.6 80.1C921.69 73.41 922.02 65.38 918.98 58.66C915.94 51.95 909.42 46.79 902.1 45.9C897.97 45.4 893.8 46.2 889.71 47.01C881.61 48.62 873.52 50.28 865.43 51.95C859.52 53.17 853.61 54.38 847.7 55.6C841.96 56.78 835.79 58.21 831.95 62.64H831.96ZM839.94 72.9C840.91 68.07 846.32 65.72 851.05 64.37C859.24 62.04 867.68 60.38 876.19 60.31C883.22 60.25 890.26 61.28 896.94 63.44C898.51 63.95 900.15 64.59 901.1 65.93C902.56 67.99 901.85 70.84 900.79 73.13C898.4 78.3 894.46 82.75 889.62 85.76C882.68 90.07 874.3 91.31 866.15 91.92C859.25 92.44 851.63 92.35 846.33 87.9C843.52 85.54 841.7 82.17 840.57 78.68C839.97 76.82 839.54 74.82 839.93 72.9H839.94Z" fill="#8C6D57"/>
<path d="M839.94 72.9C839.55 74.82 839.98 76.81 840.58 78.68C841.71 82.17 843.53 85.54 846.34 87.9C851.64 92.35 859.26 92.44 866.16 91.92C874.31 91.31 882.69 90.07 889.63 85.76C894.47 82.75 898.4 78.3 900.8 73.13C901.86 70.84 902.57 67.99 901.11 65.93C900.16 64.59 898.51 63.95 896.95 63.44C890.26 61.28 883.22 60.25 876.2 60.31C867.68 60.38 859.25 62.04 851.06 64.37C846.32 65.72 840.92 68.07 839.95 72.9H839.94ZM862.84 72.4699C863.27 71.3299 864.35 70.56 865.43 69.99C871.32 66.88 878.43 67.69 885.03 68.58C886.98 68.84 889.49 69.74 889.36 71.7C889.3 72.54 888.73 73.24 888.15 73.84C883.65 78.54 877.13 81.26 870.62 81.14C868.9 81.11 867.09 80.85 865.71 79.82C864.57 78.97 863.86 77.68 863.3 76.37C862.78 75.14 862.37 73.7299 862.84 72.4699Z" fill="#A58065"/>
<path d="M865.43 69.98C871.32 66.87 878.43 67.68 885.03 68.57C886.98 68.83 889.49 69.73 889.36 71.69C889.3 72.53 888.73 73.23 888.15 73.83C883.65 78.53 877.13 81.25 870.62 81.13C868.9 81.1 867.09 80.84 865.71 79.81C864.57 78.96 863.86 77.67 863.3 76.36C862.78 75.13 862.37 73.72 862.84 72.46C863.27 71.32 864.35 70.55 865.43 69.98Z" fill="#CCA47A"/>
<path d="M1012.01 152.75C1012.44 150.45 1012.8 147.99 1011.74 145.65C1010.62 143.19 1008.13 141.29 1005.69 139.64C1001.14 136.57 996.29 133.85 991.14 131.9C988.12 130.75 985.01 129.88 981.91 129.01C976.41 127.46 970.91 125.92 965.41 124.37C962.37 123.52 959.3 122.66 956.22 122.28C948.32 121.33 940.99 123.64 934.07 126.04C932.62 126.54 931.15 127.07 930.01 127.96C927.82 129.68 927.18 132.5 926.63 135.16C925.75 139.44 924.88 143.93 926.42 148.4C928.05 153.14 932.26 157.26 937.09 160.1C941.91 162.94 947.33 164.64 952.72 166.05C966.39 169.64 980.34 171.64 994.04 171.95C998.56 172.05 1003.44 171.85 1006.39 169.23C1008.37 167.48 1009.16 164.91 1009.83 162.41C1010.68 159.22 1011.41 156 1012.03 152.74L1012.01 152.75ZM991.13 162.04C990.06 162.8 988.86 163.43 987.49 163.75C986.08 164.08 984.55 164.07 983.04 164.05C976.35 163.99 969.59 163.92 962.85 162.58C955.62 161.14 948.51 158.24 942.28 154.18C940.55 153.05 938.85 151.8 937.67 150.23C934.95 146.63 935.47 142.26 936.39 138.45C937.33 134.53 938.93 130.3 943.11 128.92C946.44 127.82 950.48 128.86 954.21 129.91C958.04 130.98 961.88 132.06 965.71 133.13C970.96 134.6 976.21 136.07 981.45 137.57C984.09 138.33 986.79 139.11 989.15 140.53C993.34 143.04 996.07 147.42 996.34 151.59C996.61 155.76 994.55 159.62 991.14 162.04H991.13Z" fill="#665040"/>
<path d="M996.33 151.58C996.06 147.41 993.34 143.03 989.14 140.52C986.77 139.1 984.08 138.32 981.44 137.56C976.2 136.06 970.95 134.59 965.7 133.12C961.87 132.05 958.03 130.97 954.2 129.9C950.47 128.86 946.43 127.81 943.1 128.91C938.92 130.29 937.32 134.52 936.38 138.44C935.47 142.25 934.95 146.62 937.66 150.22C938.85 151.79 940.55 153.04 942.27 154.17C948.51 158.24 955.61 161.14 962.84 162.57C969.58 163.91 976.34 163.98 983.03 164.04C984.54 164.05 986.07 164.07 987.48 163.74C988.85 163.42 990.05 162.79 991.12 162.03C994.53 159.61 996.59 155.74 996.32 151.58H996.33ZM982.05 153.56C979.41 155.43 976.01 156.51 972.41 156.62C967.24 156.78 961.91 155.02 956.87 153.02C952.6 151.32 948.04 149.12 945.89 145.43C944.75 143.47 944.43 141.3 944.57 139.26C944.64 138.17 944.85 137.07 945.52 136.23C947.22 134.13 951.02 134.5 954.18 135.17C959.64 136.34 965.1 137.91 970.24 140.28C974.48 142.24 978.47 144.74 981.99 147.69C982.81 148.38 983.65 149.16 983.91 150.1C984.31 151.53 983.22 152.73 982.05 153.56Z" fill="#8C6D57"/>
<path d="M983.9 150.1C983.64 149.17 982.8 148.39 981.98 147.69C978.46 144.73 974.47 142.23 970.23 140.28C965.09 137.91 959.64 136.34 954.17 135.17C951.01 134.49 947.22 134.13 945.51 136.23C944.83 137.07 944.63 138.17 944.56 139.26C944.43 141.3 944.74 143.47 945.88 145.43C948.03 149.12 952.59 151.32 956.86 153.02C961.9 155.02 967.23 156.79 972.4 156.62C976.01 156.51 979.4 155.43 982.04 153.56C983.21 152.73 984.3 151.53 983.9 150.1ZM975.49 149.61C975.26 150.01 974.75 150.19 974.26 150.32C970.46 151.36 965.92 150.86 962.03 148.96C961 148.46 959.97 147.82 959.39 146.92C958.91 146.18 958.77 145.34 958.74 144.54C958.71 143.78 958.79 142.97 959.37 142.49C959.9 142.05 960.72 141.98 961.5 142C965.76 142.14 969.85 144.54 973.61 146.85C974.72 147.53 976.02 148.68 975.49 149.61Z" fill="#A58065"/>
<path d="M974.27 150.33C970.47 151.37 965.93 150.87 962.04 148.97C961.01 148.47 959.98 147.83 959.4 146.93C958.92 146.19 958.78 145.35 958.75 144.55C958.72 143.79 958.8 142.98 959.38 142.5C959.91 142.06 960.73 141.99 961.51 142.01C965.77 142.15 969.86 144.55 973.62 146.86C974.73 147.54 976.03 148.69 975.5 149.62C975.27 150.02 974.76 150.2 974.27 150.33Z" fill="#CCA47A"/>
<path d="M1572.67 47.07C1573.37 51.86 1574.16 56.85 1577.44 60.92C1580.92 65.23 1586.86 67.93 1592.95 69.07C1599.04 70.2 1605.31 69.92 1611.44 69.37C1627.01 67.96 1642.26 64.77 1656.63 59.93C1661.37 58.34 1666.36 56.28 1668.45 52.44C1669.84 49.87 1669.7 46.9 1669.45 44.05C1669.13 40.42 1668.67 36.79 1668.09 33.17C1667.67 30.62 1667.12 27.93 1665.13 25.89C1663.22 23.93 1660.29 22.91 1657.38 22.14H1600.55C1599.89 22.26 1599.24 22.37 1598.59 22.52C1590.01 24.51 1583.26 29.67 1576.97 34.78C1575.65 35.85 1574.32 36.95 1573.47 38.31C1571.84 40.93 1572.24 44.1 1572.67 47.07ZM1587.45 34.36C1590.5 31.96 1595.1 31.52 1599.36 31.2C1603.75 30.87 1608.14 30.54 1612.53 30.21C1618.54 29.76 1624.55 29.31 1630.57 28.89C1633.6 28.68 1636.7 28.48 1639.7 29.06C1645.01 30.09 1649.49 33.62 1651.35 37.85C1653.2 42.08 1652.51 46.88 1649.88 50.68C1649.06 51.87 1648.04 52.98 1646.74 53.83C1645.4 54.7 1643.81 55.26 1642.23 55.82C1635.25 58.28 1628.2 60.75 1620.68 61.9C1612.62 63.13 1604.14 62.8 1596.12 60.92C1593.9 60.4 1591.66 59.74 1589.83 58.55C1585.65 55.83 1584.54 51.09 1584.05 46.79C1583.55 42.36 1583.62 37.36 1587.44 34.35L1587.45 34.36Z" fill="#665040"/>
<path d="M1584.05 46.8C1584.54 51.1 1585.64 55.85 1589.83 58.56C1591.66 59.75 1593.89 60.41 1596.12 60.93C1604.14 62.81 1612.62 63.15 1620.68 61.91C1628.2 60.76 1635.25 58.29 1642.23 55.83C1643.81 55.28 1645.4 54.71 1646.74 53.84C1648.04 52.99 1649.06 51.88 1649.88 50.69C1652.51 46.89 1653.2 42.09 1651.35 37.86C1649.5 33.63 1645.01 30.09 1639.7 29.07C1636.7 28.49 1633.61 28.69 1630.57 28.9C1624.55 29.32 1618.54 29.77 1612.53 30.22C1608.14 30.55 1603.75 30.88 1599.36 31.21C1595.09 31.53 1590.5 31.97 1587.45 34.37C1583.63 37.38 1583.55 42.38 1584.06 46.81L1584.05 46.8ZM1592.71 41.05C1593.69 38.22 1597.77 37.17 1601.31 36.69C1607.43 35.84 1613.7 35.42 1619.93 35.95C1625.08 36.39 1630.17 37.48 1634.94 39.23C1636.06 39.64 1637.23 40.14 1637.85 41.01C1638.8 42.34 1638.12 44.01 1637.22 45.31C1635.18 48.25 1632.06 50.65 1628.35 52.13C1623.03 54.25 1616.83 54.42 1610.83 54.24C1605.75 54.08 1600.18 53.52 1596.55 50.49C1594.62 48.88 1593.48 46.74 1592.84 44.57C1592.5 43.41 1592.3 42.19 1592.69 41.06L1592.71 41.05Z" fill="#8C6D57"/>
<path d="M1592.72 41.06C1592.33 42.19 1592.53 43.41 1592.87 44.57C1593.5 46.74 1594.65 48.88 1596.58 50.49C1600.21 53.52 1605.78 54.08 1610.86 54.24C1616.86 54.42 1623.06 54.24 1628.38 52.13C1632.09 50.65 1635.21 48.25 1637.25 45.31C1638.15 44.01 1638.83 42.35 1637.88 41.01C1637.26 40.14 1636.09 39.64 1634.97 39.23C1630.2 37.48 1625.1 36.39 1619.96 35.95C1613.73 35.42 1607.46 35.84 1601.34 36.69C1597.8 37.18 1593.72 38.23 1592.74 41.05L1592.72 41.06ZM1609.5 42.35C1609.88 41.69 1610.71 41.31 1611.53 41.04C1616.01 39.58 1621.17 40.54 1625.95 41.52C1627.36 41.81 1629.15 42.52 1628.94 43.69C1628.85 44.19 1628.39 44.57 1627.93 44.89C1624.37 47.41 1619.46 48.59 1614.7 48.08C1613.44 47.94 1612.13 47.67 1611.18 46.96C1610.4 46.37 1609.94 45.55 1609.61 44.73C1609.29 43.95 1609.07 43.08 1609.49 42.36L1609.5 42.35Z" fill="#A58065"/>
<path d="M1611.53 41.03C1616.01 39.57 1621.17 40.53 1625.95 41.51C1627.36 41.8 1629.15 42.51 1628.94 43.68C1628.85 44.18 1628.39 44.56 1627.93 44.88C1624.37 47.4 1619.46 48.58 1614.7 48.07C1613.44 47.93 1612.13 47.66 1611.18 46.95C1610.4 46.36 1609.94 45.54 1609.61 44.72C1609.29 43.94 1609.07 43.07 1609.49 42.35C1609.87 41.69 1610.7 41.31 1611.52 41.04L1611.53 41.03Z" fill="#CCA47A"/>
<path d="M362.95 146.72C362.07 151 361.2 155.49 362.74 159.96C364.37 164.7 368.58 168.82 373.41 171.66C378.23 174.5 383.65 176.2 389.04 177.61C402.71 181.2 416.66 183.2 430.36 183.51C434.88 183.61 439.76 183.41 442.71 180.79C444.69 179.04 445.48 176.47 446.15 173.97C447 170.78 447.73 167.56 448.35 164.3C448.78 162 449.14 159.54 448.08 157.2C446.96 154.74 444.47 152.84 442.03 151.19C437.48 148.12 432.63 145.4 427.48 143.45C424.46 142.3 421.35 141.43 418.25 140.56C412.75 139.01 407.25 137.47 401.75 135.92C398.71 135.06 395.64 134.21 392.56 133.83C384.66 132.88 377.33 135.19 370.41 137.59C368.96 138.09 367.49 138.62 366.35 139.51C364.16 141.23 363.52 144.05 362.97 146.71L362.95 146.72ZM372.71 150C373.65 146.08 375.25 141.85 379.43 140.47C382.76 139.37 386.8 140.41 390.53 141.46C394.36 142.53 398.2 143.61 402.03 144.68C407.28 146.15 412.53 147.62 417.77 149.12C420.41 149.88 423.11 150.66 425.47 152.08C429.66 154.59 432.39 158.97 432.66 163.14C432.93 167.31 430.87 171.17 427.46 173.59C426.39 174.35 425.19 174.98 423.82 175.3C422.41 175.63 420.88 175.62 419.37 175.6C412.68 175.54 405.92 175.47 399.18 174.13C391.95 172.7 384.84 169.79 378.61 165.73C376.88 164.6 375.18 163.35 374 161.78C371.28 158.18 371.8 153.8 372.72 150H372.71Z" fill="#665040"/>
<path d="M372.71 150C371.8 153.81 371.28 158.18 373.99 161.78C375.18 163.35 376.88 164.6 378.6 165.73C384.84 169.8 391.94 172.7 399.17 174.13C405.91 175.47 412.67 175.54 419.36 175.6C420.87 175.61 422.4 175.63 423.81 175.3C425.18 174.98 426.38 174.35 427.45 173.59C430.86 171.17 432.92 167.3 432.65 163.14C432.38 158.97 429.66 154.59 425.46 152.08C423.09 150.66 420.4 149.88 417.76 149.12C412.52 147.62 407.27 146.15 402.02 144.68C398.19 143.61 394.35 142.53 390.52 141.46C386.79 140.42 382.75 139.37 379.42 140.47C375.24 141.85 373.64 146.08 372.7 150H372.71ZM380.89 150.81C380.96 149.72 381.17 148.62 381.84 147.78C383.54 145.68 387.34 146.05 390.5 146.72C395.96 147.89 401.42 149.46 406.56 151.83C410.8 153.79 414.79 156.29 418.31 159.24C419.13 159.93 419.97 160.71 420.23 161.65C420.63 163.07 419.54 164.28 418.37 165.11C415.73 166.98 412.33 168.06 408.73 168.17C403.56 168.33 398.23 166.57 393.19 164.57C388.92 162.87 384.36 160.67 382.21 156.98C381.07 155.02 380.75 152.85 380.89 150.81Z" fill="#8C6D57"/>
<path d="M380.89 150.81C380.76 152.85 381.07 155.02 382.21 156.98C384.36 160.67 388.92 162.87 393.19 164.57C398.23 166.57 403.56 168.33 408.73 168.17C412.34 168.06 415.73 166.98 418.37 165.11C419.54 164.28 420.63 163.08 420.23 161.65C419.97 160.72 419.13 159.94 418.31 159.24C414.79 156.28 410.8 153.78 406.56 151.83C401.42 149.46 395.97 147.89 390.5 146.72C387.34 146.04 383.55 145.68 381.84 147.78C381.16 148.62 380.96 149.72 380.89 150.81ZM395.71 154.05C396.24 153.61 397.06 153.53 397.84 153.56C402.1 153.7 406.19 156.1 409.95 158.41C411.06 159.09 412.36 160.24 411.83 161.17C411.6 161.57 411.09 161.75 410.6 161.88C406.8 162.92 402.26 162.42 398.37 160.52C397.34 160.02 396.31 159.38 395.73 158.48C395.25 157.74 395.11 156.9 395.08 156.1C395.05 155.34 395.13 154.53 395.71 154.05Z" fill="#A58065"/>
<path d="M397.85 153.56C402.11 153.7 406.2 156.1 409.96 158.41C411.07 159.09 412.37 160.24 411.84 161.17C411.61 161.57 411.1 161.75 410.61 161.88C406.81 162.92 402.27 162.42 398.38 160.52C397.35 160.02 396.32 159.38 395.74 158.48C395.26 157.74 395.12 156.9 395.09 156.1C395.06 155.34 395.14 154.53 395.72 154.05C396.25 153.61 397.07 153.53 397.85 153.56Z" fill="#CCA47A"/>
<path d="M37.5002 64.99C36.7002 67.66 37.8002 70.33 38.8902 72.82C40.6402 76.83 42.5202 81 46.3502 83.76C50.4202 86.69 56.2402 87.64 61.8102 87.18C67.3902 86.72 72.8002 84.98 78.0102 83.04C91.2502 78.1 103.8 71.7 115.18 64.06C118.93 61.54 122.8 58.56 123.71 54.72C124.32 52.15 123.48 49.59 122.59 47.17C121.45 44.08 120.18 41.02 118.81 38C117.84 35.87 116.71 33.66 114.49 32.36C112.16 30.99 109.03 30.88 106.08 30.94C100.6 31.05 95.0602 31.62 89.7302 32.99C86.6002 33.79 83.5602 34.87 80.5202 35.94C75.1302 37.85 69.7502 39.75 64.3602 41.66C61.3802 42.71 58.3802 43.78 55.6502 45.25C48.6402 49.03 43.9802 55.14 39.7102 61.08C38.8102 62.33 37.9102 63.6 37.5002 64.99ZM48.7502 58.22C50.8402 55.4 54.7402 53.93 58.3902 52.63C62.1402 51.3 65.8902 49.97 69.6502 48.63C74.7902 46.81 79.9202 44.98 85.0702 43.19C87.6702 42.29 90.3202 41.38 93.0702 41.17C97.9402 40.8 102.7 42.82 105.32 46.07C107.94 49.32 108.48 53.67 107.09 57.61C106.66 58.84 106.03 60.06 105.1 61.1C104.14 62.18 102.88 63.05 101.64 63.91C96.1302 67.71 90.5702 71.55 84.2902 74.34C77.5502 77.33 70.0702 79.06 62.6302 79.33C60.5702 79.4 58.4602 79.36 56.5802 78.76C52.2802 77.39 50.1902 73.51 48.7402 69.87C47.2502 66.13 46.1202 61.75 48.7402 58.21L48.7502 58.22Z" fill="#665040"/>
<path d="M48.75 58.23C46.13 61.77 47.26 66.15 48.75 69.89C50.2 73.52 52.3 77.4 56.59 78.78C58.47 79.38 60.57 79.42 62.64 79.35C70.08 79.08 77.56 77.36 84.3 74.36C90.58 71.57 96.14 67.73 101.65 63.93C102.89 63.07 104.15 62.2 105.11 61.12C106.04 60.07 106.67 58.86 107.1 57.63C108.49 53.68 107.95 49.34 105.33 46.09C102.71 42.84 97.95 40.82 93.08 41.19C90.33 41.4 87.67 42.31 85.08 43.21C79.93 45 74.79 46.83 69.66 48.65C65.91 49.98 62.16 51.31 58.4 52.65C54.76 53.94 50.85 55.42 48.76 58.24L48.75 58.23ZM54.94 62.81C55.12 60.11 58.43 58.22 61.41 56.96C66.55 54.77 71.91 52.91 77.48 51.89C82.07 51.05 86.78 50.79 91.36 51.18C92.43 51.27 93.57 51.43 94.32 52.04C95.47 52.98 95.27 54.59 94.8 55.94C93.72 58.99 91.57 61.83 88.69 64C84.56 67.11 79.19 68.74 73.91 70.01C69.44 71.08 64.45 71.91 60.56 70.14C58.5 69.2 56.99 67.6 55.92 65.86C55.35 64.93 54.88 63.91 54.95 62.83L54.94 62.81Z" fill="#8C6D57"/>
<path d="M54.9402 62.81C54.8702 63.88 55.3402 64.9 55.9102 65.84C56.9802 67.58 58.4902 69.18 60.5502 70.12C64.4402 71.9 69.4302 71.07 73.9002 69.99C79.1702 68.72 84.5402 67.09 88.6802 63.98C91.5602 61.81 93.7202 58.97 94.7902 55.92C95.2702 54.57 95.4602 52.96 94.3102 52.02C93.5602 51.41 92.4202 51.25 91.3502 51.16C86.7702 50.77 82.0602 51.03 77.4702 51.87C71.9002 52.89 66.5402 54.75 61.4002 56.94C58.4302 58.21 55.1202 60.09 54.9302 62.79L54.9402 62.81ZM69.8802 59.94C70.0502 59.28 70.6902 58.74 71.3402 58.31C74.9002 55.96 79.6302 55.58 84.0302 55.29C85.3302 55.21 87.0602 55.4 87.1602 56.47C87.2002 56.92 86.8902 57.37 86.5702 57.76C84.0702 60.8 80.0602 63.01 75.7902 63.69C74.6602 63.87 73.4502 63.94 72.4502 63.55C71.6302 63.22 71.0302 62.61 70.5502 61.98C70.0902 61.38 69.6902 60.67 69.8802 59.94Z" fill="#A58065"/>
<path d="M71.3399 58.31C74.8999 55.96 79.6299 55.58 84.0299 55.29C85.3299 55.21 87.0599 55.4 87.1599 56.47C87.1999 56.92 86.8899 57.37 86.5699 57.76C84.0699 60.8 80.0599 63.01 75.7899 63.69C74.6599 63.87 73.4499 63.94 72.4499 63.55C71.6299 63.22 71.0299 62.61 70.5499 61.98C70.0899 61.38 69.6899 60.67 69.8799 59.94C70.0499 59.28 70.6899 58.74 71.3399 58.31Z" fill="#CCA47A"/>
<path d="M1654.88 72.37C1638.85 78.86 1626.85 92.35 1615.74 105.6C1613.41 108.38 1611.05 111.23 1609.68 114.59C1607.03 121.04 1608.35 128.35 1609.7 135.19C1611.88 146.2 1614.27 157.67 1621.27 166.45C1628.69 175.76 1640.51 180.78 1652.34 182.11C1664.17 183.44 1676.12 181.44 1687.73 178.82C1717.23 172.17 1745.81 161.46 1772.42 147.09C1781.19 142.35 1790.37 136.48 1793.68 127.09C1795.89 120.81 1795.09 113.91 1794.11 107.32C1792.86 98.92 1791.35 90.55 1789.58 82.24C1788.33 76.37 1786.8 70.23 1782.63 65.91C1778.25 61.38 1771.76 59.68 1765.57 58.51C1754.07 56.34 1742.29 55.3 1730.63 56.4C1723.79 57.05 1717.04 58.42 1710.3 59.8C1698.34 62.24 1686.38 64.69 1674.42 67.13C1667.8 68.48 1661.14 69.85 1654.88 72.38V72.37ZM1657.9 92.45C1666.23 90.74 1674.57 89.02 1682.9 87.31C1694.31 84.96 1705.72 82.62 1717.14 80.35C1722.9 79.21 1728.78 78.08 1734.61 78.79C1744.93 80.04 1754.13 87.32 1758.42 96.78C1762.71 106.25 1762.24 117.57 1757.88 127.01C1756.52 129.96 1754.77 132.77 1752.43 135.03C1750.03 137.35 1747.08 139.01 1744.16 140.64C1731.25 147.87 1718.22 155.16 1704.06 159.46C1688.87 164.07 1672.61 165.11 1656.96 162.46C1652.62 161.73 1648.23 160.67 1644.53 158.3C1636.05 152.87 1633.1 142.04 1631.41 132.12C1629.67 121.91 1628.92 110.23 1635.7 102.39C1641.1 96.14 1649.81 94.13 1657.91 92.46L1657.9 92.45Z" fill="#665040"/>
<path d="M1657.89 92.45C1649.79 94.12 1641.09 96.13 1635.68 102.38C1628.9 110.22 1629.65 121.9 1631.39 132.11C1633.08 142.03 1636.04 152.86 1644.51 158.29C1648.21 160.66 1652.6 161.72 1656.94 162.45C1672.59 165.1 1688.86 164.06 1704.04 159.45C1718.2 155.15 1731.23 147.86 1744.14 140.63C1747.05 139 1750 137.34 1752.41 135.02C1754.75 132.76 1756.49 129.95 1757.86 127C1762.22 117.56 1762.69 106.24 1758.4 96.77C1754.11 87.3 1744.92 80.03 1734.59 78.78C1728.76 78.07 1722.88 79.2 1717.12 80.34C1705.7 82.61 1694.29 84.95 1682.88 87.3C1674.55 89.01 1666.21 90.73 1657.88 92.44L1657.89 92.45ZM1662.6 104.81C1674.15 101.52 1686.05 99.18 1698.06 99.08C1707.97 98.99 1717.9 100.44 1727.33 103.5C1729.54 104.22 1731.86 105.12 1733.2 107.01C1735.25 109.91 1734.25 113.93 1732.76 117.16C1729.38 124.45 1723.84 130.73 1717.01 134.97C1707.23 141.05 1695.4 142.8 1683.91 143.66C1674.18 144.39 1663.43 144.27 1655.96 137.99C1651.99 134.66 1649.43 129.91 1647.83 124.99C1646.98 122.36 1646.38 119.55 1646.92 116.84C1648.29 110.03 1655.91 106.71 1662.59 104.81H1662.6Z" fill="#8C6D57"/>
<path d="M1662.61 104.81C1655.93 106.71 1648.31 110.03 1646.94 116.84C1646.39 119.55 1647 122.36 1647.85 124.99C1649.44 129.92 1652.01 134.66 1655.98 137.99C1663.45 144.27 1674.2 144.39 1683.93 143.66C1695.42 142.8 1707.24 141.05 1717.03 134.97C1723.86 130.73 1729.4 124.45 1732.78 117.16C1734.27 113.94 1735.27 109.91 1733.22 107.01C1731.88 105.12 1729.56 104.21 1727.35 103.5C1717.92 100.45 1707.99 99 1698.08 99.08C1686.07 99.18 1674.17 101.52 1662.62 104.81H1662.61ZM2428.92 6.22999C2429.49 4.70999 2430.92 3.69002 2432.36 2.94002C2440.18 -1.17998 2449.6 -0.109989 2458.36 1.06001C2460.95 1.41001 2464.28 2.60003 2464.1 5.20003C2464.02 6.31003 2463.26 7.23999 2462.49 8.03999C2456.52 14.28 2447.88 17.88 2439.24 17.72C2436.96 17.68 2434.56 17.34 2432.73 15.97C2431.22 14.84 2430.27 13.12 2429.53 11.39C2428.83 9.75003 2428.29 7.88998 2428.92 6.21998V6.22999Z" fill="#A58065"/>
<path d="M1682.88 112.72C1691.19 108.34 1701.21 109.47 1710.52 110.73C1713.27 111.1 1716.81 112.36 1716.62 115.13C1716.54 116.31 1715.73 117.3 1714.91 118.15C1708.56 124.79 1699.37 128.61 1690.19 128.44C1687.76 128.4 1685.21 128.04 1683.27 126.58C1681.67 125.38 1680.66 123.55 1679.87 121.71C1679.13 119.97 1678.55 117.99 1679.22 116.22C1679.83 114.61 1681.35 113.52 1682.88 112.72Z" fill="#CCA47A"/>
<path d="M468.5 160.54C483.14 167.57 498.91 172.87 515.14 173.33C531.38 173.79 548.18 169 560.1 157.96C566.49 152.04 571.51 143.79 570.85 135.11C570.36 128.54 566.67 122.54 561.96 117.94C557.25 113.33 551.53 109.92 545.91 106.47C538.69 102.04 531.48 97.44 525.4 91.54C519.32 85.64 514.37 78.28 512.63 69.99C510.79 61.23 512.6 52.05 511.06 43.23C510.74 41.41 510.25 39.56 509.13 38.09C507.68 36.21 505.38 35.22 503.18 34.31C488.48 28.21 472.58 22 457.06 25.53C447.33 27.75 438.87 33.61 430.9 39.62C422.59 45.89 414.07 53.1 411.16 63.1C409.59 68.5 409.81 74.25 410.26 79.85C411.26 92.23 413.34 104.72 418.67 115.95C428.42 136.49 448.01 150.7 468.51 160.54H468.5ZM444.31 117.38C438.88 110.51 434.83 102.67 430.81 94.88C428.2 89.82 425.53 84.56 425.31 78.88C425.2 76.2 425.65 73.52 426.27 70.91C428.25 62.5 432.19 54.28 438.85 48.77C445.51 43.26 455.19 40.96 463.09 44.48C465.3 45.46 467.35 46.87 469.71 47.39C470.89 47.65 472.11 47.68 473.25 48.06C475.29 48.74 476.8 50.45 478.11 52.17C484.74 60.84 488.76 71.3 490.99 81.98C492.24 87.96 493.06 94.33 496.69 99.24C500.75 104.73 507.52 107.35 513.93 109.71C518.86 111.52 523.8 113.34 528.73 115.16C532.88 116.69 537.23 118.35 540.09 121.72C545.22 127.76 543.54 137.57 538.11 143.34C532.68 149.11 524.56 151.54 516.69 152.5C503.37 154.13 489.49 152.11 477.59 145.9C469.75 141.81 462.92 136.03 456.42 130.03C452.13 126.07 447.94 121.97 444.32 117.38H444.31Z" fill="#665040"/>
<path d="M430.81 94.88C434.83 102.66 438.88 110.5 444.31 117.38C447.93 121.96 452.12 126.06 456.41 130.03C462.91 136.03 469.73 141.81 477.58 145.9C489.48 152.1 503.36 154.12 516.68 152.5C524.55 151.54 532.67 149.11 538.1 143.34C543.53 137.57 545.22 127.76 540.08 121.72C537.22 118.35 532.87 116.69 528.72 115.16C523.79 113.35 518.85 111.53 513.92 109.71C507.51 107.35 500.74 104.73 496.68 99.24C493.04 94.33 492.22 87.96 490.98 81.98C488.75 71.29 484.73 60.84 478.1 52.17C476.79 50.46 475.28 48.75 473.24 48.06C472.1 47.68 470.87 47.65 469.7 47.39C467.34 46.87 465.29 45.46 463.08 44.48C455.19 40.96 445.5 43.26 438.84 48.7701C432.18 54.2801 428.24 62.5 426.26 70.91C425.64 73.52 425.2 76.2 425.3 78.88C425.52 84.56 428.19 89.83 430.8 94.88H430.81ZM445.74 67.92C449.3 63.64 455.63 62.9701 461.15 63.6501C464.59 64.0701 468.19 65 470.57 67.5201C473.74 70.8701 473.87 75.9601 474.52 80.5301C476.28 92.9901 483.47 104.59 493.85 111.71C497.91 114.5 502.47 116.66 505.98 120.12C507.51 121.62 508.89 123.57 508.74 125.71C508.57 128.01 506.68 129.83 504.67 130.97C499.3 134.03 492.55 133.89 486.71 131.87C480.87 129.85 475.78 126.13 471 122.22C457.85 111.5 445.59 97.8 443.22 81C442.58 76.47 442.83 71.44 445.75 67.93L445.74 67.92Z" fill="#8C6D57"/>
<path d="M445.74 67.92C442.81 71.44 442.57 76.47 443.21 80.99C445.59 97.79 457.84 111.48 470.99 122.21C475.78 126.11 480.87 129.84 486.7 131.86C492.54 133.88 499.29 134.02 504.66 130.96C506.67 129.82 508.56 128 508.73 125.7C508.88 123.56 507.5 121.61 505.97 120.11C502.45 116.66 497.9 114.5 493.84 111.7C483.46 104.57 476.28 92.98 474.51 80.52C473.86 75.95 473.73 70.86 470.56 67.51C468.18 64.99 464.58 64.06 461.14 63.64C455.62 62.97 449.29 63.64 445.73 67.91L445.74 67.92ZM455.85 79.27C456.3 79.07 456.82 79.13 457.31 79.21C461.48 79.85 465.91 81.22 468.34 84.67C470.62 87.9 470.6 92.15 471.65 95.96C473.86 103.91 480.62 109.58 486.04 115.8C486.46 116.28 486.89 116.81 486.93 117.44C487.04 118.98 484.97 119.66 483.43 119.51C478.63 119.03 474.63 115.72 471.19 112.35C462.76 104.09 455.32 93.7 454.82 81.91C454.78 80.91 454.92 79.68 455.83 79.27H455.85Z" fill="#A58065"/>
<path d="M455.86 79.26C456.31 79.06 456.83 79.12 457.32 79.2C461.49 79.84 465.92 81.21 468.35 84.66C470.63 87.89 470.61 92.14 471.66 95.95C473.87 103.9 480.63 109.57 486.05 115.79C486.47 116.27 486.9 116.8 486.94 117.43C487.05 118.97 484.98 119.65 483.44 119.5C478.64 119.02 474.64 115.71 471.2 112.34C462.77 104.08 455.33 93.69 454.83 81.9C454.79 80.9 454.93 79.67 455.84 79.26H455.86Z" fill="#CCA47A"/>
<path d="M569.88 97.84C576.37 98.0201 583.08 96.11 587.84 91.7C590.39 89.33 592.4 86.04 592.14 82.57C591.94 79.94 590.47 77.55 588.59 75.71C586.71 73.87 584.42 72.5 582.18 71.13C579.3 69.36 576.42 67.52 573.99 65.16C571.56 62.8 569.58 59.86 568.89 56.55C568.15 53.05 568.88 49.38 568.26 45.86C568.13 45.13 567.94 44.39 567.49 43.81C566.91 43.06 565.99 42.66 565.11 42.3C559.24 39.86 552.88 37.38 546.68 38.79C542.79 39.68 539.41 42.02 536.23 44.42C532.91 46.93 529.51 49.81 528.34 53.8C527.71 55.96 527.8 58.25 527.98 60.49C528.38 65.44 529.21 70.43 531.34 74.91C535.23 83.11 543.06 88.79 551.25 92.72C557.1 95.53 563.4 97.65 569.88 97.83V97.84ZM570.49 89.52C565.17 90.17 559.62 89.36 554.87 86.88C551.74 85.25 549.01 82.94 546.42 80.54C544.71 78.96 543.03 77.32 541.58 75.49C539.41 72.74 537.79 69.61 536.19 66.5C535.15 64.48 534.08 62.38 533.99 60.11C533.95 59.04 534.13 57.97 534.37 56.93C535.16 53.57 536.74 50.29 539.4 48.08C542.06 45.88 545.93 44.96 549.08 46.37C549.96 46.76 550.78 47.3301 551.72 47.5301C552.19 47.6301 552.68 47.65 553.13 47.8C553.95 48.07 554.55 48.76 555.07 49.44C557.72 52.91 559.32 57.08 560.21 61.35C560.71 63.74 561.04 66.28 562.49 68.25C564.11 70.44 566.82 71.49 569.38 72.43C571.35 73.16 573.32 73.88 575.29 74.61C576.95 75.22 578.68 75.88 579.83 77.23C581.88 79.64 581.21 83.56 579.04 85.87C576.87 88.18 573.63 89.1501 570.48 89.5301L570.49 89.52Z" fill="#665040"/>
<path d="M570.49 89.52C573.63 89.14 576.88 88.16 579.05 85.86C581.22 83.55 581.89 79.64 579.84 77.22C578.7 75.87 576.96 75.21 575.3 74.6C573.33 73.88 571.36 73.15 569.39 72.42C566.83 71.48 564.12 70.43 562.5 68.24C561.05 66.28 560.72 63.74 560.22 61.34C559.33 57.07 557.72 52.9 555.08 49.43C554.56 48.75 553.95 48.06 553.14 47.79C552.68 47.64 552.19 47.63 551.73 47.52C550.79 47.31 549.97 46.75 549.09 46.36C545.94 44.95 542.07 45.87 539.41 48.07C536.75 50.27 535.18 53.56 534.38 56.92C534.13 57.96 533.95 59.03 534 60.1C534.09 62.37 535.16 64.47 536.2 66.49C537.81 69.6 539.42 72.73 541.59 75.48C543.04 77.31 544.71 78.95 546.43 80.53C549.02 82.93 551.75 85.24 554.88 86.87C559.63 89.35 565.18 90.15 570.5 89.51L570.49 89.52ZM565.69 80.92C563.55 82.14 560.85 82.09 558.52 81.28C556.19 80.47 554.16 78.99 552.24 77.43C546.99 73.15 542.09 67.68 541.14 60.97C540.88 59.16 540.98 57.15 542.15 55.75C543.57 54.04 546.1 53.77 548.31 54.04C549.68 54.21 551.12 54.58 552.07 55.58C553.34 56.92 553.39 58.95 553.65 60.78C554.35 65.76 557.23 70.39 561.37 73.24C562.99 74.35 564.81 75.22 566.22 76.6C566.83 77.2 567.38 77.98 567.32 78.83C567.25 79.75 566.5 80.47 565.69 80.93V80.92Z" fill="#8C6D57"/>
<path d="M565.69 80.91C566.49 80.45 567.25 79.73 567.32 78.81C567.38 77.96 566.83 77.18 566.22 76.58C564.81 75.2 563 74.34 561.37 73.22C557.23 70.37 554.35 65.74 553.65 60.76C553.39 58.93 553.34 56.9 552.07 55.56C551.12 54.56 549.68 54.18 548.31 54.02C546.1 53.75 543.58 54.02 542.15 55.73C540.98 57.13 540.88 59.14 541.14 60.95C542.09 67.66 546.98 73.13 552.24 77.41C554.15 78.97 556.18 80.46 558.52 81.26C560.85 82.07 563.55 82.12 565.69 80.9V80.91ZM558.61 75.51C558.65 76.13 557.83 76.4 557.21 76.34C555.29 76.15 553.7 74.83 552.32 73.48C548.95 70.18 545.98 66.03 545.78 61.32C545.76 60.92 545.82 60.43 546.18 60.27C546.36 60.19 546.57 60.21 546.76 60.24C548.43 60.5 550.2 61.04 551.17 62.42C552.08 63.71 552.07 65.41 552.49 66.93C553.37 70.11 556.07 72.37 558.24 74.86C558.41 75.05 558.58 75.26 558.6 75.52L558.61 75.51Z" fill="#A58065"/>
<path d="M557.21 76.34C555.29 76.15 553.7 74.83 552.32 73.48C548.95 70.18 545.98 66.03 545.78 61.32C545.76 60.92 545.82 60.43 546.18 60.27C546.36 60.19 546.57 60.21 546.76 60.24C548.43 60.5 550.2 61.04 551.17 62.42C552.08 63.71 552.07 65.41 552.49 66.93C553.37 70.11 556.07 72.37 558.24 74.86C558.41 75.05 558.58 75.26 558.6 75.52C558.64 76.14 557.82 76.41 557.2 76.35L557.21 76.34Z" fill="#CCA47A"/>
<path d="M62.1801 134.65C61.5501 136.81 61.6401 139.1 61.8201 141.34C62.2201 146.29 63.0501 151.28 65.1801 155.76C69.0701 163.96 76.9001 169.64 85.0901 173.57C90.9401 176.38 97.2401 178.49 103.72 178.68C110.21 178.86 116.92 176.95 121.68 172.54C124.23 170.17 126.24 166.88 125.98 163.41C125.78 160.79 124.31 158.39 122.43 156.55C120.55 154.71 118.26 153.34 116.02 151.97C113.13 150.2 110.26 148.36 107.83 146C105.4 143.64 103.43 140.7 102.73 137.39C101.99 133.89 102.72 130.22 102.1 126.7C101.97 125.97 101.78 125.23 101.33 124.65C100.75 123.9 99.8301 123.5 98.9501 123.14C93.0801 120.7 86.7201 118.22 80.5201 119.63C76.6301 120.52 73.2501 122.86 70.0701 125.26C66.7501 127.77 63.3501 130.65 62.1801 134.64V134.65ZM67.8301 140.95C67.7901 139.88 67.9701 138.81 68.2101 137.77C69.0001 134.41 70.5801 131.13 73.2401 128.92C75.9001 126.72 79.7701 125.8 82.9201 127.21C83.8001 127.6 84.6201 128.17 85.5601 128.37C86.0301 128.47 86.5201 128.49 86.9701 128.64C87.7901 128.91 88.3901 129.6 88.9101 130.28C91.5601 133.75 93.1601 137.92 94.0501 142.19C94.5501 144.58 94.8801 147.12 96.3301 149.08C97.9501 151.27 100.66 152.32 103.22 153.26C105.19 153.99 107.16 154.71 109.13 155.44C110.79 156.05 112.52 156.71 113.67 158.06C115.72 160.47 115.05 164.39 112.88 166.7C110.71 169.01 107.47 169.98 104.32 170.36C99.0001 171.01 93.4501 170.2 88.7001 167.72C85.5701 166.09 82.8401 163.78 80.2401 161.38C78.5301 159.8 76.8501 158.16 75.4101 156.33C73.2401 153.58 71.6201 150.45 70.0201 147.34C68.9801 145.32 67.9101 143.22 67.8201 140.95H67.8301Z" fill="#665040"/>
<path d="M68.2101 137.77C67.9601 138.81 67.7801 139.88 67.8301 140.95C67.9201 143.22 68.9901 145.32 70.0301 147.34C71.6401 150.45 73.2501 153.58 75.4201 156.33C76.8701 158.16 78.5401 159.8 80.2501 161.38C82.8501 163.78 85.5701 166.09 88.7101 167.72C93.4601 170.2 99.0101 171 104.33 170.36C107.47 169.98 110.72 169 112.89 166.7C115.06 164.39 115.73 160.47 113.68 158.06C112.54 156.71 110.8 156.05 109.14 155.44C107.17 154.71 105.2 153.99 103.23 153.26C100.67 152.32 97.9601 151.27 96.3401 149.08C94.8901 147.12 94.5601 144.58 94.0601 142.19C93.1701 137.92 91.5601 133.75 88.9201 130.28C88.4001 129.6 87.8001 128.91 86.9801 128.64C86.5201 128.49 86.0301 128.48 85.5701 128.37C84.6301 128.16 83.8101 127.6 82.9301 127.21C79.7801 125.8 75.9101 126.72 73.2501 128.92C70.5901 131.12 69.0201 134.41 68.2201 137.77H68.2101ZM75.9901 136.58C77.4101 134.87 79.9401 134.6 82.1501 134.87C83.5201 135.04 84.9601 135.41 85.9101 136.41C87.1801 137.75 87.2301 139.78 87.4901 141.61C88.1901 146.59 91.0701 151.22 95.2101 154.07C96.8301 155.19 98.6501 156.05 100.06 157.43C100.67 158.03 101.22 158.81 101.16 159.66C101.09 160.58 100.34 161.3 99.5301 161.76C97.3901 162.98 94.6901 162.93 92.3601 162.12C90.0301 161.31 88.0001 159.83 86.0801 158.27C80.8301 153.99 75.9301 148.52 74.9801 141.81C74.7201 140 74.8201 137.99 75.9901 136.59V136.58Z" fill="#8C6D57"/>
<path d="M75.99 136.58C74.82 137.98 74.72 139.99 74.98 141.8C75.93 148.51 80.82 153.98 86.08 158.26C87.99 159.82 90.03 161.31 92.36 162.11C94.69 162.92 97.39 162.97 99.53 161.75C100.33 161.29 101.09 160.57 101.16 159.65C101.22 158.79 100.67 158.02 100.06 157.42C98.66 156.04 96.84 155.18 95.21 154.06C91.06 151.21 88.19 146.58 87.49 141.6C87.23 139.77 87.18 137.74 85.91 136.4C84.96 135.39 83.52 135.02 82.15 134.86C79.94 134.59 77.42 134.86 75.99 136.57V136.58ZM79.63 142.17C79.61 141.77 79.67 141.28 80.04 141.12C80.22 141.04 80.43 141.06 80.62 141.09C82.29 141.35 84.06 141.89 85.03 143.27C85.94 144.56 85.93 146.26 86.35 147.78C87.23 150.96 89.93 153.22 92.1 155.71C92.27 155.9 92.44 156.11 92.46 156.37C92.5 156.99 91.68 157.26 91.06 157.2C89.14 157.01 87.55 155.69 86.17 154.34C82.8 151.04 79.83 146.89 79.63 142.18V142.17Z" fill="#A58065"/>
<path d="M80.0301 141.11C80.2101 141.03 80.4201 141.05 80.6101 141.08C82.2801 141.34 84.0501 141.88 85.0201 143.26C85.9301 144.55 85.9201 146.25 86.3401 147.77C87.2201 150.95 89.9201 153.21 92.0901 155.7C92.2601 155.89 92.4301 156.1 92.4501 156.36C92.4901 156.98 91.6701 157.25 91.0501 157.19C89.1301 157 87.5401 155.68 86.1601 154.33C82.7901 151.03 79.8201 146.88 79.6201 142.17C79.6001 141.77 79.6601 141.28 80.0301 141.12V141.11Z" fill="#CCA47A"/>
<path d="M1798.49 153.14C1798.07 153.75 1797.68 154.41 1797.59 155.14C1797.47 156.08 1797.84 157.01 1798.21 157.89C1800.66 163.76 1803.41 170 1808.8 173.37C1812.18 175.48 1816.23 176.21 1820.18 176.75C1824.3 177.31 1828.75 177.67 1832.39 175.66C1834.36 174.57 1835.91 172.88 1837.37 171.17C1840.58 167.38 1843.51 163.26 1845.16 158.58C1848.19 150.02 1846.65 140.47 1843.61 131.92C1841.44 125.81 1838.47 119.86 1834 115.16C1829.53 110.46 1823.42 107.08 1816.94 106.85C1813.46 106.73 1809.72 107.65 1807.45 110.29C1805.74 112.29 1805.09 115.03 1805.13 117.66C1805.17 120.29 1805.82 122.87 1806.44 125.43C1807.24 128.72 1807.98 132.05 1808.04 135.44C1808.1 138.82 1807.43 142.3 1805.58 145.14C1803.63 148.14 1800.53 150.23 1798.48 153.16L1798.49 153.14ZM1810.35 159.89C1810.92 155.57 1812.73 151.47 1815.11 147.82C1816.44 145.77 1818 143.74 1818.36 141.33C1818.76 138.63 1817.58 135.98 1816.43 133.51C1815.54 131.61 1814.66 129.7 1813.77 127.8C1813.02 126.2 1812.26 124.5 1812.4 122.74C1812.65 119.58 1815.89 117.28 1819.06 117.17C1822.23 117.07 1825.21 118.66 1827.71 120.61C1831.94 123.9 1835.3 128.38 1836.92 133.49C1837.99 136.86 1838.29 140.42 1838.44 143.95C1838.54 146.28 1838.57 148.62 1838.3 150.94C1837.9 154.42 1836.84 157.78 1835.78 161.11C1835.09 163.28 1834.37 165.52 1832.83 167.19C1832.1 167.98 1831.22 168.61 1830.31 169.18C1827.38 171 1823.94 172.22 1820.51 171.91C1817.08 171.6 1813.68 169.52 1812.44 166.3C1812.09 165.4 1811.91 164.42 1811.39 163.61C1811.13 163.21 1810.79 162.85 1810.58 162.42C1810.19 161.65 1810.25 160.74 1810.36 159.89H1810.35Z" fill="#665040"/>
<path d="M1810.34 159.89C1810.23 160.74 1810.17 161.65 1810.56 162.42C1810.78 162.85 1811.11 163.2 1811.37 163.61C1811.89 164.42 1812.08 165.4 1812.42 166.3C1813.66 169.52 1817.05 171.6 1820.49 171.91C1823.93 172.22 1827.36 171.01 1830.29 169.18C1831.2 168.61 1832.08 167.98 1832.81 167.19C1834.35 165.52 1835.08 163.27 1835.76 161.11C1836.82 157.77 1837.88 154.41 1838.28 150.94C1838.55 148.62 1838.51 146.28 1838.42 143.95C1838.27 140.42 1837.97 136.86 1836.9 133.49C1835.28 128.38 1831.92 123.9 1827.69 120.61C1825.19 118.67 1822.21 117.07 1819.04 117.17C1815.87 117.27 1812.63 119.58 1812.38 122.74C1812.24 124.5 1813 126.19 1813.75 127.8C1814.64 129.7 1815.52 131.61 1816.41 133.51C1817.56 135.98 1818.74 138.63 1818.34 141.33C1817.98 143.75 1816.42 145.78 1815.09 147.82C1812.71 151.47 1810.9 155.57 1810.33 159.89H1810.34ZM1816.8 157.66C1816.85 155.82 1818.24 154.34 1819.35 152.86C1822.36 148.83 1823.6 143.53 1822.67 138.59C1822.31 136.66 1821.63 134.76 1821.6 132.79C1821.59 131.93 1821.75 130.99 1822.39 130.43C1823.09 129.82 1824.13 129.84 1825.02 130.09C1827.4 130.73 1829.28 132.68 1830.36 134.89C1831.44 137.11 1831.84 139.59 1832.09 142.05C1832.79 148.79 1832.4 156.12 1828.34 161.55C1827.25 163.01 1825.76 164.37 1823.94 164.54C1821.73 164.75 1819.74 163.16 1818.37 161.41C1817.51 160.32 1816.76 159.05 1816.79 157.66H1816.8Z" fill="#8C6D57"/>
<path d="M1819.35 152.87C1818.25 154.35 1816.85 155.82 1816.8 157.67C1816.77 159.05 1817.52 160.33 1818.38 161.42C1819.75 163.17 1821.74 164.76 1823.95 164.55C1825.77 164.38 1827.26 163.02 1828.35 161.56C1832.41 156.13 1832.8 148.8 1832.1 142.06C1831.84 139.61 1831.45 137.12 1830.37 134.9C1829.29 132.68 1827.41 130.74 1825.03 130.1C1824.14 129.86 1823.09 129.84 1822.4 130.44C1821.75 131 1821.59 131.94 1821.61 132.8C1821.63 134.77 1822.31 136.66 1822.68 138.6C1823.61 143.54 1822.38 148.85 1819.36 152.87H1819.35ZM1822.26 153.43C1822.53 151.87 1823.73 150.67 1824.5 149.3C1826.11 146.43 1825.8 142.92 1826.02 139.63C1826.04 139.38 1826.06 139.1 1826.23 138.91C1826.63 138.44 1827.41 138.83 1827.8 139.31C1829.02 140.8 1829.22 142.86 1829.25 144.79C1829.31 149.5 1828.49 154.54 1825.31 158.02C1825.04 158.32 1824.65 158.62 1824.28 158.48C1824.09 158.41 1823.96 158.25 1823.85 158.09C1822.85 156.73 1821.98 155.1 1822.27 153.44L1822.26 153.43Z" fill="#A58065"/>
<path d="M1824.51 149.3C1826.12 146.43 1825.81 142.92 1826.03 139.63C1826.05 139.38 1826.07 139.1 1826.24 138.91C1826.64 138.44 1827.42 138.83 1827.81 139.31C1829.03 140.8 1829.23 142.86 1829.26 144.79C1829.32 149.5 1828.5 154.54 1825.32 158.02C1825.05 158.32 1824.66 158.62 1824.29 158.48C1824.1 158.41 1823.97 158.25 1823.86 158.09C1822.86 156.73 1821.99 155.1 1822.28 153.44C1822.55 151.88 1823.75 150.68 1824.52 149.31L1824.51 149.3Z" fill="#CCA47A"/>
<path d="M874.99 189.52C874.99 189.52 875.03 189.48 875.06 189.47C875.51 189.13 875.95 188.79 876.37 188.4C879.27 185.66 880.98 181.92 882.5 178.24C884.08 174.39 885.54 170.18 884.51 166.15C883.95 163.97 882.71 162.04 881.41 160.21C878.55 156.15 875.29 152.28 871.17 149.51C863.64 144.43 854.01 143.53 844.96 144.32C838.5 144.88 832 146.26 826.32 149.41C820.64 152.55 815.84 157.62 813.99 163.83C813 167.17 812.95 171.02 814.94 173.87C816.45 176.03 818.93 177.34 821.49 177.97C824.05 178.59 826.71 178.61 829.34 178.65C832.73 178.71 836.14 178.82 839.43 179.61C842.72 180.4 845.92 181.93 848.2 184.42C849.58 185.92 850.58 187.71 851.61 189.47C851.62 189.49 851.63 189.5 851.64 189.52H874.97H874.99ZM870.44 183.11C869.48 183.22 868.49 183.15 867.57 183.45C867.11 183.6 866.69 183.84 866.22 183.94C865.38 184.12 864.51 183.84 863.71 183.52C859.67 181.88 856.16 179.11 853.22 175.89C851.57 174.09 850 172.07 847.75 171.12C845.24 170.06 842.37 170.53 839.69 171.03L833.49 172.17C831.75 172.49 829.92 172.8 828.25 172.23C825.26 171.2 823.84 167.48 824.53 164.39C825.22 161.3 827.52 158.81 830.03 156.88C834.28 153.61 839.46 151.48 844.81 151.2C848.34 151.01 851.86 151.61 855.32 152.35C857.6 152.84 859.88 153.4 862.05 154.24C865.32 155.5 868.3 157.37 871.27 159.23C873.2 160.44 875.18 161.7 876.42 163.61C877 164.51 877.39 165.52 877.71 166.55C878.74 169.84 879.06 173.47 877.89 176.72C876.72 179.97 873.86 182.73 870.43 183.12L870.44 183.11Z" fill="#665040"/>
<path d="M870.45 183.11C873.88 182.72 876.74 179.96 877.91 176.71C879.08 173.46 878.76 169.83 877.73 166.54C877.41 165.52 877.02 164.51 876.44 163.6C875.21 161.69 873.22 160.42 871.29 159.22C868.32 157.36 865.34 155.49 862.07 154.23C859.89 153.39 857.62 152.83 855.34 152.34C851.89 151.6 848.36 151 844.83 151.19C839.48 151.48 834.29 153.61 830.05 156.87C827.54 158.8 825.24 161.29 824.55 164.38C823.86 167.47 825.27 171.19 828.27 172.22C829.94 172.8 831.77 172.48 833.51 172.16L839.71 171.02C842.39 170.53 845.26 170.05 847.77 171.11C850.02 172.06 851.6 174.08 853.24 175.88C856.18 179.1 859.69 181.88 863.73 183.51C864.53 183.83 865.39 184.11 866.24 183.93C866.71 183.83 867.14 183.59 867.59 183.44C868.51 183.14 869.5 183.21 870.46 183.1L870.45 183.11ZM871.64 171.52C871.29 173.71 869.25 175.23 867.21 176.12C865.94 176.68 864.52 177.09 863.19 176.71C861.42 176.2 860.34 174.48 859.18 173.04C856.04 169.11 851.21 166.59 846.19 166.25C844.23 166.12 842.22 166.3 840.31 165.83C839.48 165.62 838.61 165.24 838.22 164.47C837.81 163.64 838.09 162.64 838.55 161.83C839.77 159.69 842.12 158.36 844.54 157.87C846.96 157.38 849.46 157.62 851.91 157.99C858.61 159 865.61 161.22 869.85 166.51C870.99 167.94 871.93 169.72 871.64 171.52Z" fill="#8C6D57"/>
<path d="M871.64 171.52C871.93 169.72 870.99 167.94 869.85 166.51C865.61 161.22 858.62 159 851.91 157.99C849.47 157.62 846.96 157.38 844.54 157.87C842.12 158.36 839.77 159.69 838.55 161.83C838.09 162.63 837.81 163.64 838.22 164.47C838.6 165.24 839.47 165.63 840.31 165.83C842.22 166.3 844.23 166.12 846.19 166.25C851.21 166.59 856.04 169.12 859.18 173.04C860.33 174.48 861.41 176.2 863.19 176.71C864.52 177.09 865.95 176.68 867.21 176.12C869.25 175.23 871.29 173.71 871.64 171.52ZM865.85 169.68C865.74 169.84 865.54 169.93 865.36 170C863.8 170.63 861.99 171.06 860.46 170.37C859.02 169.72 858.16 168.26 857.02 167.16C854.64 164.88 851.16 164.3 848.04 163.27C847.8 163.19 847.54 163.1 847.4 162.89C847.05 162.38 847.62 161.73 848.18 161.47C849.93 160.66 851.97 160.98 853.85 161.44C858.43 162.57 863.1 164.62 865.67 168.58C865.89 168.92 866.09 169.37 865.86 169.69L865.85 169.68Z" fill="#A58065"/>
<path d="M865.36 170C863.8 170.63 861.99 171.06 860.46 170.37C859.02 169.72 858.16 168.26 857.02 167.16C854.64 164.88 851.16 164.3 848.04 163.27C847.8 163.19 847.54 163.1 847.4 162.89C847.05 162.38 847.62 161.73 848.18 161.47C849.93 160.66 851.97 160.98 853.85 161.44C858.43 162.57 863.1 164.62 865.67 168.58C865.89 168.92 866.09 169.37 865.86 169.69C865.75 169.85 865.55 169.94 865.37 170.01L865.36 170Z" fill="#CCA47A"/>
<path d="M1423.04 58.96C1413.54 66.19 1401.62 72.01 1387.71 71.81C1380.11 71.7 1372.34 69.81 1364.83 67.43C1361.43 66.35 1357.99 65.14 1355.07 63.18C1349.68 59.54 1346.93 53.95 1344.71 48.67C1342.58 43.61 1340.62 38.35 1341.05 33.33C1341.41 29.09 1343.43 25.44 1346.16 22.13H1405.43C1403.98 23.52 1402.52 24.9 1401.07 26.29C1398.53 28.72 1395.76 31.25 1391.78 31.87C1388.22 32.43 1384.31 31.35 1380.54 30.56C1373.82 29.14 1366.91 28.61 1360.58 29.69C1359.33 29.9 1358.05 30.21 1357.28 31C1356.85 31.44 1356.61 32 1356.25 32.49C1355.52 33.46 1354.32 34.09 1353.34 34.88C1349.84 37.73 1349.47 42.74 1351.54 47.08C1353.61 51.42 1357.77 55.13 1362.39 57.97C1363.83 58.85 1365.33 59.67 1366.94 60.24C1370.35 61.44 1373.94 61.41 1377.4 61.36C1382.73 61.28 1388.09 61.2 1393.14 60.26C1396.5 59.63 1399.68 58.63 1402.8 57.56C1407.52 55.93 1412.16 54.09 1415.99 51.4C1421.79 47.31 1425.48 41.35 1426.9 34.82C1427.74 30.96 1427.76 26.64 1425.31 22.81C1425.16 22.58 1424.97 22.36 1424.8 22.14H1440.38C1442.03 28.37 1441.34 34.75 1438.95 40.3C1435.77 47.71 1429.8 53.79 1423.02 58.96H1423.04Z" fill="#665040"/>
<path d="M1425.32 22.81C1425.17 22.58 1424.98 22.36 1424.81 22.14H1405.44C1403.99 23.53 1402.53 24.91 1401.08 26.3C1398.54 28.73 1395.77 31.26 1391.79 31.88C1388.23 32.44 1384.32 31.36 1380.55 30.57C1373.83 29.15 1366.92 28.62 1360.59 29.7C1359.34 29.91 1358.06 30.22 1357.29 31.01C1356.86 31.45 1356.62 32.01 1356.26 32.5C1355.53 33.47 1354.33 34.1 1353.35 34.89C1349.85 37.74 1349.48 42.75 1351.55 47.09C1353.62 51.43 1357.78 55.14 1362.4 57.98C1363.84 58.86 1365.34 59.68 1366.95 60.25C1370.36 61.45 1373.95 61.42 1377.41 61.37C1382.74 61.29 1388.1 61.21 1393.15 60.27C1396.51 59.64 1399.69 58.64 1402.81 57.57C1407.53 55.94 1412.17 54.1 1416 51.41C1421.8 47.32 1425.49 41.36 1426.91 34.83C1427.75 30.97 1427.77 26.65 1425.32 22.82V22.81ZM1409.32 43.97C1407.08 46.21 1403.96 47.71 1400.79 49.03C1392.08 52.66 1381.78 55.2 1371.41 52.45C1368.61 51.71 1365.68 50.44 1364.12 48.28C1362.23 45.65 1362.96 42.57 1364.35 40.17C1365.22 38.67 1366.41 37.22 1368.33 36.7C1370.88 36 1373.92 37.1 1376.74 37.85C1384.43 39.89 1392.59 39.22 1398.66 36.05C1401.04 34.81 1403.13 33.2 1405.81 32.36C1406.97 32 1408.37 31.8 1409.61 32.36C1410.94 32.96 1411.68 34.26 1411.99 35.45C1412.84 38.64 1411.55 41.73 1409.3 43.97H1409.32Z" fill="#8C6D57"/>
<path d="M1409.32 43.97C1411.56 41.73 1412.86 38.64 1412.01 35.45C1411.69 34.26 1410.96 32.97 1409.63 32.36C1408.39 31.8 1406.99 31.99 1405.83 32.36C1403.16 33.2 1401.06 34.81 1398.68 36.05C1392.6 39.22 1384.45 39.89 1376.76 37.85C1373.94 37.1 1370.9 36 1368.35 36.7C1366.43 37.23 1365.24 38.68 1364.37 40.17C1362.98 42.57 1362.25 45.6601 1364.14 48.2801C1365.7 50.4401 1368.63 51.71 1371.43 52.45C1381.8 55.2 1392.1 52.66 1400.81 49.0301C1403.98 47.7101 1407.09 46.21 1409.34 43.97H1409.32ZM1401.42 42.65C1400.28 44.76 1397.6 45.85 1394.99 46.67C1388.59 48.68 1381.11 49.74 1374.04 47.27C1373.44 47.06 1372.74 46.71 1372.66 46.2C1372.62 45.94 1372.75 45.72 1372.88 45.51C1374.01 43.73 1375.61 41.99 1378.09 41.66C1380.41 41.35 1382.93 42.33 1385.37 42.71C1390.47 43.51 1395.04 41.68 1399.69 40.59C1400.05 40.51 1400.44 40.43 1400.82 40.55C1401.75 40.85 1401.78 41.96 1401.42 42.64V42.65Z" fill="#A58065"/>
<path d="M1394.99 46.67C1388.59 48.68 1381.11 49.74 1374.04 47.27C1373.44 47.06 1372.74 46.71 1372.66 46.2C1372.62 45.94 1372.75 45.72 1372.88 45.51C1374.01 43.73 1375.61 41.99 1378.09 41.66C1380.41 41.35 1382.93 42.33 1385.37 42.71C1390.47 43.51 1395.04 41.6801 1399.69 40.5901C1400.05 40.5101 1400.44 40.43 1400.82 40.55C1401.75 40.85 1401.78 41.96 1401.42 42.64C1400.28 44.75 1397.6 45.84 1394.99 46.66V46.67Z" fill="#CCA47A"/>
<path d="M1412.64 93.04C1404.47 107.07 1400.64 124.12 1404.63 139.85C1406.77 148.29 1411.62 156.64 1419.56 160.22C1425.57 162.93 1432.6 162.56 1438.9 160.63C1445.2 158.69 1450.94 155.31 1456.65 152.03C1464 147.81 1471.49 143.69 1479.58 141.17C1487.67 138.66 1496.5 137.83 1504.62 140.27C1513.2 142.84 1520.4 148.83 1528.88 151.69C1530.63 152.28 1532.49 152.74 1534.32 152.45C1536.67 152.08 1538.63 150.53 1540.49 149.04C1552.88 139.05 1565.95 128.06 1570.26 112.75C1572.97 103.14 1571.87 92.91 1570.4 83.04C1568.87 72.74 1566.6 61.82 1559.22 54.48C1555.23 50.52 1550.07 47.97 1544.93 45.68C1533.57 40.63 1521.6 36.49 1509.2 35.79C1486.5 34.52 1464.64 44.92 1446.19 58.21C1433.01 67.7 1420.81 79.01 1412.64 93.04ZM1430.21 104.35C1435.15 91.88 1443.57 80.66 1454.71 73.18C1462.05 68.25 1470.4 65.02 1478.78 62.19C1484.32 60.32 1489.92 58.6 1495.68 57.62C1504.32 56.14 1513.14 56.33 1521.9 56.53C1527.59 56.66 1533.49 56.83 1538.59 59.36C1541 60.55 1543.13 62.22 1545.13 64.01C1551.57 69.77 1556.91 77.17 1558.56 85.65C1560.21 94.13 1557.6 103.73 1550.73 108.98C1548.81 110.45 1546.59 111.57 1545.01 113.39C1544.22 114.3 1543.61 115.36 1542.73 116.18C1541.15 117.65 1538.93 118.15 1536.8 118.48C1526.01 120.15 1514.9 118.68 1504.45 115.52C1498.6 113.75 1492.61 111.43 1486.56 112.27C1479.8 113.21 1474.25 117.9 1469.12 122.4C1465.17 125.86 1461.21 129.33 1457.26 132.79C1453.93 135.7 1450.4 138.72 1446.07 139.63C1438.31 141.25 1430.5 135.08 1428.02 127.55C1425.54 120.02 1427.29 111.73 1430.22 104.36L1430.21 104.35Z" fill="#665040"/>
<path d="M1430.21 104.35C1427.29 111.72 1425.54 120.01 1428.01 127.54C1430.48 135.07 1438.3 141.24 1446.06 139.62C1450.39 138.72 1453.93 135.7 1457.25 132.78C1461.2 129.32 1465.16 125.85 1469.11 122.39C1474.24 117.89 1479.79 113.2 1486.55 112.26C1492.61 111.42 1498.59 113.74 1504.44 115.51C1514.89 118.67 1526 120.13 1536.79 118.47C1538.92 118.14 1541.14 117.63 1542.72 116.17C1543.6 115.35 1544.21 114.29 1545 113.38C1546.58 111.56 1548.8 110.43 1550.72 108.97C1557.59 103.73 1560.2 94.12 1558.55 85.64C1556.9 77.16 1551.56 69.77 1545.12 64C1543.12 62.21 1540.98 60.54 1538.58 59.35C1533.48 56.83 1527.58 56.65 1521.89 56.52C1513.13 56.32 1504.31 56.13 1495.67 57.61C1489.91 58.6 1484.3 60.32 1478.77 62.18C1470.39 65.01 1462.05 68.24 1454.7 73.17C1443.56 80.65 1435.15 91.87 1430.2 104.34L1430.21 104.35ZM1454.87 104.1C1454.75 97.92 1458.1 92.06 1462.67 87.9C1467.24 83.74 1472.94 81.06 1478.66 78.72C1494.37 72.3 1512.26 68.09 1528.16 74.05C1532.45 75.65 1536.74 78.28 1538.43 82.53C1540.49 87.7 1538.05 93.58 1534.81 98.1C1532.8 100.92 1530.26 103.63 1526.91 104.52C1522.45 105.7 1517.91 103.38 1513.59 101.76C1501.8 97.35 1488.17 98.11 1476.95 103.81C1472.55 106.04 1468.48 109 1463.76 110.44C1461.71 111.07 1459.34 111.35 1457.53 110.19C1455.58 108.94 1454.9 106.41 1454.86 104.1H1454.87Z" fill="#8C6D57"/>
<path d="M1454.87 104.1C1454.92 106.41 1455.6 108.94 1457.54 110.19C1459.35 111.35 1461.72 111.07 1463.77 110.44C1468.49 109 1472.56 106.04 1476.96 103.81C1488.18 98.11 1501.81 97.35 1513.6 101.76C1517.92 103.38 1522.46 105.7 1526.92 104.52C1530.27 103.63 1532.81 100.92 1534.82 98.1C1538.06 93.57 1540.49 87.7 1538.44 82.53C1536.75 78.28 1532.45 75.66 1528.17 74.05C1512.27 68.1 1494.38 72.31 1478.67 78.72C1472.95 81.06 1467.25 83.74 1462.68 87.9C1458.11 92.06 1454.76 97.92 1454.88 104.1H1454.87ZM1475.08 90.96C1477.8 86.98 1482.61 85.05 1487.23 83.64C1498.52 80.19 1511.2 78.63 1521.8 83.83C1522.7 84.27 1523.71 84.98 1523.63 85.98C1523.59 86.47 1523.29 86.9 1522.99 87.29C1520.43 90.65 1517.11 93.88 1512.91 94.36C1508.98 94.81 1505.26 92.76 1501.41 91.87C1493.37 90.01 1485.16 93.23 1477.1 95.01C1476.48 95.15 1475.81 95.27 1475.23 95.01C1473.82 94.37 1474.21 92.23 1475.09 90.95L1475.08 90.96Z" fill="#A58065"/>
<path d="M1487.23 83.64C1498.52 80.19 1511.2 78.63 1521.8 83.83C1522.7 84.27 1523.71 84.98 1523.63 85.98C1523.59 86.47 1523.29 86.9 1522.99 87.29C1520.43 90.65 1517.11 93.88 1512.91 94.36C1508.98 94.81 1505.26 92.76 1501.41 91.87C1493.37 90.01 1485.16 93.23 1477.1 95.01C1476.48 95.15 1475.81 95.27 1475.23 95.01C1473.82 94.37 1474.21 92.23 1475.09 90.95C1477.81 86.97 1482.62 85.04 1487.24 83.63L1487.23 83.64Z" fill="#CCA47A"/>
<path d="M1768.03 51.77C1753.6 47.29 1738.01 48.91 1723.14 51.62C1705.83 54.78 1688.57 59.38 1670.98 59.03C1677.11 55.46 1680.35 47.57 1678.51 40.73C1676.46 33.12 1669.42 28.2 1664.27 22.14H1864.76C1863.31 28.64 1861.28 35.2 1856.37 39.56C1854.1 41.58 1851.37 42.98 1848.73 44.48C1843.49 47.48 1838.55 50.98 1833.99 54.93C1830.08 58.32 1826.35 62.18 1824.54 67.02C1822.72 71.86 1823.22 77.87 1826.93 81.47C1822.82 79.91 1818.83 78.02 1815.02 75.82C1810.08 79.5 1809.13 87.47 1813.06 92.21C1814.34 93.76 1816.17 95.6 1815.29 97.41C1810.53 94.46 1803.68 95.53 1800.05 99.79C1796.88 95.05 1797.75 88.83 1797.13 83.17C1795.5 68.15 1782.47 56.24 1768.03 51.76V51.77Z" fill="#3F3029"/>
<path d="M1651.77 189.52C1651.77 189.52 1651.7 189.49 1651.66 189.47C1649.77 188.51 1647.86 187.62 1645.84 186.99C1649.05 186.73 1652.27 186.98 1655.49 187.09C1681.94 188 1707.69 179.46 1732.77 171.03C1749.28 165.48 1765.94 159.86 1780.88 150.89C1788.54 146.29 1795.94 140.54 1799.9 132.54C1801.62 138.68 1799.71 145.69 1795.12 150.12C1791.96 153.16 1787.45 155.39 1786.41 159.64C1785.25 164.43 1789.22 168.89 1793.25 171.72C1801.41 177.44 1811.27 180.71 1821.23 180.98C1811.69 182.42 1802.05 183.89 1793.08 187.46C1791.51 188.08 1789.97 188.77 1788.44 189.47C1788.4 189.49 1788.36 189.5 1788.32 189.52H1651.76H1651.77Z" fill="#3F3029"/>
<path d="M1562.96 189.52C1562.62 189.5 1562.28 189.49 1561.94 189.47C1552.76 188.99 1543.59 188.63 1534.43 188.75C1519.77 188.95 1504.99 190.39 1490.53 187.97C1506.68 173.76 1529.24 168.94 1546.26 155.78C1556.77 147.66 1564.71 136.7 1571.67 125.4C1574.43 120.92 1577.09 116.29 1578.5 111.21C1582.19 97.95 1576.88 83.91 1570.41 71.76C1587.27 79.13 1606.54 77.39 1624.85 75.5C1630.36 74.93 1635.91 74.36 1641.21 72.77C1635.4 75.01 1630.57 79.15 1625.86 83.22C1616.83 91.01 1607.43 99.34 1603.53 110.61C1600.5 119.37 1601.16 128.92 1601.92 138.16C1602.22 141.88 1602.54 145.62 1603.5 149.23C1605.05 155.1 1608.22 160.41 1611.6 165.46C1618.13 175.23 1626.52 185.01 1638.03 187.36C1636.42 188.16 1634.63 188.5 1632.85 188.79C1631.32 189.04 1629.79 189.25 1628.26 189.45C1628.13 189.47 1628 189.49 1627.87 189.5H1562.94L1562.96 189.52Z" fill="#3F3029"/>
<path d="M1542.28 32.37C1531.64 28.57 1520.06 28.7 1508.76 28.87C1503.42 28.95 1498.06 29.04 1492.78 29.79C1487.46 30.55 1482.26 31.99 1477.13 33.59C1471.32 35.4 1465.57 37.42 1459.91 39.65C1453.34 42.24 1446.77 45.22 1441.04 49.27C1447.99 42.17 1453.12 33.33 1454.34 23.56C1454.4 23.09 1454.43 22.61 1454.47 22.14H1576.93C1573.83 25.91 1571.63 30.48 1570.57 35.26C1568.73 43.56 1569.99 52.32 1572.95 60.29C1566.27 47.83 1555.6 37.13 1542.28 32.37Z" fill="#3F3029"/>
<path d="M1441.03 49.28C1438.73 51.63 1436.24 53.79 1433.62 55.72C1435.84 53.28 1438.35 51.17 1441.03 49.28Z" fill="#041D23"/>
<path d="M955.99 189.52C955.99 189.52 955.91 189.48 955.87 189.47C953.96 188.73 952.18 187.73 950.67 186.3C944.87 180.85 943.24 170.01 935.35 169.02C952.78 168.44 969.43 175.99 986.76 177.95C1004.09 179.91 1025.2 173.16 1029.36 156.23C1031.31 148.27 1028.99 139.95 1026.49 132.15C1060.06 163.72 1110.79 166.2 1156.88 166.9C1208.4 167.68 1259.92 168.45 1311.44 169.23C1326.55 169.46 1341.83 169.67 1356.56 166.3C1371.29 162.93 1385.65 155.58 1394.51 143.35C1398.34 156.09 1411.2 164.72 1424.4 166.38C1437.6 168.04 1450.94 163.74 1462.62 157.37C1469.44 153.65 1475.99 149.17 1483.5 147.21C1500.67 142.73 1518.07 152.23 1533.28 161.37C1515.1 166.14 1495.88 171.5 1483.09 185.28C1481.85 186.62 1480.66 188.04 1479.48 189.46C1479.47 189.48 1479.45 189.49 1479.44 189.51H955.99V189.52Z" fill="#3F3029"/>
<path d="M1368.29 80.18C1345.29 63.6 1316.96 56.09 1288.87 52.19C1260.79 48.29 1232.3 47.68 1204.3 43.22C1182.12 39.69 1159.86 33.48 1140.64 22.14H1339.03C1336.96 30.6 1333.27 38.96 1335.76 47.14C1337.98 54.44 1344.6 59.42 1351.1 63.42C1361.28 69.69 1372.31 74.91 1384.1 76.91C1395.89 78.92 1408.54 77.48 1418.75 71.25C1404.86 84.35 1396.17 102.83 1394.95 121.88C1393.11 111.2 1388.85 100.82 1381.92 92.48C1378 87.76 1373.29 83.75 1368.31 80.16L1368.29 80.18Z" fill="#3F3029"/>
<path d="M887.72 189.52C887.72 189.52 887.73 189.48 887.74 189.47C891.56 179.79 894.58 169.24 890.49 159.89C887.38 152.78 880.67 147.9 873.74 144.39C855.79 135.29 834.34 133.3 815.02 138.94C817.97 130.12 817.7 120.26 814.27 111.62C827.86 119.71 842.29 128.05 858.1 128.18C881.08 128.36 900.26 111.46 921.95 103.86C934.3 99.53 948.86 97.4 956.43 86.73C962.05 78.81 962.04 67.91 958.55 58.85C955.06 49.79 948.55 42.24 941.76 35.3C937.1 30.54 932.04 25.88 926.5 22.15H1054C1053.69 22.27 1053.37 22.38 1053.06 22.5C1040.69 27.08 1028.25 32.25 1018.26 40.86C1008.27 49.47 1000.96 62.13 1001.8 75.28C1002.15 80.82 1003.91 86.18 1006.02 91.32C1011.77 105.32 1020.31 118.17 1030.98 128.9C1027.03 126.43 1023.08 123.96 1019.12 121.49C1015.91 123.26 1013.77 126.82 1013.72 130.48C1000.08 123.58 985.57 118.39 970.65 115.07C958.63 112.4 945.91 110.96 934.14 114.57C922.37 118.18 911.79 127.84 910.27 140.05C908.89 151.07 915.14 162.05 924.01 168.73C927.4 171.28 931.17 173.33 934.21 176.29C937.25 179.24 939.52 183.43 938.8 187.6C936.33 182.82 929.77 181.59 924.61 183.12C920.33 184.39 916.67 187.03 912.91 189.48C912.88 189.5 912.86 189.52 912.83 189.53H887.72V189.52Z" fill="#3F3029"/>
<path d="M797.8 50.59C792.26 45.73 785.69 42.21 779.17 38.79C773.59 35.86 767.95 32.94 761.9 31.16C753.51 28.7 744.64 28.52 735.9 28.36C717.76 28.03 699.63 27.7 681.49 27.37C670.95 27.18 660.36 26.98 649.98 25.15C645.82 24.42 641.71 23.39 637.68 22.14H853.2C849.4 23.63 845.7 25.35 842.19 27.48C832.4 33.4 824.46 41.88 816.94 50.49C812.33 55.77 807.51 62.27 809.04 69.11C807.83 61.84 803.34 55.44 797.8 50.58V50.59Z" fill="#3F3029"/>
<path d="M470.84 189.52C470.84 189.52 470.84 189.49 470.83 189.47C469.15 181.86 465.48 174.7 460.26 168.92C483.53 177.16 507.92 182.26 532.55 184.02C545.03 184.91 558.38 184.73 568.93 178C575.05 174.09 579.7 168.27 583.86 162.32C586.35 158.75 588.75 155.01 589.96 150.82C593.72 137.79 585.32 124.66 577.35 113.68C588.91 117.42 597.5 127.12 604.29 137.2C611.08 147.28 616.78 158.26 625.4 166.81C640.58 181.86 662.68 187.32 684.04 189.47C684.21 189.49 684.38 189.51 684.54 189.52H470.85H470.84Z" fill="#3F3029"/>
<path d="M726.05 189.52C726.18 189.5 726.31 189.48 726.44 189.47C731.49 188.85 736.51 187.99 741.46 186.78C766.88 180.57 790.12 165.81 806.56 145.46C802.12 161.1 808.09 178.88 820.27 189.47C820.29 189.49 820.31 189.51 820.33 189.52H726.05Z" fill="#3F3029"/>
<path d="M616.74 43.15C605.16 48.54 592.89 54.97 587.35 66.47C588.06 58.74 577.66 54.44 575.85 46.89C574.55 41.49 577.67 34.65 573.62 30.84C572.14 29.45 570.07 28.94 568.12 28.4C563.46 27.11 558.93 25.35 554.63 23.14C554.12 22.88 553.62 22.56 553.24 22.13H614.89C616.82 23.82 618.94 25.29 621.2 26.5C622.69 27.3 624.29 28.04 625.33 29.37C627.26 31.84 626.53 35.6 624.53 38.02C622.54 40.43 619.59 41.82 616.75 43.14L616.74 43.15Z" fill="#3F3029"/>
<path d="M120.36 26.27C119.19 24.85 117.93 23.48 116.63 22.14H432.42C425.42 25.55 418.64 29.35 412.48 34.09C401.66 42.4 392.72 53.95 390.37 67.38C388.27 79.37 391.6 91.79 397.33 102.53C403.05 113.27 411.06 122.59 419 131.81C403.39 117.25 376.2 117.66 361.03 132.68C366.98 113.05 364.18 90.81 353.01 73.6C341.84 56.39 322.34 44.7 301.85 43.58C289.87 42.92 278.01 45.67 266.23 47.95C227.89 55.36 188.61 57.86 149.64 55.37C145.75 55.12 141.76 54.83 138.02 55.94C134.28 57.05 130.78 59.88 130.09 63.72C132.47 50.62 128.82 36.55 120.36 26.27Z" fill="#3F3029"/>
<path d="M264.49 189.52C264.49 189.52 264.59 189.48 264.64 189.47C293.77 179.28 321.74 165.31 349.4 151.44C352.46 167.89 365.15 179.79 379.42 189.47C379.45 189.49 379.47 189.51 379.5 189.52H264.5H264.49Z" fill="#3F3029"/>
<path d="M141.23 159.06C151.06 165.82 154.1 178.89 161.73 188.06C162.15 188.56 162.6 189 163.04 189.47C163.06 189.49 163.07 189.5 163.09 189.52H132.56C132.56 189.52 132.63 189.48 132.66 189.47C134.58 188.56 136.4 187.42 138.05 186.02C145.75 179.46 148.09 166.48 141.22 159.06H141.23Z" fill="#3F3029"/>
<path d="M2006.3 189.52H1819.94C1819.94 189.52 1820.02 189.48 1820.06 189.47C1828.88 185.94 1837.02 180.69 1843.82 174.05C1846.37 171.56 1848.76 168.86 1850.62 165.82C1855.13 158.44 1856.29 149.34 1855.11 140.77C1853.92 132.2 1850.53 124.08 1846.47 116.44C1840.91 105.98 1833.83 96.03 1824.1 89.26C1832.43 92.34 1839.96 97.53 1845.8 104.21C1850.41 109.48 1853.95 115.62 1858.53 120.92C1863.04 126.14 1868.47 130.46 1874 134.58C1885.57 143.23 1897.85 151.24 1911.52 155.9C1925.19 160.56 1940.49 161.64 1953.99 156.48C1960.25 154.09 1965.97 150.43 1971.17 146.21C1989.53 131.28 2000.69 108.34 2000.89 84.68C2000.48 82.5 2000.09 80.18 1999.52 78.37C1998.12 74.62 1996.89 72.65 1995.78 70.62C1990.96 62.95 1985.97 55.56 1979.27 49.46C1970.98 41.91 1960.31 37.31 1949.34 34.96C1938.37 32.61 1927.06 32.39 1915.85 32.74C1903.14 33.14 1889.2 33.93 1879.04 26.27C1878.14 25.59 1877.23 24.76 1877.05 23.65C1876.97 23.14 1877.05 22.64 1877.2 22.14H2005.78H2035.18V22.16H2043.44C2048.65 23.97 2053.85 25.79 2059.06 27.6C2050.93 30.26 2042.66 33 2035.18 37.05C2031.75 38.9 2028.49 41.03 2025.48 43.55C2015.92 51.56 2009.48 64.58 2012.82 76.59C2015.65 86.75 2024.79 93.56 2035.18 96.29C2039.86 97.52 2044.79 97.92 2049.52 97.43C2064.74 95.83 2078.23 87.31 2091.09 79.02C2097.86 83.44 2106.78 81.57 2114.62 79.55C2103.56 93.73 2099.17 112.88 2102.93 130.46C2092.77 116.77 2077.37 105.8 2060.32 105.58C2051.05 105.46 2041.66 109.38 2035 115.72C2029.41 121.04 2025.74 128.06 2025.69 135.83C2025.65 141.25 2027.28 146.47 2029.94 151.21C2032.18 155.21 2035.15 158.87 2038.49 162C2045.78 168.84 2054.72 173.6 2063.42 178.52C2070.57 182.57 2077.75 186.81 2085.46 189.54H2035.19H2006.31V189.52H2006.3Z" fill="#3F3029"/>
</svg>
