<svg width="2764" height="73" viewBox="0 0 2764 73" fill="none" xmlns="http://www.w3.org/2000/svg">
<path d="M3.87976 4.62999C20.8698 9.07999 40.4998 9.64997 59.1098 9.97997C74.8498 10.26 90.5898 10.55 106.33 10.83C121.26 11.1 136.23 11.37 151.12 10.61C167.64 9.76997 184.01 7.66996 200.57 7.40996C214.87 7.17996 230.19 8.11 244.27 6.51C250.6 5.79 257.02 5.64997 263.44 5.78997C264.52 5.80997 265.61 5.77 266.62 5.7C438.15 -6.5 611.11 7.06 783.49 11.51C968.65 16.29 1153.99 10.53 1339.07 4.02001C1364.27 4.32001 1381.36 4.57997 1382.59 4.60997C1383.28 4.60997 1384.27 4.61999 1385.52 4.62999C1402.51 9.07999 1422.14 9.64997 1440.75 9.97997C1456.49 10.26 1472.23 10.55 1487.97 10.83C1502.9 11.1 1517.87 11.37 1532.76 10.61C1549.28 9.76997 1565.64 7.66996 1582.21 7.40996C1596.51 7.17996 1611.83 8.11 1625.91 6.51C1632.24 5.79 1638.66 5.64997 1645.08 5.78997C1646.16 5.80997 1647.25 5.77 1648.26 5.7C1819.79 -6.5 1992.75 7.06 2165.13 11.51C2350.29 16.29 2535.63 10.53 2720.71 4.02001C2745.91 4.32001 2762.05 4.58997 2763.29 4.60997V50.55C2693.99 64.62 1381.76 56.11 1381.76 56.11L1379.1 56.29C1304.98 70.24 0.109764 56.11 0.109764 56.11L0.00976562 5.08V4.60997C0.539766 4.60997 1.86977 4.60999 3.86977 4.62999H3.87976Z" fill="#A58065"/>
<path d="M0.0295334 4.60999V5.08002L0.0195312 4.60999H0.0295334Z" fill="#108C89"/>
<path d="M1147 44.1C1152.43 44.68 1157.87 45.2601 1163.3 45.8401C1152.18 46.7301 1140.73 45.81 1130.25 43.2C1135.85 42.91 1141.46 43.51 1147 44.1Z" fill="url(#paint0_linear_7_9316)"/>
<path d="M656.04 43.47C655.62 43.47 655.2 43.44 654.78 43.4C655.2 43.4 655.62 43.42 656.04 43.47Z" fill="url(#paint1_linear_7_9316)"/>
<path d="M0.329727 44.74C12.9997 44.74 91.8697 40.02 91.8697 40.02C182.68 37.71 190.99 55.71 284.92 47.35C378.85 38.99 388.14 52.22 458.81 45.85C529.49 39.48 609.25 51.68 677.95 47.35C746.65 43.02 812.55 47.87 906.55 44.75C1000.55 41.62 1047.26 50.26 1154.07 46.18C1259.27 42.16 1378.17 42.04 1381.74 42.11C1394.68 42.09 1473.31 40.02 1473.31 40.02C1564.12 37.71 1572.43 55.71 1666.36 47.35C1760.29 38.99 1769.58 52.22 1840.25 45.85C1910.93 39.48 1990.69 51.68 2059.39 47.35C2128.09 43.02 2193.99 47.87 2287.99 44.75C2381.99 41.62 2428.7 50.26 2535.52 46.18C2640.73 42.16 2759.75 44.67 2763.31 44.75V68.03C2760.95 68.26 2699.81 74.07 2619.69 72.5C2537.97 70.9 2484.17 66.65 2391.54 63.68C2298.91 60.71 2197.36 59.5 2146.32 64.85C2095.28 70.21 1969.92 69.96 1878.98 71.55C1788.03 73.15 1786.13 64.67 1700.35 63.84C1614.57 63.01 1567.71 62.62 1488.13 64.81C1408.6 67 1381.71 68.09 1381.67 68.09V68.04C1377.3 68.46 1316.93 74.03 1238.24 72.49C1156.52 70.89 1102.72 66.64 1010.09 63.67C917.46 60.7 815.91 59.49 764.87 64.84C713.83 70.2 588.47 69.95 497.53 71.54C406.58 73.14 404.68 64.66 318.9 63.83C233.12 63 186.26 62.61 106.68 64.8C27.1497 66.99 0.259727 68.08 0.219727 68.08V67.87L0.319725 44.73L0.329727 44.74Z" fill="url(#paint2_linear_7_9316)"/>
<path d="M0.0295334 67.87V68.09H0.0195312L0.0295334 67.87Z" fill="url(#paint3_linear_7_9316)"/>
<defs>
<linearGradient id="paint0_linear_7_9316" x1="1163.31" y1="44.64" x2="1130.26" y2="44.64" gradientUnits="userSpaceOnUse">
<stop stop-color="#109991"/>
<stop offset="0.86" stop-color="#157671"/>
</linearGradient>
<linearGradient id="paint1_linear_7_9316" x1="656.04" y1="43.43" x2="654.78" y2="43.43" gradientUnits="userSpaceOnUse">
<stop stop-color="#109991"/>
<stop offset="0.86" stop-color="#157671"/>
</linearGradient>
<linearGradient id="paint2_linear_7_9316" x1="1381.77" y1="40.43" x2="1381.77" y2="69.72" gradientUnits="userSpaceOnUse">
<stop stop-color="#A58065"/>
<stop offset="1" stop-color="#4C3B30"/>
</linearGradient>
<linearGradient id="paint3_linear_7_9316" x1="0.0295334" y1="67.88" x2="0.0295334" y2="68.07" gradientUnits="userSpaceOnUse">
<stop stop-color="#108C89"/>
<stop offset="1" stop-color="#1B4E4D"/>
</linearGradient>
</defs>
</svg>
