<svg width="2764" height="73" viewBox="0 0 2764 73" fill="none" xmlns="http://www.w3.org/2000/svg">
<path d="M3.94995 4.62999C20.94 9.07999 40.5699 9.64997 59.1799 9.97997C74.9199 10.26 90.6599 10.55 106.4 10.83C121.33 11.1 136.3 11.37 151.19 10.61C167.71 9.76997 184.08 7.66996 200.64 7.40996C214.94 7.17996 230.26 8.11 244.34 6.51C250.67 5.79 257.09 5.64997 263.51 5.78997C264.59 5.80997 265.68 5.77 266.69 5.7C438.22 -6.5 611.18 7.06 783.56 11.51C968.72 16.29 1154.06 10.53 1339.14 4.02001C1364.34 4.32001 1381.43 4.57997 1382.66 4.60997C1383.35 4.60997 1384.34 4.61999 1385.59 4.62999C1402.58 9.07999 1422.21 9.64997 1440.82 9.97997C1456.56 10.26 1472.3 10.55 1488.04 10.83C1502.97 11.1 1517.94 11.37 1532.83 10.61C1549.35 9.76997 1565.71 7.66996 1582.28 7.40996C1596.58 7.17996 1611.9 8.11 1625.98 6.51C1632.31 5.79 1638.73 5.64997 1645.15 5.78997C1646.23 5.80997 1647.32 5.77 1648.33 5.7C1819.86 -6.5 1992.82 7.06 2165.2 11.51C2350.36 16.29 2535.7 10.53 2720.78 4.02001C2745.98 4.32001 2762.12 4.58997 2763.36 4.60997V50.55C2694.06 64.62 1381.83 56.11 1381.83 56.11L1379.17 56.29C1305.05 70.24 0.179932 56.11 0.179932 56.11L0.0800781 5.08V4.60997C0.610078 4.60997 1.93994 4.60999 3.93994 4.62999H3.94995Z" fill="#A58065"/>
<path d="M1147.08 44.1C1152.51 44.68 1157.95 45.2601 1163.38 45.8401C1152.26 46.7301 1140.81 45.81 1130.33 43.2C1135.93 42.91 1141.54 43.51 1147.08 44.1Z" fill="url(#paint0_linear_7_9306)"/>
<path d="M656.11 43.47C655.69 43.47 655.27 43.44 654.85 43.4C655.27 43.4 655.69 43.42 656.11 43.47Z" fill="url(#paint1_linear_7_9306)"/>
<path d="M0.399902 44.74C13.0699 44.74 91.9399 40.02 91.9399 40.02C182.75 37.71 191.06 55.71 284.99 47.35C378.92 38.99 388.21 52.22 458.88 45.85C529.56 39.48 609.32 51.68 678.02 47.35C746.72 43.02 812.62 47.87 906.62 44.75C1000.62 41.62 1047.33 50.26 1154.14 46.18C1259.34 42.16 1378.24 42.04 1381.81 42.11C1394.75 42.09 1473.38 40.02 1473.38 40.02C1564.19 37.71 1572.5 55.71 1666.43 47.35C1760.36 38.99 1769.65 52.22 1840.32 45.85C1911 39.48 1990.76 51.68 2059.46 47.35C2128.16 43.02 2194.06 47.87 2288.06 44.75C2382.06 41.62 2428.77 50.26 2535.59 46.18C2640.8 42.16 2759.82 44.67 2763.38 44.75V68.03C2761.02 68.26 2699.88 74.07 2619.76 72.5C2538.04 70.9 2484.24 66.65 2391.61 63.68C2298.98 60.71 2197.43 59.5 2146.39 64.85C2095.35 70.21 1969.99 69.96 1879.05 71.55C1788.1 73.15 1786.2 64.67 1700.42 63.84C1614.64 63.01 1567.78 62.62 1488.2 64.81C1408.67 67 1381.78 68.09 1381.74 68.09V68.04C1377.37 68.46 1317 74.03 1238.31 72.49C1156.59 70.89 1102.79 66.64 1010.16 63.67C917.53 60.7 815.98 59.49 764.94 64.84C713.9 70.2 588.54 69.95 497.6 71.54C406.65 73.14 404.75 64.66 318.97 63.83C233.19 63 186.33 62.61 106.75 64.8C27.22 66.99 0.330039 68.08 0.290039 68.08V67.87L0.389893 44.73L0.399902 44.74Z" fill="url(#paint2_linear_7_9306)"/>
<defs>
<linearGradient id="paint0_linear_7_9306" x1="1163.38" y1="44.64" x2="1130.33" y2="44.64" gradientUnits="userSpaceOnUse">
<stop stop-color="#109991"/>
<stop offset="0.86" stop-color="#157671"/>
</linearGradient>
<linearGradient id="paint1_linear_7_9306" x1="656.11" y1="43.43" x2="654.85" y2="43.43" gradientUnits="userSpaceOnUse">
<stop stop-color="#109991"/>
<stop offset="0.86" stop-color="#157671"/>
</linearGradient>
<linearGradient id="paint2_linear_7_9306" x1="1381.84" y1="-640" x2="1381.84" y2="69.72" gradientUnits="userSpaceOnUse">
<stop stop-color="#A58065"/>
<stop offset="1" stop-color="#4C3B30"/>
</linearGradient>
</defs>
</svg>
