<svg xmlns="http://www.w3.org/2000/svg" width="32.613" height="38.81" viewBox="0 0 32.613 38.81">
  <defs>
    <style>
      .cls-1 {
        fill: #fff;
      }
    </style>
  </defs>
  <path id="Icon_awesome-apple" data-name="Icon awesome-apple" class="cls-1" d="M27.548,22.759a8.089,8.089,0,0,1,4.332-7.347,9.309,9.309,0,0,0-7.339-3.864C21.466,11.3,18.1,13.34,16.874,13.34c-1.3,0-4.28-1.707-6.62-1.707C5.419,11.712.281,15.489.281,23.175A21.6,21.6,0,0,0,1.529,30.21c1.109,3.18,5.112,10.978,9.288,10.848,2.183-.052,3.726-1.551,6.568-1.551,2.755,0,4.185,1.551,6.62,1.551,4.211-.061,7.833-7.148,8.89-10.337a8.589,8.589,0,0,1-5.346-7.963Zm-4.9-14.227A8.161,8.161,0,0,0,24.724,2.25,9.187,9.187,0,0,0,18.84,5.274a8.289,8.289,0,0,0-2.218,6.23c2.261.173,4.324-.988,6.022-2.972Z" transform="translate(-0.281 -2.25)"/>
</svg>
