<svg id="Groupe_1393" data-name="Groupe 1393" xmlns="http://www.w3.org/2000/svg" xmlns:xlink="http://www.w3.org/1999/xlink" width="99.869" height="130" viewBox="0 0 99.869 130">
  <defs>
    <clipPath id="clip-path">
      <rect id="Rectangle_372" data-name="Rectangle 372" width="99.869" height="130" fill="none"/>
    </clipPath>
  </defs>
  <g id="Groupe_1392" data-name="Groupe 1392" clip-path="url(#clip-path)">
    <path id="Tracé_1215" data-name="Tracé 1215" d="M130.7,240.6c-8.622-3.615-17.084-7.612-25.946-11.615L86.274,269.965c4.432,2.017,8.718,3.828,12.858,5.926a9.825,9.825,0,0,1,3.723,3.329c2.369,3.753,4.537,7.635,6.938,11.824q.424.152.851.3,2.153.766,4.336,1.325a11.709,11.709,0,0,1-1.542-2.16c-3.235-5.769-6.6-11.466-9.9-17.2-.707-1.226-1.519-2.571.1-3.611,1.6-1.026,3-.337,4.069,1.045s2.078,2.836,3.113,4.257l1.019-.442c-.016-.87.014-1.743-.056-2.609-.467-5.764-.921-11.53-1.454-17.289-.2-2.181.166-4.043,2.674-4.262,2.542-.222,3.171,1.625,3.339,3.768.237,3.016.555,6.026.812,8.759,1.45-.308,3.031-1.138,4.208-.748,1.092.362,1.752,2.027,2.574,3.083l.058-.012c2.413-5.357,5.983-15.011,8.421-20.014,1.165-2.392,1.034-3.483-1.714-4.635m-8.818,17.934a24.867,24.867,0,0,1-.684-4.282,8.5,8.5,0,0,0-4.94-8.191,8.236,8.236,0,0,0-8.9,1.784c-2.5,2.523-2.931,5.938-1.459,9.425a21.357,21.357,0,0,1,.781,4.411c-4.61-2.488-5.811-8.841-3.127-13.58a10.982,10.982,0,0,1,15.025-4.1c5.188,2.992,7.042,9.462,3.306,14.529" transform="translate(-74.068 -196.589)" fill="#e07d05"/>
    <path id="Tracé_1216" data-name="Tracé 1216" d="M190.621,669.21l.06.011-.09-.046Z" transform="translate(-163.625 -574.497)" fill="#e07d05"/>
    <path id="Tracé_1217" data-name="Tracé 1217" d="M210.707,90.054a40.131,40.131,0,0,0-3.571-12.035,43.331,43.331,0,0,0-11.605-14.969,42.538,42.538,0,0,0-23.286-9.732,41.915,41.915,0,0,0-7.427-.042A41.482,41.482,0,0,0,154.174,55.4,42.709,42.709,0,0,0,129.893,76.1c-.108.2-.289.391-.258.659a.144.144,0,0,0,.209.108c.448-.236.666-.7.976-1.046A43.155,43.155,0,0,1,152.6,62.541a47.609,47.609,0,0,1,9.835-1.286c1.1-.048,2.208.1,3.309.142a39.716,39.716,0,0,1,10.391,1.851,31.62,31.62,0,0,1,3.366,1.246c15.047,6.693,23.914,18.142,26.3,34.469a37.569,37.569,0,0,1,.236,8.26,52.68,52.68,0,0,1-1.311,8.242,49.306,49.306,0,0,1-2,5.884h0l-.152.328a.141.141,0,0,1-.023.035l-.173.2a.213.213,0,0,0,.33-.088h0l.221-.311-.005,0,.005,0c.094-.11.2-.214.282-.332a42.852,42.852,0,0,0,7.9-22.859,44.9,44.9,0,0,0-.4-8.265" transform="translate(-111.29 -45.614)" fill="#fff"/>
    <path id="Tracé_1218" data-name="Tracé 1218" d="M127.5,222.371l-.013.021a.144.144,0,0,0,.245.149l.012-.017c.1-.153-.142-.3-.244-.152" transform="translate(-109.436 -190.855)" fill="#fff"/>
    <path id="Tracé_1219" data-name="Tracé 1219" d="M547.807,646.292a7.268,7.268,0,0,0-1.012.574.144.144,0,0,0,.132.253,3.866,3.866,0,0,0,1.031-.584.144.144,0,0,0-.151-.243" transform="translate(-469.38 -554.838)" fill="#fff"/>
    <path id="Tracé_1220" data-name="Tracé 1220" d="M561.864,643.091l.031-.034-.048-.009Z" transform="translate(-482.354 -552.067)" fill="#fff"/>
    <path id="Tracé_1221" data-name="Tracé 1221" d="M28.727,320.119a46.007,46.007,0,0,0,5.16,17.909l.01-.023a47.6,47.6,0,0,1-5.3-21.9,48.29,48.29,0,0,1,.316-5.491,44.905,44.905,0,0,0-.185,9.5" transform="translate(-24.521 -266.668)" fill="#fff"/>
    <path id="Tracé_1222" data-name="Tracé 1222" d="M303.785,717.376c-6.618,1.388-14.509.772-20.1-.141a.143.143,0,0,0-.157.191q4.86,13.338,9.749,26.665c.19.519.394,1.032.6,1.572a.144.144,0,0,0,.242.045,1.615,1.615,0,0,0,.26-.612q4.8-13.763,9.57-27.534a.142.142,0,0,0-.164-.186" transform="translate(-243.405 -615.756)" fill="#fff"/>
    <path id="Tracé_1223" data-name="Tracé 1223" d="M31.035,98.3c.121-.9.275-1.8.468-2.7a49.469,49.469,0,0,1,4.325-12.842,50.722,50.722,0,0,1,3.379-5.762,53.109,53.109,0,0,1,3.6-4.654,53.946,53.946,0,0,1,10.267-9.029A47.816,47.816,0,0,0,31.035,98.3" transform="translate(-26.644 -54.35)" fill="#fff"/>
    <path id="Tracé_1224" data-name="Tracé 1224" d="M66.65,505.068c-.062-.126-.207-.41-.439-.858l-.01.023q.22.419.449.835" transform="translate(-56.835 -432.872)" fill="#fff"/>
    <path id="Tracé_1225" data-name="Tracé 1225" d="M10.073,72.655c-.086-.153-.173-.306-.257-.46q.166.334-.449-.835a46.007,46.007,0,0,1-5.16-17.909,44.9,44.9,0,0,1,.185-9.5,47.816,47.816,0,0,1,22.04-34.99,49.1,49.1,0,0,1,5.657-3.273A49.5,49.5,0,0,1,52.322.332,1.763,1.763,0,0,0,52.6.325.144.144,0,0,0,52.591.04,4.243,4.243,0,0,0,52.058,0C50.4.014,48.74.022,47.075.126A47.447,47.447,0,0,0,36.67,1.873,50.313,50.313,0,0,0,.155,46.563,45.653,45.653,0,0,0,.728,58.489a54.272,54.272,0,0,0,2.8,10.1,50.28,50.28,0,0,0,3.717,7.544,48.82,48.82,0,0,0,2.939,4.336c.051.068.1.136.153.2A50.342,50.342,0,0,0,25.094,93.659c.617.359,1.242.7,1.872,1.019L9.4,74.125Z" transform="translate(0 0)" fill="#fff"/>
    <path id="Tracé_1226" data-name="Tracé 1226" d="M376.92,480.927a2.441,2.441,0,0,1,.267.012l0-.008a1.707,1.707,0,0,0-.246-.072Z" transform="translate(-323.592 -412.825)" fill="#fff"/>
    <path id="Tracé_1227" data-name="Tracé 1227" d="M238.043,506.886a52.113,52.113,0,0,1-14.971,3.762,11.357,11.357,0,0,0,3.38-3.9,9.918,9.918,0,0,0,1-5c-.238-4.763-.681-9.525-1.282-14.256-.164-1.293-.889-3.113-1.864-3.545-1.1-.488-2.776.316-4.012.526-.664-.9-1.311-2.622-2.475-3.111-.016-.007-.034-.011-.05-.017l0,.008a2.442,2.442,0,0,0-.267-.011l-3.553,10.2-5.659,19.525-17.06-3.1a66.08,66.08,0,0,0,10.4,4.023c3.407,1.06,17.413,2.192,24.239.358a56.252,56.252,0,0,0,12.493-4.752c.337-.184.934-.32.663-.832-.248-.468-.681,0-.977.124" transform="translate(-164.171 -413.24)" fill="#fff"/>
    <path id="Tracé_1228" data-name="Tracé 1228" d="M352.811,481.2l-.008.018c1.2.126,2.307-.572,3.412-.577l.024-.068c-1.066-.23-2.485.438-3.428.628" transform="translate(-302.887 -412.536)" fill="#fff"/>
    <path id="Tracé_1229" data-name="Tracé 1229" d="M117.834,170.874q-10.77-4.918-21.6-9.693c-5.081-2.235-8.081-.995-10.362,4.111-.262.586-.517,1.176-.781,1.762Q75.678,187.926,66.273,208.8c.227.439.462.873.7,1.3q.656,1.18,1.374,2.32-.726-1.14-1.379-2.307l-.676,1.471L83.862,232.14l.09.046,17.06,3.1,5.659-19.525,3.554-10.2c-1.105.005-2.217.7-3.412.577l.008-.018-.058.012c-.822-1.056-1.482-2.721-2.574-3.083-1.177-.39-2.759.441-4.209.748-.257-2.733-.574-5.743-.812-8.759-.168-2.143-.8-3.99-3.339-3.768-2.508.219-2.876,2.081-2.675,4.262.532,5.758.987,11.524,1.454,17.289.07.865.04,1.739.056,2.609l-1.019.442c-1.035-1.421-2.04-2.866-3.113-4.257s-2.47-2.071-4.069-1.045c-1.619,1.039-.807,2.385-.1,3.611,3.3,5.73,6.669,11.427,9.9,17.2a11.71,11.71,0,0,0,1.542,2.16q-2.182-.561-4.336-1.325-.427-.144-.851-.3c-2.4-4.189-4.569-8.071-6.938-11.824a9.824,9.824,0,0,0-3.723-3.329c-4.14-2.1-8.426-3.909-12.858-5.926L87.582,169.86c8.862,4,17.324,8,25.946,11.615,2.748,1.152,2.879,2.243,1.714,4.635-2.438,5-6.009,14.657-8.421,20.014.943-.19,2.362-.858,3.428-.628a1.7,1.7,0,0,1,.246.072c3.28-7.3,7.744-18.157,10.944-25.453,1.813-4.134.539-7.349-3.6-9.241M77.743,221.732c.174-1.826,1.8-2.744,3.712-2.282,1.931.466,2.9,2.066,2.228,3.745-.423,1.056-1.7,1.77-2.748,2.574-.154.117-.3.237-.443.359l-1.286-.317c-.279-.719-.7-1.452-1.026-2.174a3.893,3.893,0,0,1-.436-1.9m-8.708-8.257-.022-.033.072.106-.05-.073m37.945-40.06-6-2.721.432-.958,6,2.7-.441.977" transform="translate(-56.896 -137.462)" fill="#fff"/>
    <path id="Tracé_1230" data-name="Tracé 1230" d="M66.969,505.527l.006-.013c-.24-.431-.475-.865-.7-1.3.231.448.376.732.439.858.084.154.171.306.258.46" transform="translate(-56.896 -432.871)" fill="#fff"/>
    <path id="Tracé_1231" data-name="Tracé 1231" d="M72.574,515.749q-.72-1.138-1.374-2.32l-.006.013q.656,1.166,1.379,2.307" transform="translate(-61.122 -440.787)" fill="#fff"/>
    <path id="Tracé_1232" data-name="Tracé 1232" d="M85.66,537.055l.05.073-.072-.106.022.033" transform="translate(-73.522 -461.042)" fill="#fff"/>
    <path id="Tracé_1233" data-name="Tracé 1233" d="M214.84,326.256a10.981,10.981,0,0,0-15.024,4.1c-2.684,4.74-1.483,11.092,3.127,13.58a21.36,21.36,0,0,0-.781-4.411c-1.472-3.487-1.038-6.9,1.459-9.425a8.235,8.235,0,0,1,8.9-1.784,8.5,8.5,0,0,1,4.939,8.191,24.873,24.873,0,0,0,.684,4.282c3.735-5.067,1.882-11.537-3.307-14.529" transform="translate(-170.334 -278.839)" fill="#fff"/>
    <path id="Tracé_1234" data-name="Tracé 1234" d="M150.99,578.762c-1.913-.462-3.537.456-3.712,2.282a3.892,3.892,0,0,0,.437,1.9c.322.723.747,1.456,1.026,2.174l1.286.317c.141-.122.29-.242.443-.359,1.051-.8,2.325-1.518,2.748-2.574.673-1.679-.3-3.279-2.228-3.745" transform="translate(-126.432 -496.775)" fill="#e07d05"/>
    <path id="Tracé_1235" data-name="Tracé 1235" d="M318.045,230.813l-6-2.7-.432.958,6,2.721.441-.977" transform="translate(-267.52 -195.837)" fill="#e07d05"/>
  </g>
</svg>
