<svg xmlns="http://www.w3.org/2000/svg" xmlns:xlink="http://www.w3.org/1999/xlink" width="101.558" height="130" viewBox="0 0 101.558 130">
  <defs>
    <clipPath id="clip-path">
      <rect id="Rectangle_371" data-name="Rectangle 371" width="101.558" height="130" fill="none"/>
    </clipPath>
  </defs>
  <g id="Groupe_1391" data-name="Groupe 1391" clip-path="url(#clip-path)">
    <path id="Tracé_1201" data-name="Tracé 1201" d="M42.517,81.48C29.2,85.317,30.891,100.087,21.278,107.657c21.408,19.313,14.606,3.424,30.561,7.574a5.739,5.739,0,0,1,6.488.53c3.789-2.29,7.942.6,10.9,3.132,7.344,6.357,13.55-5.346,21.037-4.8-12-24.235-14.927-40.313-47.746-32.617" transform="translate(-7.504 -28.052)" fill="#e07d05"/>
    <path id="Tracé_1202" data-name="Tracé 1202" d="M118.345,76.911a38.54,38.54,0,0,0-.96-4.474,2.751,2.751,0,0,1-.083-1.824,2.313,2.313,0,0,0-1.628-3.245,10.254,10.254,0,0,0-6.163.144,30.473,30.473,0,0,0-11.995,7.127c-.548.495-.087.616.219.741.692.284,1.4.5,2.08.844,1.285.647,2.552,1.324,3.789,2.058,1,1.278,1.126,1.289,2.479.042a13.175,13.175,0,0,1,5.21-2.937,3.03,3.03,0,0,1,3.868,1.794,16.518,16.518,0,0,1,.9,4.263,22.564,22.564,0,0,1-2.124,11.649c-.278.572-.805,1.186-.745,1.729a26.363,26.363,0,0,0,.915,3.657c.235-.3.349-.43.442-.572a24.332,24.332,0,0,0,3.49-8.5,33.28,33.28,0,0,0,.8-8.371c-.159-1.376-.263-2.761-.489-4.125" transform="translate(-34.302 -23.613)" fill="#e07d05"/>
    <path id="Tracé_1203" data-name="Tracé 1203" d="M28.565,89.822a1.917,1.917,0,0,0,.036-1.746,15.573,15.573,0,0,1-.748-2.325,25.171,25.171,0,0,1-.595-6.939,18.261,18.261,0,0,1,1.857-7.482c2.1-4.257,7.46.089,9.31,2.556.79,1.018,1.267.5,2.016-.065a29.584,29.584,0,0,1,6.042-2.115c.26-.056.607-.062.687-.265s-.159-.468-.331-.673c-4.075-4.663-9.832-9.823-16.478-9.44a2.569,2.569,0,0,0-2.484,3.212,1.69,1.69,0,0,1-.192,1.4A33.3,33.3,0,0,0,24.7,76.224a27.769,27.769,0,0,0,2.7,16.259c.441-1.017.783-1.846,1.16-2.66" transform="translate(-8.636 -21.622)" fill="#e07d05"/>
    <path id="Tracé_1204" data-name="Tracé 1204" d="M61.54,162.145c2.91,7.939,5.773,15.887,8.708,23.816a1.875,1.875,0,0,0,3.516,0c2.895-7.833,5.417-15.888,8.248-23.761-6.846,1.427-14.923.838-20.472-.058" transform="translate(-21.704 -57.185)" fill="#fff"/>
    <path id="Tracé_1205" data-name="Tracé 1205" d="M81.09,77.69C81.226,72.952,85.6,69.108,86,64.354c.467-11.149,2.292-30.591-14.762-22.619-10.682,5.228-7.859,7.737-21.621,7.542-4.044-.058-7.3.5-9.512-1.994-4.713-5.452-10.7-10.938-18.41-10.9-6.042.143-4.9,6.939-6.845,10.924-2.97,8.305-1.337,17.492,1.913,25.385-.619,1.166-3.031,2.424-4.741,4.043C-9.507,43.595,15.915,2.2,53.888.109,17.378-2.315-10.234,35.89,3.657,69.771A50.718,50.718,0,0,0,14.483,86.583a39.575,39.575,0,0,0,11,8.684,50.837,50.837,0,0,0,14.149,5.568,61.819,61.819,0,0,0,11.576,1.29,58.439,58.439,0,0,0,11.546-1.311h0c.749-.181,1.526-.386,2.321-.618C72.654,98,81.966,93.55,85.64,87.261a.42.42,0,0,0,.046-.1c2.353-4.043-3.585-5.672-4.6-9.473M63.213,51.025A30.47,30.47,0,0,1,75.208,43.9a10.259,10.259,0,0,1,6.163-.144A2.313,2.313,0,0,1,83,47a2.748,2.748,0,0,0,.084,1.825,38.543,38.543,0,0,1,.959,4.474c.227,1.365.33,2.749.489,4.125a33.245,33.245,0,0,1-.8,8.371,24.321,24.321,0,0,1-3.49,8.5c-.094.142-.208.271-.443.572a26.327,26.327,0,0,1-.915-3.657c-.061-.544.467-1.157.745-1.73a22.568,22.568,0,0,0,2.124-11.649,16.54,16.54,0,0,0-.9-4.263,3.031,3.031,0,0,0-3.868-1.794,13.193,13.193,0,0,0-5.211,2.937c-1.353,1.248-1.482,1.236-2.478-.041-1.238-.734-2.5-1.411-3.79-2.058-.676-.34-1.388-.561-2.079-.845-.306-.125-.766-.246-.219-.741M16.068,54.6A33.307,33.307,0,0,1,19.05,44.315a1.691,1.691,0,0,0,.192-1.4,2.568,2.568,0,0,1,2.484-3.212c6.646-.384,12.4,4.777,16.478,9.44.173.2.415.457.331.673s-.429.209-.687.265A29.572,29.572,0,0,0,31.806,52.2c-.749.566-1.226,1.084-2.016.065-1.85-2.467-7.212-6.814-9.31-2.556a18.257,18.257,0,0,0-1.858,7.482,25.2,25.2,0,0,0,.6,6.94,15.6,15.6,0,0,0,.748,2.325,1.917,1.917,0,0,1-.036,1.746c-.377.814-.719,1.642-1.16,2.66a27.764,27.764,0,0,1-2.7-16.259M61.722,90.842c-2.958-2.531-7.11-5.423-10.9-3.133a5.742,5.742,0,0,0-6.489-.53c-15.037-3.911-9.86,9.978-27.14-4.584-1.185-1.332-2.172-2.5-2.934-3.389,9.073-7.679,7.668-22.008,20.753-25.779,32.82-7.7,35.746,8.382,47.746,32.616-7.488-.548-13.693,11.156-21.037,4.8" transform="translate(0 0)" fill="#fff"/>
    <path id="Tracé_1206" data-name="Tracé 1206" d="M50.331,99.552c-.049,3.185,3.291,3.113,5.437,4.265,4.147,1.869,1.976-5.062.113-6.5-2.042-1.833-5.843-.768-5.551,2.231" transform="translate(-17.745 -34.005)" fill="#fff"/>
    <path id="Tracé_1207" data-name="Tracé 1207" d="M86.85,105.689a12.579,12.579,0,0,1,3.017-.523c2.769-.027,4.244-4.536,1.527-6.026-3.727-3.226-10.255,7.964-4.544,6.549" transform="translate(-29.837 -34.758)" fill="#fff"/>
    <path id="Tracé_1208" data-name="Tracé 1208" d="M39.75,124.339c.335.137.5-.129.7-.368.215-.263.531-.441.77-.687,2.568-2.646,8.078-2.3,10.008,1.418.114.219.216.449.5.331.255-.1.575-.183.562-.573a3.639,3.639,0,0,0-.016-.785c-.844-3.162-2.875-5.305-6.465-5.266a5.608,5.608,0,0,0-4.155,1.515,6.3,6.3,0,0,0-2.16,3.575c-.061.3-.128.683.258.84" transform="translate(-13.911 -41.755)" fill="#573432"/>
    <path id="Tracé_1209" data-name="Tracé 1209" d="M87.107,126.065c-.067.292-.256.746.156.934a.8.8,0,0,0,.983-.358,5.668,5.668,0,0,1,1.663-1.513,6.713,6.713,0,0,1,8.961,2.128c.19.258.26.6.683.452s.324-.5.34-1a5.421,5.421,0,0,0-1.268-3.093,6.57,6.57,0,0,0-11.518,2.449" transform="translate(-30.685 -42.733)" fill="#573432"/>
    <path id="Tracé_1210" data-name="Tracé 1210" d="M118.7,83.635c-.306-1.213-.9-1.488-2.139-1.115a12.825,12.825,0,0,0-4.716,2.89c-.453.4-.159.626.109.912a20.6,20.6,0,0,1,4.215,6.962q.644,1.718,1.293,3.433l.229-.011a35.137,35.137,0,0,0,1.47-5.654,19.158,19.158,0,0,0-.462-7.418" transform="translate(-39.362 -29.049)" fill="#573432"/>
    <path id="Tracé_1211" data-name="Tracé 1211" d="M30.974,87.325c.074,1.4-.088,2.85.845,4.129.753-1.5,1.4-2.989,2.274-4.363A22.006,22.006,0,0,1,38.939,81.5c.247-.195.324-.364.1-.646a12.339,12.339,0,0,0-4.714-3.811,1.24,1.24,0,0,0-1.83.744,17.738,17.738,0,0,0-1.557,9.3,1.515,1.515,0,0,1,.056.154c.005.024-.012.054-.018.081" transform="translate(-10.883 -27.113)" fill="#573432"/>
    <path id="Tracé_1212" data-name="Tracé 1212" d="M74.313,137.793a3.568,3.568,0,0,1-6.459-.41,2.179,2.179,0,0,1-.126-.378c-.572-2.554,3.866-2.958,5.951-1.682a1.852,1.852,0,0,1,.634,2.47" transform="translate(-23.868 -47.478)" fill="#573432"/>
    <path id="Tracé_1213" data-name="Tracé 1213" d="M111.265,49.419a40.805,40.805,0,0,0-3.631-12.238,44.06,44.06,0,0,0-11.8-15.221,43.256,43.256,0,0,0-23.677-9.9,42.643,42.643,0,0,0-7.552-.043,42.17,42.17,0,0,0-10.824,2.156A43.43,43.43,0,0,0,29.091,35.235c-.133.245-.374.478-.212.851.569-.2.8-.744,1.155-1.135A43.877,43.877,0,0,1,52.178,21.443a48.386,48.386,0,0,1,10-1.307c1.122-.05,2.245.1,3.365.144a40.377,40.377,0,0,1,10.566,1.882,32.031,32.031,0,0,1,3.422,1.267c15.3,6.8,24.316,18.447,26.741,35.048a38.2,38.2,0,0,1,.24,8.4,53.568,53.568,0,0,1-1.333,8.38,50.315,50.315,0,0,1-2.033,5.984c-.054.118-.109.236-.163.353l-.19.215a.217.217,0,0,0,.335-.089l.225-.316-.005,0,.005,0c.1-.113.2-.217.286-.338a43.572,43.572,0,0,0,8.032-23.244,45.673,45.673,0,0,0-.408-8.4" transform="translate(-10.166 -4.189)" fill="#fff"/>
    <path id="Tracé_1214" data-name="Tracé 1214" d="M28.363,49.851c.2-.156.379-.272.278-.6-.265.134-.407.271-.278.6" transform="translate(-9.986 -17.371)" fill="#fff"/>
  </g>
</svg>
