<svg id="Groupe_1397" data-name="Groupe 1397" xmlns="http://www.w3.org/2000/svg" xmlns:xlink="http://www.w3.org/1999/xlink" width="100.885" height="130" viewBox="0 0 100.885 130">
  <defs>
    <clipPath id="clip-path">
      <rect id="Rectangle_374" data-name="Rectangle 374" width="100.885" height="130" fill="none"/>
    </clipPath>
  </defs>
  <g id="Groupe_1396" data-name="Groupe 1396" clip-path="url(#clip-path)">
    <path id="Tracé_1246" data-name="Tracé 1246" d="M119,197.959c2.582,11.792,3.014,13.692-1.07,22.383-2.817,5.994-5.228-8.678-6.649-12.509-.627-8.254-.747-19.487-9.969-22.489-2.845,10.781-17.135,11.135-22.813,2.434-4.582-7.666,8.41-14.175-.589-22.459-3.046-2.86-3.7-6.341-2.874-10.265,1.276-4.951,4.307-15.394,11.133-12.477,8.871,2.325,17.648-20.04,26.573-19.271,7.3.228,17.537,4.488,14.721,16.15-.737,3.536,11.8,7.087,15.436,7.432,7.231.685,6.5,18.9,1.572,25.441-4.929,6.341-14.234,18.334-20.724,11.005-5.866,9.18-8.473,4.627-4.746,14.623m-8.638-26.517c3.2,8.079,6.353-1.008,8.86-4.284-5.212-2.975-8.589,3.012-12.851,5.282.65,3.273-.152,9.175,4.5,9.967,1.317.305,1.858-.3,1.6-1.442-.6-3.4-3.517-5.63-2.109-9.523m-4.676,10.327c-4.425-2.368-4.933-2.907-4.705-4.259l3.187-.048c-.653-2.823.266-6.5-4.09-5.313-2.2,1.068-6.369,6.616-3.657,8.946,1.565,1.485,8.264,3.586,9.266.674" transform="translate(-64.028 -105.667)" fill="#e07d05"/>
    <path id="Tracé_1247" data-name="Tracé 1247" d="M211.532,90.43a40.536,40.536,0,0,0-3.607-12.158A43.774,43.774,0,0,0,196.2,63.151a42.971,42.971,0,0,0-23.523-9.831,42.357,42.357,0,0,0-7.5-.043,41.9,41.9,0,0,0-10.753,2.142A43.143,43.143,0,0,0,129.9,76.338c-.132.244-.371.475-.211.845.565-.2.8-.739,1.147-1.127a43.593,43.593,0,0,1,22-13.418,48.1,48.1,0,0,1,9.935-1.3c1.115-.049,2.23.1,3.343.144a40.114,40.114,0,0,1,10.5,1.87,31.971,31.971,0,0,1,3.4,1.259c15.2,6.761,24.157,18.327,26.567,34.819a37.954,37.954,0,0,1,.239,8.344,53.2,53.2,0,0,1-1.324,8.326,49.777,49.777,0,0,1-2.02,5.944h0l-.162.351-.189.214a.215.215,0,0,0,.333-.089h0l.223-.314-.005,0,.005,0c.1-.111.2-.216.285-.336a43.287,43.287,0,0,0,7.979-23.092,45.344,45.344,0,0,0-.4-8.349" transform="translate(-111.104 -45.539)" fill="#fff"/>
    <path id="Tracé_1248" data-name="Tracé 1248" d="M127.383,221.905c.2-.155.377-.27.277-.593-.263.133-.4.269-.277.593" transform="translate(-109.136 -189.681)" fill="#fff"/>
    <path id="Tracé_1249" data-name="Tracé 1249" d="M545.86,643.587A9.232,9.232,0,0,0,543.525,645a3.823,3.823,0,0,0,2.335-1.412" transform="translate(-465.842 -551.603)" fill="#fff"/>
    <path id="Tracé_1250" data-name="Tracé 1250" d="M561.864,643.092l.031-.034-.048-.009Z" transform="translate(-481.545 -551.142)" fill="#fff"/>
    <path id="Tracé_1251" data-name="Tracé 1251" d="M28.729,320.216a46.8,46.8,0,0,0,7.32,21.73A48.079,48.079,0,0,1,28.6,316.162a48.78,48.78,0,0,1,.319-5.547,45.362,45.362,0,0,0-.187,9.6" transform="translate(-24.48 -266.221)" fill="#fff"/>
    <path id="Tracé_1252" data-name="Tracé 1252" d="M12.312,76.86l-.05-.073-.022-.033q-.121-.181-.24-.363-.218-.332-.431-.665A46.8,46.8,0,0,1,4.249,54a45.363,45.363,0,0,1,.187-9.6A48.3,48.3,0,0,1,26.7,9.048a49.562,49.562,0,0,1,5.715-3.306A50,50,0,0,1,52.854.337c.183-.007.406.062.614-.258C53.13.047,52.859,0,52.588,0c-1.678.015-3.352.023-5.033.128A47.921,47.921,0,0,0,37.043,1.893,50.826,50.826,0,0,0,.157,47.038,46.118,46.118,0,0,0,.735,59.085a54.819,54.819,0,0,0,2.831,10.2,50.1,50.1,0,0,0,6.723,12c.052.068.1.137.155.205a50.861,50.861,0,0,0,14.906,13.12,50.024,50.024,0,0,0,12.487,5.139c.513.135,1.028.264,1.547.384a1.279,1.279,0,0,1,1.058.893q4.954,13.6,9.937,27.183c.215.588.448,1.169.686,1.788a1.248,1.248,0,0,0,.429-.773q4.9-14.059,9.775-28.127a1.5,1.5,0,0,1,.433-.707,1.458,1.458,0,0,1,.619-.28,49.892,49.892,0,0,0,12.62-4.8c.341-.186.944-.324.67-.841-.251-.473-.688,0-.987.126A52.582,52.582,0,0,1,58.077,98.52a51.617,51.617,0,0,1-21.129-2.8A48.429,48.429,0,0,1,12.312,76.86" transform="translate(0 0)" fill="#fff"/>
    <path id="Tracé_1253" data-name="Tracé 1253" d="M83.959,534.484q.119.182.24.363c-.081-.121-.161-.242-.24-.363" transform="translate(-71.959 -458.093)" fill="#fff"/>
    <path id="Tracé_1254" data-name="Tracé 1254" d="M80.945,529.828q.213.334.431.665c-.145-.221-.29-.442-.431-.665" transform="translate(-69.376 -454.103)" fill="#fff"/>
    <path id="Tracé_1255" data-name="Tracé 1255" d="M85.71,537.13l-.072-.107.022.033.05.073" transform="translate(-73.398 -460.27)" fill="#fff"/>
    <path id="Tracé_1256" data-name="Tracé 1256" d="M31.035,98.653c.122-.912.277-1.822.473-2.73A49.972,49.972,0,0,1,35.877,82.95a51.236,51.236,0,0,1,3.413-5.82,53.625,53.625,0,0,1,3.638-4.7A54.49,54.49,0,0,1,53.3,63.307,48.3,48.3,0,0,0,31.035,98.653" transform="translate(-26.599 -54.259)" fill="#fff"/>
  </g>
</svg>
