<svg id="Groupe_1399" data-name="Groupe 1399" xmlns="http://www.w3.org/2000/svg" xmlns:xlink="http://www.w3.org/1999/xlink" width="92.32" height="130" viewBox="0 0 92.32 130">
  <defs>
    <clipPath id="clip-path">
      <rect id="Rectangle_375" data-name="Rectangle 375" width="92.32" height="130" fill="none"/>
    </clipPath>
  </defs>
  <g id="Groupe_1398" data-name="Groupe 1398" clip-path="url(#clip-path)">
    <path id="Tracé_1257" data-name="Tracé 1257" d="M204.579,87.264a37.1,37.1,0,0,0-3.3-11.126A40.057,40.057,0,0,0,190.55,62.3a39.323,39.323,0,0,0-21.526-9,38.759,38.759,0,0,0-6.866-.039,38.347,38.347,0,0,0-9.84,1.96,39.48,39.48,0,0,0-22.446,19.142c-.1.185-.267.361-.238.609a.133.133,0,0,0,.193.1c.414-.218.615-.647.9-.967a39.893,39.893,0,0,1,20.131-12.279,44.009,44.009,0,0,1,9.092-1.188c1.02-.045,2.041.092,3.059.132a36.713,36.713,0,0,1,9.606,1.711,29.232,29.232,0,0,1,3.112,1.152c13.91,6.187,22.106,16.771,24.311,31.863a34.729,34.729,0,0,1,.218,7.636,48.7,48.7,0,0,1-1.212,7.619,45.58,45.58,0,0,1-1.848,5.44h0l-.14.3a.129.129,0,0,1-.021.032l-.16.181a.2.2,0,0,0,.305-.081h0l.2-.287,0,0,0,0c.087-.1.183-.2.26-.307a39.613,39.613,0,0,0,7.3-21.132,41.5,41.5,0,0,0-.371-7.64" transform="translate(-112.677 -46.184)" fill="#fff"/>
    <path id="Tracé_1258" data-name="Tracé 1258" d="M127.716,222.524l.011-.016c.091-.142-.131-.281-.225-.14l-.012.019a.133.133,0,0,0,.226.137" transform="translate(-110.8 -193.233)" fill="#fff"/>
    <path id="Tracé_1259" data-name="Tracé 1259" d="M547.726,646.291a6.717,6.717,0,0,0-.935.531.133.133,0,0,0,.122.233,3.578,3.578,0,0,0,.953-.54.133.133,0,0,0-.14-.224" transform="translate(-475.227 -561.75)" fill="#fff"/>
    <path id="Tracé_1260" data-name="Tracé 1260" d="M561.862,643.089l.028-.031-.044-.008Z" transform="translate(-488.363 -558.946)" fill="#fff"/>
    <path id="Tracé_1261" data-name="Tracé 1261" d="M28.715,319.4a42.824,42.824,0,0,0,6.7,19.885,44,44,0,0,1-6.819-23.595,44.638,44.638,0,0,1,.292-5.076,41.51,41.51,0,0,0-.171,8.786" transform="translate(-24.826 -269.991)" fill="#fff"/>
    <path id="Tracé_1262" data-name="Tracé 1262" d="M68.288,86.567a48.122,48.122,0,0,1-15.142,3.588,47.234,47.234,0,0,1-19.335-2.565A44.318,44.318,0,0,1,11.267,70.335l-.046-.067-.02-.03q-.111-.166-.22-.332-.2-.3-.394-.609a42.822,42.822,0,0,1-6.7-19.885,41.5,41.5,0,0,1,.171-8.786A44.2,44.2,0,0,1,24.433,8.28a45.375,45.375,0,0,1,5.229-3.025A45.756,45.756,0,0,1,48.367.308,1.645,1.645,0,0,0,48.622.3a.133.133,0,0,0-.006-.263A3.918,3.918,0,0,0,48.123,0c-1.536.013-3.068.021-4.606.117A43.859,43.859,0,0,0,33.9,1.732,46.511,46.511,0,0,0,.143,43.044,42.208,42.208,0,0,0,.673,54.068,50.176,50.176,0,0,0,3.263,63.4,45.838,45.838,0,0,0,9.415,74.386c.047.063.094.126.142.188A46.538,46.538,0,0,0,23.2,86.58a54.641,54.641,0,0,0,11.427,4.7c3.149.98,16.1,2.026,22.406.331a52,52,0,0,0,11.548-4.393c.312-.17.864-.3.613-.769-.23-.433-.63,0-.9.115" transform="translate(0 0)" fill="#fff"/>
    <path id="Tracé_1263" data-name="Tracé 1263" d="M85.7,537.121l-.066-.1.02.03.046.067" transform="translate(-74.437 -466.786)" fill="#fff"/>
    <path id="Tracé_1264" data-name="Tracé 1264" d="M31.035,95.653c.112-.834.254-1.668.433-2.5a45.729,45.729,0,0,1,4-11.872,46.889,46.889,0,0,1,3.124-5.326,49.075,49.075,0,0,1,3.329-4.3,49.864,49.864,0,0,1,9.491-8.347A44.2,44.2,0,0,0,31.035,95.653" transform="translate(-26.976 -55.028)" fill="#fff"/>
    <path id="Tracé_1265" data-name="Tracé 1265" d="M266.464,727.234l-.312,4c2.6,1.207,3.643,3.417,3.344,6.471-.635,6.493-1.044,11.684-1.634,18.18-.272,3-1.99,5.211-4.772,5.68a15.01,15.01,0,0,1-7.263-.469,5.288,5.288,0,0,1-3.41-5.722c.575-6.82,1.056-12.33,1.7-19.147a6,6,0,0,1,4.121-5.312c.2-.079.475-.315.5-.5.148-1.173.234-2.351.343-3.55Z" transform="translate(-219.382 -631.799)" fill="#fff"/>
    <path id="Tracé_1266" data-name="Tracé 1266" d="M148.7,222.159c-7.01,3.76-11.718,9.329-13.786,16.961a26.381,26.381,0,0,0,3.343,21.571c-6.855-3.058-12.764-12.387-10.506-22.505,2.486-11.137,12.92-16.873,20.949-16.027" transform="translate(-110.616 -193.032)" fill="#e07d05"/>
  </g>
</svg>
