<svg xmlns="http://www.w3.org/2000/svg" xmlns:xlink="http://www.w3.org/1999/xlink" width="99.869" height="130" viewBox="0 0 99.869 130">
  <defs>
    <clipPath id="clip-path">
      <rect id="Rectangle_376" data-name="Rectangle 376" width="99.869" height="130" fill="none"/>
    </clipPath>
  </defs>
  <g id="Groupe_1388" data-name="Groupe 1388" transform="translate(734.189 639.277)">
    <g id="Groupe_1401" data-name="Groupe 1401" transform="translate(-734.189 -639.277)" clip-path="url(#clip-path)">
      <path id="Tracé_1268" data-name="Tracé 1268" d="M277.082,250.472,265.1,235.487h8.956V211.521h6v23.912h9.053l-12.028,15.038" transform="translate(-227.589 -181.594)" fill="#e07d05"/>
      <path id="Tracé_1269" data-name="Tracé 1269" d="M210.707,90.054a40.132,40.132,0,0,0-3.571-12.035A43.333,43.333,0,0,0,195.531,63.05a42.539,42.539,0,0,0-23.286-9.732,41.929,41.929,0,0,0-7.427-.042A41.482,41.482,0,0,0,154.174,55.4,42.709,42.709,0,0,0,129.893,76.1c-.108.2-.289.391-.258.659a.144.144,0,0,0,.209.108c.447-.236.666-.7.976-1.046A43.155,43.155,0,0,1,152.6,62.541a47.607,47.607,0,0,1,9.835-1.286c1.1-.048,2.208.1,3.309.142a39.715,39.715,0,0,1,10.391,1.851A31.62,31.62,0,0,1,179.5,64.5c15.047,6.693,23.914,18.142,26.3,34.469a37.569,37.569,0,0,1,.236,8.26,52.682,52.682,0,0,1-1.311,8.242,49.309,49.309,0,0,1-2,5.884h0l-.152.328a.141.141,0,0,1-.023.035l-.173.2a.213.213,0,0,0,.33-.088h0l.221-.311-.005,0,.005,0c.094-.11.2-.214.282-.332a42.852,42.852,0,0,0,7.9-22.859,44.9,44.9,0,0,0-.4-8.265" transform="translate(-111.291 -45.615)" fill="#fff"/>
      <path id="Tracé_1270" data-name="Tracé 1270" d="M283.685,717.235a.143.143,0,0,0-.157.19q4.86,13.338,9.749,26.666c.19.519.394,1.032.6,1.572a.144.144,0,0,0,.241.045,1.613,1.613,0,0,0,.26-.611q4.8-13.763,9.57-27.534a.142.142,0,0,0-.164-.186c-6.618,1.388-14.509.772-20.1-.141" transform="translate(-243.405 -615.756)" fill="#fff"/>
      <path id="Tracé_1271" data-name="Tracé 1271" d="M73.872,93.646a52.056,52.056,0,0,1-16.38,3.882,51.1,51.1,0,0,1-20.916-2.775A47.942,47.942,0,0,1,12.188,76.086l-.05-.073-.022-.033q-.12-.179-.238-.359-.216-.329-.427-.659A46.325,46.325,0,0,1,4.206,53.452a44.9,44.9,0,0,1,.185-9.5,47.816,47.816,0,0,1,22.04-34.99,49.085,49.085,0,0,1,5.657-3.273A49.5,49.5,0,0,1,52.322.333,1.78,1.78,0,0,0,52.6.326a.144.144,0,0,0-.006-.285A4.238,4.238,0,0,0,52.058,0C50.4.015,48.739.023,47.075.127A47.446,47.446,0,0,0,36.67,1.874,50.314,50.314,0,0,0,.155,46.564,45.66,45.66,0,0,0,.728,58.49a54.279,54.279,0,0,0,2.8,10.1,49.586,49.586,0,0,0,6.655,11.881c.051.068.1.136.153.2A50.344,50.344,0,0,0,25.094,93.66a59.109,59.109,0,0,0,12.361,5.087c3.407,1.06,17.413,2.192,24.239.358a56.248,56.248,0,0,0,12.493-4.752c.337-.184.934-.32.663-.832-.248-.468-.681,0-.977.125" transform="translate(0 0)" fill="#fff"/>
    </g>
    <path id="Tracé_1267" data-name="Tracé 1267" d="M219.112,471.386v-5.411h5.433V476.9H180.557V465.977h5.416v5.409Z" transform="translate(-886.806 -1033.04)" fill="#e07d05"/>
  </g>
</svg>
