<svg width="4024" height="340" viewBox="0 0 4024 340" fill="none" xmlns="http://www.w3.org/2000/svg">
<path d="M0.64003 246.71V339.56H2054.31V337.5H4023.51V276.82H3930.66V174.22H3918.74L3907.49 132.98V122.01H3899.9V93.44H3903.24V90.39H3899.9V73.39H3900.59V68.09H3878.26V133.18L3868.34 181.04H3867.05V276.81H3835.01V245.2H3842.08V240.81H3838.42V233.85H3804.06V240.81H3751.66V247.88H3753.61V276.81H3649.9L3670.37 241.72H3610.91V156.31H3605.06V167.88H3594.58V157.64H3586.38L3573.67 118.89H3574.23V111.58H3571.58V108.75H3563.81V111.58H3558.14V108.75H3555.22V111.58H3546.72V118.89H3547.56L3547.53 119L3515.18 167.88H3504.43V156.31H3498.58V167.88H3488.1V157.64H3479.9L3467.19 118.89H3467.75V111.58H3465.1V108.75H3457.33V111.58H3451.66V108.75H3448.74V111.58H3440.24V118.89H3441.08L3441.05 119L3408.7 167.88H3389.15V172.75H3424.12V177.99H3428.99V209.18H3401.31V215.03H3375.36V209.87H3372.8V215.03H3365.12V219.42H3372.8V241.72H3343.19V216.75L3351.6 221.25V217.23L3343.19 213.17V191.27H3338.07V210.7L3320.16 202.06H3315.77L3338.07 214V241.72H3315.04V230.02H3290.91V242.45H3282.14V228.56H3253.63V239.6L3234.26 209.71V169.38H3245.1V167.55H3239.74V145.7H3231.39L3193.9 108.59L3189.01 103.76L3188.96 103.71L3189.39 103.69L3188.94 92.82L3179.59 93.2L3177.3 37.63L3179.65 37.53L3179.42 31.92L3177.07 32.02L3176.46 17.3L3178.81 17.2L3178.12 0.469971L3155.96 1.37997L3156.01 2.51996H3155.9L3159.73 95.58H3159.41L3161.68 150.9H3151.12L3113.03 113.2V107.4H3105.9V104.42H3102.93L3102.88 103.18V99.8H3097.46V104.42H3095.12V107.23L3095.07 107.41H3088.26V115.92L3037.68 163.35H3017.98V150.92H3002.15L2964.06 113.22V107.42H2956.93V104.44H2953.96L2953.91 103.2V99.82H2948.49V104.44H2946.15V107.25L2946.1 107.43H2939.29V115.94L2920.91 133.17L2898.89 111.37V105.57H2891.76V102.59H2888.79L2888.74 101.35V97.97H2883.32V102.59H2880.98V105.4L2880.93 105.58H2874.12V114.09L2823.54 161.52H2803.84V165.91H2843.5V169.02H2862.14V211.9H2854.51V218.86H2802.11V225.93H2804.06V242.03C2792.97 242.05 2781.73 242.06 2770.62 242.07V223.25H2777.69V218.86H2774.03V211.9H2739.67V218.86H2728.54L2727 216.88V173.04H2743.08V163.72H2738.51V161.53H2732.48V149.1H2716.65L2678.56 111.4V105.6H2671.43V102.62H2668.46L2668.41 101.38V98H2662.99V102.62H2660.65V105.43L2660.6 105.61H2653.79V114.12L2603.21 161.55H2583.51V165.94H2592.04V204.76C2591.46 205.31 2589.66 207.13 2589.73 208.18C2589.8 209.3 2591.42 210.84 2592.04 211.61V230.1H2592.65V211.76C2593.45 211.06 2594.97 208.38 2594.97 207.88C2594.97 207.38 2593.42 205.79 2592.65 205.01V165.95H2623.17V169.06H2641.81V240.46C2633.75 237.65 2631.39 231.57 2631.39 231.57L2563.4 232.3L2578.02 252.77H2542.2V241.8H2517.34V252.04H2500.28V223.28H2507.35V218.89H2503.69V211.93H2469.33V218.89H2416.93V225.96H2418.88V233.21L2416.83 225.7L2411.03 214.88L2409.69 215.11L2392.88 190.3C2394.81 189.71 2395.94 189.01 2395.94 188.26V185.97C2395.94 185.46 2395.42 184.97 2394.48 184.52L2395.04 182.23V173.66V172.61L2392.69 171.47H2388.63L2386.85 171.65V170.42L2386.66 168.77L2386.85 166.95L2386.74 166.07C2387.3 166.82 2388.34 167.88 2388.98 166.53C2389.9 164.6 2390.42 164.75 2390.42 164.75C2390.42 164.75 2392.2 164.83 2391.84 162.88C2391.47 160.93 2390.87 157.48 2390.87 157.48C2392.83 152.94 2393.32 151.81 2395.18 144.57L2396.49 144.31L2396.53 139.57L2396.47 139.54C2396.8 138.24 2397.15 136.81 2397.55 135.21C2400.63 122.9 2407.34 89.45 2410.38 74.12L2421.58 115.82C2421.49 115.82 2421.4 115.85 2421.32 115.88L2421.25 115.92L2420.66 116.21C2420.02 116.5 2419.91 117.65 2420.41 118.77C2420.92 119.89 2421.85 120.56 2422.49 120.27L2422.56 120.23L2423.06 119.98L2424.69 149.49V150.09L2425.64 150.24V150.64L2424.69 151.27V152.14L2424.86 152.11L2425.08 168.67L2425.16 168.59C2425.03 168.73 2424.9 168.89 2424.79 169.04C2424.69 169.18 2424.6 169.33 2424.53 169.47C2424.5 169.52 2424.47 169.57 2424.45 169.62C2424.39 169.74 2424.39 169.93 2424.41 170.15C2424.44 170.36 2424.5 170.62 2424.59 170.88C2424.7 171.19 2424.84 171.53 2425 171.87C2425.17 172.21 2425.36 172.55 2425.56 172.84C2425.85 173.27 2426.14 173.6 2426.41 173.76C2426.41 173.76 2426.35 174.16 2426.43 174.31C2426.51 174.46 2426.93 174.49 2426.97 174.91C2427.01 175.33 2426.86 175.43 2426.65 175.42C2426.44 175.41 2426.33 175.43 2426.26 175.06C2426.19 174.69 2426.21 174.8 2426.19 174.74C2426.16 174.68 2425.96 174.75 2425.96 174.84C2425.96 174.93 2425.65 176.23 2426.63 176.28C2427.62 176.33 2427.79 175.37 2427.72 174.81C2427.64 174.25 2427.11 174.2 2427.11 174.01C2427.11 173.82 2427.09 173.73 2427.09 173.73H2427.07C2427.07 173.73 2427.16 173.68 2427.2 173.65C2427.34 173.54 2427.48 173.39 2427.62 173.22C2427.75 173.05 2427.88 172.87 2428.01 172.66C2428.11 172.49 2428.21 172.31 2428.31 172.12C2428.42 171.91 2428.51 171.68 2428.6 171.46C2428.66 171.3 2428.72 171.14 2428.77 170.98C2428.83 170.78 2428.88 170.58 2428.92 170.39C2428.96 170.19 2428.98 170 2428.99 169.82C2428.99 169.77 2428.99 169.72 2428.99 169.67C2428.99 168.96 2427.55 167.72 2426.7 167.72C2426.39 167.72 2426.06 167.86 2425.75 168.08C2425.57 168.21 2425.4 168.36 2425.23 168.53L2425.41 168.34L2425.37 152.02L2427.24 151.64L2427.65 168.03L2428.06 168.34L2427.8 151.53L2427.67 150.83L2426.57 150.63L2426.72 149.81L2427.79 149.14C2427.79 149.14 2427.75 149.07 2427.7 148.99L2427.45 118.27C2427.72 117.77 2427.69 116.93 2427.31 116.1C2427.22 115.91 2427.12 115.74 2427.02 115.58L2427.06 115.64L2421.39 93.14C2418.97 79.86 2416.33 65.91 2416.02 65.1C2415.6 64 2411.77 55.22 2409.57 50.19H2409.75V49.94L2409.8 49.92L2409.75 49.89V46.38C2409.75 46.38 2409.73 46.3 2409.7 46.27C2409.09 45.7 2405.98 42.85 2405.24 42.93C2404.75 42.98 2397.72 46.44 2397.72 47.07C2397.72 47.23 2397.96 47.57 2398.28 47.97C2397.88 48.21 2397.59 48.42 2397.46 48.55C2397.41 48.6 2397.35 48.68 2397.36 48.78C2397.43 49.24 2398.39 50.2 2398.58 50.38C2398.61 50.41 2398.65 50.43 2398.69 50.43C2398.69 50.43 2398.7 50.43 2398.71 50.43L2398.28 50.65L2399.49 52.04C2399.2 52.63 2399.61 53.56 2400.49 54.23C2400.93 54.57 2401.42 54.78 2401.88 54.85L2401.59 55.36C2401.4 55.04 2401.12 54.73 2400.76 54.45C2399.8 53.72 2398.7 53.6 2398.26 54.17C2398.15 54.32 2398.09 54.49 2398.08 54.69C2396.12 55.59 2391.24 58.16 2391.24 58.7C2391.24 58.87 2391.48 59.23 2391.81 59.64C2391.41 59.89 2391.11 60.11 2390.98 60.24C2390.93 60.3 2390.86 60.38 2390.88 60.48C2390.94 60.94 2391.83 61.87 2392.08 62.12L2390.88 62.73L2393.15 65.33C2392.98 65.27 2392.81 65.22 2392.65 65.2C2392.17 65.14 2391.78 65.26 2391.56 65.55C2391.12 66.13 2391.52 67.15 2392.48 67.89C2393.01 68.29 2393.57 68.5 2394.05 68.52L2393.66 69.2C2393.47 68.81 2393.15 68.42 2392.74 68.11C2392.29 67.77 2391.79 67.55 2391.33 67.49C2390.84 67.43 2390.46 67.55 2390.24 67.84C2389.8 68.42 2390.2 69.44 2391.16 70.18C2391.69 70.58 2392.25 70.79 2392.73 70.81L2392.35 71.48C2392.17 71.1 2391.86 70.72 2391.43 70.39C2390.98 70.05 2390.48 69.83 2390.02 69.77C2389.54 69.71 2389.15 69.83 2388.93 70.12C2388.71 70.41 2388.69 70.81 2388.88 71.26C2389.06 71.69 2389.4 72.11 2389.85 72.45C2390.38 72.85 2390.94 73.06 2391.42 73.08L2391.03 73.75C2390.84 73.36 2390.52 72.98 2390.11 72.66C2389.15 71.93 2388.05 71.81 2387.61 72.38C2387.39 72.67 2387.38 73.07 2387.56 73.52C2387.74 73.95 2388.08 74.37 2388.53 74.71C2389.06 75.11 2389.62 75.32 2390.1 75.34L2389.71 76.01C2389.52 75.62 2389.2 75.24 2388.79 74.92C2387.83 74.19 2386.73 74.07 2386.29 74.65C2386.07 74.94 2386.05 75.34 2386.24 75.79C2386.42 76.22 2386.76 76.64 2387.21 76.98C2387.66 77.32 2388.16 77.54 2388.62 77.6C2388.68 77.6 2388.73 77.6 2388.78 77.61L2388.4 78.28C2388.22 77.9 2387.91 77.52 2387.48 77.19C2386.52 76.46 2385.42 76.34 2384.98 76.91C2384.54 77.48 2384.94 78.51 2385.9 79.25C2386.43 79.65 2386.99 79.86 2387.47 79.88L2387.08 80.55C2386.89 80.16 2386.57 79.78 2386.16 79.46C2385.71 79.12 2385.21 78.9 2384.75 78.84C2384.26 78.78 2383.88 78.9 2383.66 79.19C2383.44 79.48 2383.43 79.88 2383.61 80.33C2383.79 80.76 2384.13 81.18 2384.58 81.52C2385.03 81.86 2385.53 82.08 2385.99 82.14C2386.05 82.14 2386.1 82.14 2386.15 82.15L2385.77 82.82C2385.59 82.44 2385.28 82.06 2384.85 81.74C2383.89 81.01 2382.79 80.89 2382.35 81.46C2382.13 81.75 2382.11 82.15 2382.3 82.6C2382.48 83.03 2382.82 83.45 2383.27 83.79C2383.72 84.13 2384.22 84.35 2384.68 84.41C2384.74 84.41 2384.79 84.41 2384.84 84.42L2384.45 85.09C2384.26 84.7 2383.94 84.32 2383.53 84C2382.57 83.27 2381.47 83.15 2381.03 83.72C2380.59 84.3 2380.99 85.33 2381.95 86.06C2382.4 86.4 2382.9 86.62 2383.36 86.68C2383.42 86.68 2383.47 86.68 2383.52 86.69L2383.14 87.36C2382.96 86.98 2382.65 86.6 2382.22 86.28C2381.26 85.55 2380.16 85.43 2379.72 86.01C2379.5 86.3 2379.48 86.7 2379.67 87.15C2379.85 87.58 2380.19 88 2380.64 88.34C2381.09 88.68 2381.59 88.9 2382.05 88.96C2382.11 88.96 2382.16 88.96 2382.21 88.97L2381.83 89.64C2381.65 89.26 2381.34 88.88 2380.91 88.56C2379.95 87.83 2378.85 87.71 2378.41 88.28C2378.19 88.57 2378.17 88.97 2378.36 89.42C2378.54 89.85 2378.88 90.27 2379.33 90.61C2379.78 90.95 2380.28 91.17 2380.74 91.23C2380.8 91.23 2380.85 91.23 2380.9 91.24L2380.51 91.91C2380.32 91.52 2380 91.14 2379.59 90.82C2378.63 90.09 2377.53 89.97 2377.09 90.54C2376.87 90.83 2376.85 91.23 2377.04 91.68C2377.22 92.11 2377.56 92.53 2378.01 92.87C2378.46 93.21 2378.96 93.43 2379.42 93.49C2379.48 93.49 2379.53 93.49 2379.58 93.5L2379.2 94.17C2379.02 93.79 2378.71 93.41 2378.28 93.09C2377.32 92.36 2376.22 92.24 2375.78 92.81C2375.34 93.39 2375.74 94.41 2376.7 95.15C2377.23 95.55 2377.79 95.76 2378.27 95.78L2377.84 96.54C2377.66 96.13 2377.33 95.73 2376.9 95.4C2375.94 94.67 2374.84 94.55 2374.4 95.12C2374.18 95.41 2374.17 95.81 2374.35 96.26C2374.53 96.69 2374.87 97.11 2375.32 97.45C2375.77 97.79 2376.27 98.01 2376.73 98.07C2376.81 98.07 2376.88 98.08 2376.95 98.08L2375.79 100.11L2376.75 99.87L2379.22 99.26L2399.52 63.21L2401.72 62.37L2403.11 61.84H2403.27V57.85C2403.27 57.81 2403.25 57.76 2403.22 57.73C2403.13 57.65 2402.99 57.51 2402.82 57.35L2405.77 52.12C2405.77 52.12 2405.95 52.01 2406.21 51.85C2406.79 54.89 2407.75 58.4 2408.03 58.64C2408.44 58.99 2408.13 64.29 2408.05 65.62C2408.05 65.65 2408.03 65.69 2408.03 65.72C2407.52 66.02 2406.97 66.38 2406.61 66.69L2406.1 66.58C2406.1 66.58 2405.09 66.58 2404.8 67.39C2404.51 68.2 2405.06 69.24 2405.06 69.24L2405.58 69.42C2403.18 77.9 2394.54 108.54 2389.03 128.07L2388.63 112.52L2391.29 111.44L2388.55 109.62L2388.38 102.96L2389.71 102.56L2388.16 97.06L2366.82 102.59L2363.61 99.21L2360.46 99.58L2353.38 103.18V107.86L2353.68 108.76L2360.71 105.47H2360.72L2367.06 104.83L2360.71 105.47H2360.69L2353.67 108.76L2356.77 112.41H2356.99H2359.42L2364.3 110.2L2366.82 109.06L2366.95 107.26L2374.67 105.82V106.51L2373.9 106.83L2373.53 112.4L2371.11 112.03L2368.35 110.45L2365.9 111.67L2368.38 113.95L2373.38 114.74L2372.52 127.84C2370.4 126.81 2367.42 125.39 2367 125.34C2366.34 125.27 2366.4 125.19 2366.12 125.34C2366.12 125.34 2365.61 126.56 2366.12 126.82C2366.63 127.08 2369.68 128.47 2369.96 128.32C2370.1 128.25 2371.26 128.68 2372.41 129.14L2348.03 153.02L2351.88 150.78L2352.87 150.65L2362.36 140.93V141.36C2362.25 141.43 2362.24 141.48 2362.23 141.51C2362.21 141.59 2362.23 141.67 2362.31 141.72C2362.33 141.73 2362.34 141.74 2362.36 141.75V142.98H2362.52L2371.23 147.38L2371.03 150.48L2377.65 152.81L2384.7 155.29L2386.56 155.94L2366.47 148.88L2366.34 152.27L2366.32 152.8L2366.34 152.17L2366.47 148.88L2355.4 150.32L2351.87 150.78L2346.97 153.63L2344.82 154.47L2344.79 154.89L2341.57 156.77L2341.44 159.75L2341.38 161.24L2341.57 162.69L2341.25 164.26L2341.45 165.49L2341.12 167.24L2341.31 168.63L2340.98 170.43L2340.92 171.84L2340.66 177.95L2346.58 179.44L2362.48 183.45C2359.85 184.09 2358.28 184.91 2358.28 185.81V188.1C2358.28 188.81 2359.29 189.47 2361.02 190.04L2345.39 216.92L2344.48 215.95L2341.57 220.45L2339.1 226.97L2328.42 247.49H2297.8L2293.66 243.35V174.63H2296.1V172.19H2301.95V165.37H2296.1V156.24H2281.63L2233.77 115.42V113.48H2228.41V111.21H2225.49V106.88H2220.49V111.21H2217.44V113.48H2211.1V119.93L2195.38 132.87L2179 116.54V113.48H2173.64V111.21H2170.72V106.88H2165.72V111.21H2162.67V113.48H2156.33V119.93L2101.12 165.37H2074.81V172.19H2145.97V217.15H2111V223.53H2120.5V248.22H2087.23V213.13H2058.72V206.55H2044.83V217.15H2034.23L2029.48 221.9V244.56H1969.53V278.79H1961.14V176.19H1949.22L1937.97 134.95V123.98H1930.38V95.41H1933.72V92.36H1930.38V75.36H1931.07V70.06H1908.74V135.15L1898.82 183.01H1897.53V278.78H1865.49V247.17H1872.56V242.78H1868.9V235.82H1834.54V242.78H1782.14V249.85H1784.09V278.78H1680.38L1700.85 243.69H1641.39V158.28H1635.54V169.85H1625.06V159.61H1616.86L1604.15 120.86H1604.71V113.55H1602.06V110.72H1594.29V113.55H1588.62V110.72H1585.7V113.55H1577.2V120.86H1578.04L1578.01 120.97L1545.66 169.85H1534.91V158.28H1529.06V169.85H1518.58V159.61H1510.38L1497.67 120.86H1498.23V113.55H1495.58V110.72H1487.81V113.55H1482.14V110.72H1479.22V113.55H1470.72V120.86H1471.56L1471.53 120.97L1439.18 169.85H1419.63V174.72H1454.6V179.96H1459.47V211.15H1431.79V217H1405.84V211.84H1403.28V217H1395.6V221.39H1403.28V243.69H1373.67V218.72L1382.08 223.22V219.2L1373.67 215.14V193.24H1368.55V212.67L1350.64 204.03H1346.25L1368.55 215.97V243.69H1345.52V231.99H1321.39V244.42H1312.62V230.53H1284.11V241.57L1264.74 211.68V171.35H1275.58V169.52H1270.22V147.67H1261.87L1224.38 110.56L1219.49 105.73L1219.44 105.68L1219.87 105.66L1219.42 94.79L1210.07 95.17L1207.78 39.6L1210.13 39.5L1209.9 33.89L1207.55 33.99L1206.94 19.27L1209.29 19.17L1208.6 2.43997L1186.44 3.34998L1186.49 4.48996H1186.38L1190.21 97.55H1189.89L1192.17 152.87H1181.61L1143.52 115.17V109.37H1136.39V106.39H1133.43L1133.38 105.15V101.77H1127.96V106.39H1125.62V109.2L1125.57 109.38H1118.76V117.89L1068.18 165.32H1048.48V152.89H1032.65L994.56 115.19V109.39H987.43V106.41H984.46L984.41 105.17V101.79H978.99V106.41H976.65V109.22L976.6 109.4H969.79V117.91L951.41 135.14L929.39 113.34V107.54H922.26V104.56H919.29L919.24 103.32V99.94H913.82V104.56H911.48V107.37L911.43 107.55H904.62V116.06L854.04 163.49H834.34V167.88H874V170.99H892.64V213.87H885.01V220.83H832.61V227.9H834.56V244C823.47 244.02 812.23 244.03 801.12 244.04V225.22H808.19V220.83H804.53V213.87H770.17V220.83H759.04L757.5 218.85V175.01H773.58V165.69H769.01V163.5H762.98V151.07H747.15L709.06 113.37V107.57H701.93V104.59H698.96L698.91 103.35V99.97H693.49V104.59H691.15V107.4L691.1 107.58H684.29V116.09L633.71 163.52H614.01V167.91H622.54V206.73C621.96 207.28 620.16 209.1 620.23 210.15C620.3 211.27 621.92 212.81 622.54 213.58V232.07H623.15V213.73C623.95 213.03 625.47 210.35 625.47 209.85C625.47 209.35 623.92 207.76 623.15 206.98V167.92H653.67V171.03H672.31V242.43C664.25 239.62 661.89 233.54 661.89 233.54L593.9 234.27L608.52 254.74H572.7V243.77H547.84V254.01H530.78V225.25H537.85V220.86H534.19V213.9H499.83V220.86H447.43V227.93H449.38V235.18L447.33 227.67L441.53 216.85L440.19 217.08L423.38 192.27C425.31 191.68 426.44 190.98 426.44 190.23V187.94C426.44 187.43 425.92 186.94 424.98 186.49L425.54 184.2V175.63V174.58L423.19 173.44H419.13L417.35 173.62V172.39L417.16 170.74L417.35 168.92L417.24 168.04C417.8 168.79 418.84 169.85 419.48 168.5C420.4 166.57 420.92 166.72 420.92 166.72C420.92 166.72 422.7 166.8 422.33 164.85C421.96 162.9 421.36 159.45 421.36 159.45C423.32 154.91 423.81 153.78 425.67 146.54L426.98 146.28L427.02 141.54L426.96 141.51C427.29 140.21 427.64 138.78 428.04 137.18C431.12 124.87 437.83 91.42 440.88 76.09L452.08 117.79C451.99 117.79 451.9 117.82 451.81 117.85L451.74 117.89L451.15 118.18C450.51 118.47 450.4 119.62 450.9 120.74C451.4 121.86 452.34 122.53 452.98 122.24L453.05 122.2L453.55 121.95L455.18 151.46V152.06L456.13 152.21V152.61L455.18 153.23V154.1L455.35 154.07L455.56 170.63L455.64 170.55C455.51 170.69 455.38 170.85 455.27 171C455.17 171.14 455.08 171.29 455.01 171.43C454.98 171.48 454.95 171.53 454.93 171.58C454.87 171.7 454.86 171.89 454.89 172.11C454.92 172.32 454.98 172.58 455.07 172.84C455.18 173.15 455.32 173.49 455.48 173.83C455.65 174.17 455.84 174.51 456.04 174.8C456.33 175.23 456.62 175.56 456.89 175.72C456.89 175.72 456.83 176.12 456.91 176.27C456.99 176.42 457.41 176.45 457.45 176.87C457.49 177.29 457.34 177.39 457.13 177.38C456.92 177.37 456.81 177.39 456.74 177.02C456.67 176.65 456.69 176.76 456.67 176.7C456.64 176.64 456.44 176.71 456.44 176.8C456.44 176.89 456.13 178.19 457.11 178.24C458.1 178.29 458.27 177.33 458.2 176.77C458.13 176.21 457.59 176.16 457.59 175.97C457.59 175.78 457.57 175.69 457.57 175.69H457.55C457.55 175.69 457.64 175.64 457.68 175.61C457.82 175.5 457.96 175.36 458.1 175.18C458.23 175.01 458.36 174.83 458.49 174.62C458.59 174.45 458.69 174.27 458.79 174.08C458.9 173.87 458.99 173.64 459.08 173.42C459.14 173.26 459.2 173.1 459.25 172.94C459.31 172.74 459.36 172.54 459.4 172.35C459.44 172.15 459.46 171.96 459.47 171.78C459.47 171.73 459.47 171.68 459.47 171.63C459.47 170.92 458.03 169.68 457.18 169.68C456.87 169.68 456.54 169.82 456.23 170.04C456.05 170.17 455.88 170.32 455.71 170.49L455.89 170.3L455.85 153.98L457.72 153.6L458.13 169.99L458.54 170.3L458.28 153.49L458.15 152.79L457.05 152.59L457.2 151.77L458.27 151.1C458.27 151.1 458.23 151.03 458.18 150.95L457.93 120.23C458.2 119.73 458.17 118.89 457.79 118.06C457.7 117.87 457.6 117.7 457.5 117.54L457.54 117.6L451.87 95.1C449.45 81.82 446.81 67.87 446.5 67.06C446.08 65.96 442.25 57.18 440.05 52.15H440.23V51.9L440.28 51.88L440.23 51.85V48.34C440.23 48.34 440.21 48.26 440.18 48.23C439.57 47.66 436.46 44.81 435.72 44.89C435.23 44.94 428.2 48.4 428.2 49.03C428.2 49.19 428.44 49.53 428.76 49.93C428.36 50.17 428.07 50.38 427.94 50.51C427.89 50.56 427.83 50.64 427.84 50.74C427.91 51.2 428.87 52.16 429.06 52.34C429.09 52.37 429.13 52.39 429.17 52.39C429.17 52.39 429.18 52.39 429.19 52.39L428.76 52.61L429.97 54C429.68 54.59 430.09 55.52 430.97 56.19C431.41 56.53 431.9 56.75 432.36 56.81L432.07 57.32C431.88 57 431.6 56.69 431.24 56.41C430.28 55.68 429.18 55.56 428.74 56.13C428.63 56.28 428.57 56.45 428.56 56.65C426.6 57.55 421.72 60.12 421.72 60.66C421.72 60.83 421.96 61.19 422.29 61.6C421.89 61.85 421.59 62.07 421.46 62.2C421.41 62.26 421.34 62.34 421.36 62.44C421.42 62.9 422.31 63.83 422.56 64.08L421.36 64.69L423.63 67.29C423.46 67.23 423.29 67.18 423.13 67.16C422.65 67.1 422.26 67.22 422.04 67.51C421.6 68.09 422 69.11 422.96 69.85C423.49 70.25 424.05 70.46 424.53 70.48L424.14 71.16C423.95 70.77 423.63 70.39 423.22 70.07C422.77 69.73 422.27 69.51 421.81 69.45C421.32 69.39 420.94 69.51 420.72 69.8C420.28 70.38 420.68 71.4 421.64 72.14C422.17 72.54 422.73 72.75 423.21 72.77L422.83 73.44C422.65 73.06 422.34 72.68 421.91 72.35C421.46 72.01 420.96 71.79 420.5 71.73C420.02 71.67 419.63 71.79 419.41 72.08C419.19 72.37 419.18 72.77 419.36 73.22C419.54 73.65 419.88 74.07 420.33 74.41C420.86 74.81 421.42 75.02 421.9 75.04L421.52 75.71C421.33 75.32 421.01 74.94 420.6 74.62C419.64 73.89 418.54 73.77 418.1 74.34C417.88 74.63 417.87 75.03 418.05 75.48C418.23 75.91 418.57 76.33 419.02 76.67C419.55 77.07 420.11 77.28 420.59 77.3L420.2 77.97C420.01 77.58 419.69 77.2 419.28 76.88C418.32 76.15 417.22 76.03 416.78 76.61C416.56 76.9 416.54 77.3 416.73 77.75C416.91 78.18 417.25 78.6 417.7 78.94C418.15 79.28 418.65 79.5 419.11 79.56C419.17 79.56 419.22 79.56 419.27 79.57L418.89 80.24C418.71 79.86 418.4 79.48 417.97 79.15C417.01 78.42 415.91 78.3 415.47 78.87C415.03 79.45 415.43 80.47 416.39 81.21C416.92 81.61 417.48 81.82 417.96 81.84L417.57 82.51C417.38 82.12 417.06 81.74 416.65 81.42C416.2 81.08 415.7 80.86 415.24 80.8C414.76 80.74 414.37 80.86 414.15 81.15C413.93 81.44 413.92 81.84 414.1 82.29C414.28 82.72 414.62 83.14 415.07 83.48C415.52 83.82 416.02 84.04 416.48 84.1C416.54 84.1 416.59 84.1 416.64 84.11L416.26 84.78C416.08 84.4 415.77 84.02 415.34 83.7C414.38 82.97 413.28 82.85 412.84 83.42C412.62 83.71 412.61 84.11 412.79 84.56C412.97 84.99 413.31 85.41 413.76 85.75C414.21 86.09 414.71 86.31 415.17 86.37C415.23 86.37 415.28 86.37 415.33 86.38L414.94 87.05C414.75 86.66 414.43 86.28 414.02 85.96C413.06 85.23 411.96 85.11 411.52 85.68C411.08 86.26 411.48 87.28 412.44 88.02C412.89 88.36 413.39 88.58 413.85 88.64C413.91 88.64 413.96 88.64 414.01 88.65L413.63 89.32C413.45 88.94 413.14 88.56 412.71 88.24C411.75 87.51 410.65 87.39 410.21 87.97C409.99 88.26 409.98 88.66 410.16 89.11C410.34 89.54 410.68 89.96 411.13 90.31C411.58 90.65 412.08 90.87 412.54 90.93C412.6 90.93 412.65 90.93 412.7 90.94L412.32 91.61C412.14 91.23 411.83 90.85 411.4 90.53C410.44 89.8 409.34 89.68 408.9 90.25C408.68 90.54 408.67 90.94 408.85 91.39C409.03 91.82 409.37 92.24 409.82 92.58C410.27 92.92 410.77 93.14 411.23 93.2C411.29 93.2 411.34 93.2 411.39 93.21L411.01 93.88C410.82 93.49 410.5 93.11 410.09 92.79C409.13 92.06 408.03 91.94 407.59 92.51C407.37 92.8 407.35 93.2 407.54 93.65C407.72 94.08 408.06 94.5 408.51 94.84C408.96 95.18 409.46 95.4 409.92 95.46C409.98 95.46 410.03 95.46 410.08 95.47L409.7 96.14C409.52 95.76 409.21 95.38 408.78 95.06C407.82 94.33 406.72 94.21 406.28 94.78C405.84 95.36 406.24 96.39 407.2 97.12C407.73 97.52 408.29 97.73 408.77 97.75L408.34 98.51C408.16 98.1 407.83 97.7 407.4 97.37C406.44 96.64 405.34 96.52 404.9 97.1C404.68 97.39 404.67 97.79 404.85 98.24C405.03 98.67 405.37 99.09 405.82 99.43C406.27 99.77 406.77 99.99 407.23 100.05C407.31 100.05 407.38 100.06 407.45 100.06L406.29 102.09L407.25 101.85L409.72 101.24L430.02 65.19L432.22 64.35L433.61 63.82H433.77V59.83C433.77 59.79 433.75 59.74 433.72 59.71C433.63 59.63 433.49 59.49 433.32 59.33L436.27 54.1C436.27 54.1 436.45 54 436.71 53.83C437.29 56.87 438.25 60.38 438.53 60.62C438.94 60.97 438.63 66.27 438.55 67.6C438.55 67.63 438.53 67.67 438.53 67.7C438.02 68 437.47 68.36 437.11 68.67L436.6 68.56C436.6 68.56 435.59 68.56 435.3 69.37C435.01 70.18 435.56 71.22 435.56 71.22L436.08 71.4C433.68 79.88 425.04 110.52 419.53 130.05L419.13 114.5L421.79 113.42L419.05 111.6L418.88 104.94L420.21 104.54L418.66 99.04L397.32 104.57L394.11 101.18L390.96 101.55L383.88 105.15V109.83L384.18 110.73L391.21 107.44H391.22L397.56 106.8L391.21 107.44H391.19L384.17 110.73L387.27 114.38H387.49H389.92L394.8 112.17L397.32 111.03L397.44 109.23L405.16 107.78V108.47L404.39 108.79L404.02 114.36L401.6 113.99L398.84 112.41L396.39 113.63L398.87 115.91L403.87 116.7L403.01 129.8C400.89 128.77 397.91 127.35 397.49 127.3C396.83 127.23 396.89 127.15 396.61 127.3C396.61 127.3 396.1 128.52 396.61 128.78C397.12 129.04 400.17 130.43 400.45 130.28C400.59 130.21 401.75 130.64 402.9 131.1L378.52 154.98L382.37 152.74L383.36 152.61L392.85 142.89V143.32C392.74 143.39 392.73 143.44 392.72 143.47C392.7 143.55 392.72 143.63 392.8 143.68C392.82 143.69 392.83 143.7 392.85 143.71V144.94H393.01L401.72 149.34L401.52 152.44L408.14 154.77L415.19 157.25L417.05 157.9L396.96 150.84L396.83 154.23L396.81 154.76L396.83 154.13L396.96 150.84L385.89 152.28L382.36 152.74L377.46 155.59L375.31 156.43L375.28 156.85L372.06 158.73L371.93 161.71L371.87 163.2L372.06 164.65L371.74 166.22L371.94 167.45L371.61 169.2L371.8 170.59L371.47 172.39L371.41 173.8L371.15 179.91L377.07 181.4L392.97 185.41C390.34 186.05 388.77 186.87 388.77 187.77V190.06C388.77 190.77 389.78 191.43 391.51 192L375.88 218.88L374.97 217.91L372.06 222.41L369.59 228.93L358.92 249.45H328.3L324.16 245.31V176.59H326.6V174.15H332.45V167.33H326.6V158.2H312.13L264.27 117.38V115.44H258.91V113.17H255.99V108.84H250.99V113.17H247.94V115.44H241.6V121.89L225.88 134.83L209.5 118.5V115.44H204.14V113.17H201.22V108.84H196.22V113.17H193.17V115.44H186.83V121.89L131.62 167.33H105.31V174.15H176.47V219.11H141.5V225.49H151V250.18H117.73V215.09H89.22V208.51H75.33V219.11H64.73L59.98 223.86V246.52H0.0300293L0.64003 246.71ZM400.56 145.51L402.62 144.91L402.33 149.4L402.52 146.57L400.56 145.52V145.51ZM396.98 143.96L397.06 143.82C396.63 143.56 396.14 143.25 395.67 142.94C397.45 142.36 400.14 141.57 402.88 140.8L402.8 141.96L396.96 143.95L396.98 143.96ZM393.78 144.09C394.26 144.41 394.71 144.67 394.78 144.71L393.78 145.05V144.09ZM393.78 143.65C394.04 143.52 394.56 143.32 395.29 143.08C395.9 143.49 396.49 143.85 396.79 144.03L394.83 144.7L394.98 144.45C394.98 144.45 394.37 144.09 393.79 143.7V143.65H393.78ZM394.2 142.29C394.43 142.47 394.68 142.66 394.96 142.85C394.39 143.05 394.02 143.2 393.78 143.3V142.71L394.2 142.28V142.29ZM395.73 140.73C397.5 140.1 400.24 139.23 403.06 138.4L402.92 140.47C402.85 140.49 402.79 140.51 402.72 140.52C398.94 141.58 396.69 142.26 395.34 142.72C395 142.49 394.68 142.26 394.42 142.06L395.72 140.73H395.73ZM403.42 132.85L403.08 138.05C400.55 138.78 398.07 139.55 396.26 140.18L403.42 132.84V132.85ZM408.77 98.93L408.2 99.94C408.09 99.95 407.99 99.97 407.85 99.96C407.43 99.91 406.97 99.7 406.56 99.39C406.15 99.07 405.83 98.69 405.67 98.3C405.52 97.93 405.52 97.61 405.69 97.4C405.83 97.22 406.06 97.14 406.35 97.14C406.79 97.14 407.35 97.34 407.85 97.72C408.26 98.04 408.58 98.42 408.74 98.81C408.76 98.85 408.77 98.9 408.78 98.94L408.77 98.93ZM410.12 96.56L409.5 97.65C409.05 97.67 408.46 97.47 407.94 97.07C407.12 96.44 406.72 95.53 407.06 95.08C407.2 94.9 407.43 94.82 407.72 94.82C408.16 94.82 408.72 95.02 409.22 95.4C409.67 95.74 409.99 96.17 410.13 96.56H410.12ZM411.43 94.27L410.82 95.34C410.73 95.34 410.64 95.37 410.53 95.36C410.11 95.31 409.65 95.1 409.24 94.79C408.83 94.47 408.51 94.09 408.35 93.7C408.2 93.33 408.2 93.01 408.37 92.8C408.51 92.62 408.74 92.54 409.03 92.54C409.47 92.54 410.03 92.74 410.53 93.12C410.94 93.44 411.26 93.82 411.42 94.21C411.42 94.23 411.43 94.25 411.44 94.27H411.43ZM412.73 91.99L412.12 93.06C412.03 93.06 411.94 93.09 411.83 93.08C411.41 93.03 410.95 92.82 410.54 92.51C410.13 92.2 409.81 91.81 409.65 91.42C409.5 91.05 409.5 90.73 409.67 90.52C409.81 90.34 410.04 90.26 410.33 90.26C410.77 90.26 411.33 90.46 411.83 90.84C412.28 91.18 412.6 91.61 412.74 92L412.73 91.99ZM414.03 89.71L413.42 90.78C413.33 90.78 413.24 90.81 413.13 90.8C412.71 90.75 412.25 90.54 411.84 90.23C411.43 89.91 411.11 89.53 410.95 89.14C410.8 88.77 410.8 88.45 410.97 88.24C411.11 88.06 411.34 87.98 411.63 87.98C412.07 87.98 412.63 88.18 413.13 88.57C413.58 88.91 413.9 89.34 414.04 89.73L414.03 89.71ZM415.34 87.42L414.73 88.49C414.64 88.49 414.55 88.52 414.44 88.5C414.02 88.45 413.56 88.24 413.15 87.93C412.33 87.3 411.93 86.39 412.27 85.94C412.41 85.76 412.64 85.68 412.93 85.68C413.37 85.68 413.93 85.88 414.43 86.26C414.84 86.58 415.16 86.97 415.32 87.35C415.32 87.37 415.33 87.39 415.34 87.41V87.42ZM416.64 85.14L416.03 86.21C415.94 86.21 415.85 86.24 415.74 86.23C415.32 86.18 414.86 85.97 414.45 85.66C414.04 85.34 413.72 84.96 413.56 84.57C413.41 84.2 413.41 83.88 413.58 83.67C413.72 83.49 413.95 83.41 414.24 83.41C414.68 83.41 415.24 83.61 415.74 83.99C416.19 84.33 416.51 84.76 416.65 85.15L416.64 85.14ZM417.95 82.85L417.34 83.92C417.25 83.92 417.16 83.95 417.05 83.94C416.63 83.89 416.17 83.68 415.76 83.37C415.35 83.05 415.03 82.67 414.87 82.28C414.72 81.91 414.72 81.59 414.89 81.38C415.02 81.21 415.25 81.11 415.55 81.11C415.62 81.11 415.68 81.11 415.76 81.12C416.18 81.17 416.64 81.38 417.05 81.69C417.46 82.01 417.78 82.39 417.94 82.78C417.94 82.8 417.95 82.82 417.96 82.84L417.95 82.85ZM419.25 80.57L418.63 81.66C418.18 81.68 417.59 81.48 417.07 81.08C416.25 80.45 415.85 79.54 416.19 79.09C416.33 78.91 416.56 78.83 416.85 78.83C417.29 78.83 417.85 79.03 418.35 79.41C418.8 79.75 419.12 80.18 419.26 80.57H419.25ZM420.56 78.28L419.95 79.35C419.86 79.35 419.77 79.38 419.66 79.37C419.24 79.32 418.78 79.11 418.37 78.8C417.96 78.48 417.64 78.1 417.48 77.71C417.33 77.34 417.33 77.02 417.5 76.81C417.64 76.63 417.87 76.55 418.16 76.55C418.6 76.55 419.16 76.75 419.66 77.14C420.07 77.46 420.39 77.84 420.55 78.23C420.55 78.25 420.56 78.27 420.57 78.29L420.56 78.28ZM421.86 76L421.24 77.09C420.79 77.11 420.2 76.91 419.68 76.51C419.27 76.19 418.95 75.81 418.79 75.42C418.64 75.05 418.64 74.73 418.81 74.52C418.95 74.34 419.18 74.26 419.47 74.26C419.91 74.26 420.47 74.46 420.97 74.84C421.38 75.16 421.7 75.54 421.86 75.93C421.86 75.95 421.87 75.97 421.88 75.99L421.86 76ZM423.16 73.72L422.54 74.81C422.09 74.83 421.5 74.63 420.98 74.23C420.57 73.91 420.25 73.53 420.09 73.14C419.94 72.77 419.94 72.45 420.11 72.24C420.24 72.07 420.47 71.97 420.77 71.97C420.84 71.97 420.9 71.97 420.98 71.98C421.4 72.03 421.86 72.24 422.27 72.55C422.72 72.89 423.04 73.32 423.18 73.71L423.16 73.72ZM424.47 71.43L423.84 72.52C423.39 72.54 422.8 72.34 422.28 71.94C421.46 71.31 421.06 70.4 421.4 69.95C421.53 69.78 421.76 69.68 422.06 69.68C422.13 69.68 422.19 69.68 422.27 69.69C422.69 69.74 423.15 69.95 423.56 70.26C423.97 70.58 424.29 70.96 424.45 71.35C424.45 71.37 424.46 71.39 424.47 71.41V71.43ZM422.82 61.15C422.66 60.94 422.55 60.77 422.52 60.69C422.56 60.64 422.65 60.57 422.77 60.48L422.82 61.15ZM422.99 63.57C422.62 63.17 422.22 62.68 422.16 62.44C422.24 62.33 422.49 62.15 422.87 61.91L422.99 63.58V63.57ZM429.27 49.5C429.11 49.3 429 49.14 428.98 49.06C429.02 49.02 429.11 48.94 429.23 48.86L429.28 49.5H429.27ZM429.44 51.81C429.08 51.43 428.68 50.96 428.62 50.73C428.69 50.63 428.95 50.45 429.32 50.22L429.43 51.81H429.44ZM457.98 150.88H458L457.6 120.83L458 120.63L458.45 150.79C458.45 150.79 458.24 150.82 457.98 150.88ZM456.27 151.32L454.63 120.4C454.8 120.4 454.97 120.38 455.12 120.35C455.3 120.31 455.48 120.22 455.64 120.11C456.14 120.8 456.8 121.17 457.3 120.98L457.25 121L457.81 150.93L457.89 150.91C457.42 151.02 456.76 151.19 456.27 151.32ZM456.17 116.57L456.12 116.59C455.78 114.46 455.22 111.21 454.54 107.37L456.94 116.6H456.96C456.68 116.48 456.41 116.46 456.17 116.56V116.57ZM454.13 121.91C454.24 121.85 454.32 121.77 454.4 121.67L456.06 151.38C455.98 151.4 455.91 151.42 455.85 151.44L454.21 121.88L454.14 121.91H454.13ZM453.28 100.33L457.63 117.12L457.67 117.17C457.53 117.01 457.38 116.87 457.22 116.76L457.25 116.78L453.88 103.69C453.68 102.59 453.48 101.47 453.28 100.32V100.33ZM436.37 48.86L435.26 49.43V47.26C435.71 47.08 436.04 46.97 436.18 46.97C436.18 46.97 436.18 46.97 436.19 46.97C436.52 46.99 437.66 47.8 438.79 48.68C438.49 48.74 437.86 48.93 437.25 49.42L436.43 48.84L436.38 48.86H436.37ZM434.06 61.21C433.87 61.05 433.61 60.82 433.31 60.57L433.77 59.75C433.87 59.84 433.97 59.93 434.06 60.03V61.21ZM431.43 59.08C431.43 59.08 431.5 59.08 431.54 59.09L431.51 59.14C431.51 59.14 431.46 59.1 431.43 59.08ZM431.24 59.61C431.12 59.4 430.96 59.21 430.78 59.02C430.96 59.14 431.14 59.28 431.35 59.43L431.25 59.61H431.24ZM428.89 60.79C428.95 60.83 429 60.87 429.06 60.9L429.03 60.92C429.03 60.92 428.94 60.86 428.89 60.83V60.79ZM428.89 58.81C429.22 58.67 429.49 58.57 429.66 58.53C429.87 58.62 430.07 58.74 430.26 58.89C430.63 59.17 430.92 59.51 431.09 59.86L430.36 61.14C430.36 61.14 430.3 61.14 430.26 61.14L429.57 60.65L429.52 60.68L429.3 60.79C429.19 60.73 429.09 60.65 428.98 60.57C428.94 60.54 428.91 60.51 428.88 60.48V58.81H428.89ZM428.89 58.31C428.89 58.31 428.95 58.31 428.98 58.31C429.04 58.31 429.1 58.35 429.16 58.36C429.08 58.39 428.99 58.43 428.9 58.46V58.3L428.89 58.31ZM427.82 65.6L425.23 63.76C425.17 63.51 425.19 63.28 425.32 63.11C425.46 62.93 425.69 62.85 425.98 62.85C426.42 62.85 426.98 63.05 427.48 63.43C427.93 63.77 428.25 64.2 428.39 64.59L427.82 65.59V65.6ZM426.47 67.97C426.29 67.97 426.09 67.95 425.88 67.89L426.69 67.58L426.47 67.97ZM425.94 68.89C425.81 68.61 425.61 68.34 425.35 68.09L425.52 68.03C425.8 68.15 426.07 68.21 426.32 68.22L425.93 68.89H425.94ZM424.54 67.8L424.94 68.26L425.1 68.2C425.4 68.48 425.64 68.79 425.77 69.1C425.77 69.12 425.78 69.14 425.79 69.16L425.17 70.25C424.72 70.27 424.13 70.07 423.61 69.67C422.79 69.04 422.39 68.13 422.73 67.68C422.86 67.51 423.09 67.41 423.39 67.41C423.46 67.41 423.52 67.41 423.6 67.42C423.91 67.46 424.23 67.6 424.55 67.79L424.54 67.8ZM423.24 62.16C423.65 62.64 424.09 63.11 424.39 63.41L423.37 63.93L423.25 62.15L423.24 62.16ZM428.57 58.09C428.3 58.13 428.07 58.24 427.92 58.43C427.8 58.58 427.75 58.77 427.75 58.98C426.29 59.66 424.42 60.63 423.18 61.36L423.1 60.27C424.27 59.5 426.93 58.02 428.56 57.22V58.09H428.57ZM428.57 58.62C428.39 58.7 428.21 58.78 428.01 58.87C428.03 58.76 428.06 58.66 428.12 58.58C428.22 58.45 428.38 58.39 428.57 58.35V58.62ZM428.57 60.18C428.37 59.96 428.2 59.72 428.1 59.48C428.06 59.39 428.03 59.29 428.01 59.21C428.21 59.12 428.39 59.04 428.56 58.96V60.18H428.57ZM428.57 60.65C428.28 60.5 427.99 60.4 427.71 60.37C427.22 60.31 426.84 60.43 426.62 60.72C426.18 61.3 426.58 62.32 427.54 63.06C427.67 63.16 427.81 63.25 427.95 63.33L428.66 64.15L428.55 64.35C428.37 63.97 428.06 63.59 427.63 63.26C426.67 62.53 425.57 62.41 425.13 62.98C425 63.15 424.95 63.36 424.96 63.59L424.58 63.32L424.53 63.35L424.65 63.24C424.16 62.73 423.66 62.17 423.26 61.7C424.44 61 426.32 60.01 427.79 59.32C427.81 59.41 427.83 59.49 427.87 59.58C428.01 59.91 428.25 60.24 428.56 60.54V60.66L428.57 60.65ZM428.73 61.09L426.93 62.01C426.67 61.57 426.61 61.14 426.81 60.86C426.94 60.69 427.17 60.59 427.47 60.59C427.54 60.59 427.6 60.59 427.68 60.6C427.97 60.64 428.27 60.77 428.57 60.93V61.07H428.73V61.09ZM429.81 58.2C429.75 58.2 429.68 58.22 429.58 58.25C429.39 58.18 429.2 58.12 429.01 58.1C428.97 58.1 428.93 58.1 428.89 58.1V57.08C428.96 57.05 429.01 57.02 429.07 56.99C429.15 57.39 429.41 57.82 429.8 58.2H429.81ZM429.32 56.88C429.58 56.77 429.77 56.7 429.86 56.69C429.86 56.69 429.86 56.69 429.87 56.69C430.14 56.69 431.01 57.33 432.05 58.22L431.67 58.88C431.25 58.85 430.75 58.65 430.29 58.31C429.74 57.89 429.38 57.34 429.31 56.89L429.32 56.88ZM432.41 57.6L432.22 57.92C431.23 57.08 430.21 56.31 429.83 56.36C429.76 56.36 429.58 56.44 429.32 56.55C429.34 56.46 429.37 56.37 429.42 56.3C429.56 56.12 429.79 56.04 430.08 56.04C430.52 56.04 431.08 56.24 431.58 56.62C431.96 56.91 432.24 57.26 432.41 57.59V57.6ZM433.16 60.88C433.49 61.15 433.8 61.42 434.08 61.66V63.84L432.23 62.53L433.16 60.88ZM430.63 54.23L432.11 55.93L433.71 55.32L432.98 56.59C432.98 56.59 432.92 56.59 432.89 56.59C432.47 56.54 432.01 56.33 431.6 56.02C430.88 55.47 430.49 54.71 430.63 54.22V54.23ZM434.94 47.09C433.46 47.7 431.08 48.88 429.62 49.72L429.54 48.68C430.69 47.94 433.32 46.53 434.93 45.76V47.1L434.94 47.09ZM435.26 49.45L433.88 50.15L435.56 52.08L434.78 53.45L431.79 51.33L431.74 51.35L429.75 52.36C429.75 52.36 429.81 52.29 429.81 52.24L429.68 50.47C430.1 50.94 430.56 51.41 430.85 51.7L431.08 51.48C430.6 51 430.1 50.46 429.7 50.01C431.08 49.21 433.46 48.02 434.94 47.4V49.44H435.26V49.45ZM440.38 49.57C439.49 48.83 436.9 46.71 436.21 46.67C436.21 46.67 436.21 46.67 436.2 46.67C436.05 46.67 435.72 46.78 435.27 46.95V45.59C435.74 45.37 436.09 45.23 436.22 45.22C436.22 45.22 436.22 45.22 436.24 45.22C436.67 45.22 438.66 46.83 440.38 48.43V49.56V49.57ZM440.26 51.56C439.72 50.32 439.3 49.38 439.11 48.94C439.57 49.3 440.01 49.67 440.38 49.98V51.65L440.26 51.56ZM426.33 145.81C426.48 145.23 426.64 144.6 426.81 143.94C426.92 143.99 427.05 144.05 427.15 144.1V146.17L426.33 145.81ZM426.89 143.61C426.97 143.28 427.06 142.93 427.15 142.58V143.73C427.08 143.7 426.98 143.65 426.89 143.61ZM415.33 144.26L416.1 144.61C415.68 146.11 415.44 146.96 415.44 146.96L415.33 144.27V144.26ZM415.12 138.82C415.8 139.07 416.6 139.39 417.47 139.75C417.28 140.42 417.11 141.05 416.94 141.63L415.2 140.86L415.12 138.82ZM418.05 112.01L416.93 112.58L417.72 113.53L415.7 114.15L414.13 113.27L413.98 109.41L416.15 107.6C416.15 107.6 415.57 106.74 414.84 106.26L417.02 105.85L417.82 105.61L418.05 112.02V112.01ZM418.19 137.22C417 136.71 415.9 136.27 415.01 135.97L414.26 116.86L418.17 115.28L418.88 134.77C418.64 135.62 418.41 136.44 418.19 137.22ZM418.1 137.52C417.91 138.19 417.73 138.82 417.56 139.43C416.65 139.06 415.82 138.73 415.11 138.47L415.03 136.32C415.89 136.61 416.95 137.04 418.11 137.53L418.1 137.52ZM2369.83 143.44L2371.9 142.84L2371.61 147.33L2371.8 144.5L2369.84 143.45L2369.83 143.44ZM2366.25 141.89L2366.33 141.75C2365.9 141.49 2365.41 141.18 2364.94 140.87C2366.72 140.29 2369.41 139.5 2372.15 138.73L2372.07 139.89L2366.23 141.88L2366.25 141.89ZM2363.05 142.02C2363.53 142.34 2363.98 142.6 2364.05 142.64L2363.05 142.98V142.02ZM2363.05 141.58C2363.31 141.45 2363.83 141.25 2364.56 141.01C2365.17 141.42 2365.76 141.78 2366.06 141.96L2364.1 142.63L2364.25 142.38C2364.25 142.38 2363.64 142.02 2363.06 141.63V141.58H2363.05ZM2363.47 140.22C2363.7 140.4 2363.95 140.59 2364.23 140.78C2363.66 140.98 2363.29 141.13 2363.05 141.23V140.64L2363.47 140.21V140.22ZM2365 138.66C2366.77 138.03 2369.51 137.16 2372.33 136.33L2372.19 138.4C2372.12 138.42 2372.06 138.44 2371.99 138.45C2368.21 139.51 2365.96 140.19 2364.61 140.65C2364.27 140.42 2363.95 140.19 2363.69 139.99L2364.99 138.66H2365ZM2372.69 130.78L2372.35 135.98C2369.82 136.71 2367.34 137.48 2365.53 138.11L2372.69 130.77V130.78ZM2378.04 96.86L2377.47 97.87C2377.36 97.88 2377.26 97.9 2377.12 97.89C2376.7 97.84 2376.24 97.63 2375.83 97.32C2375.42 97 2375.1 96.62 2374.94 96.23C2374.79 95.86 2374.79 95.54 2374.96 95.33C2375.1 95.15 2375.33 95.07 2375.62 95.07C2376.06 95.07 2376.62 95.27 2377.12 95.65C2377.53 95.97 2377.85 96.35 2378.01 96.74C2378.03 96.78 2378.04 96.83 2378.05 96.87L2378.04 96.86ZM2379.39 94.49L2378.77 95.58C2378.32 95.6 2377.73 95.4 2377.21 95C2376.39 94.37 2375.99 93.46 2376.33 93.01C2376.47 92.83 2376.7 92.75 2376.99 92.75C2377.43 92.75 2377.99 92.95 2378.49 93.33C2378.94 93.67 2379.26 94.1 2379.4 94.49H2379.39ZM2380.7 92.2L2380.09 93.27C2380 93.27 2379.91 93.3 2379.8 93.29C2379.38 93.24 2378.92 93.03 2378.51 92.72C2378.1 92.4 2377.78 92.02 2377.62 91.63C2377.47 91.26 2377.47 90.94 2377.64 90.73C2377.78 90.55 2378.01 90.47 2378.3 90.47C2378.74 90.47 2379.3 90.67 2379.8 91.05C2380.21 91.37 2380.53 91.75 2380.69 92.14C2380.69 92.16 2380.7 92.18 2380.71 92.2H2380.7ZM2382 89.92L2381.39 90.99C2381.3 90.99 2381.21 91.02 2381.1 91.01C2380.68 90.96 2380.22 90.75 2379.81 90.44C2379.4 90.12 2379.08 89.74 2378.92 89.35C2378.77 88.98 2378.77 88.66 2378.94 88.45C2379.08 88.27 2379.31 88.19 2379.6 88.19C2380.04 88.19 2380.6 88.39 2381.1 88.77C2381.55 89.11 2381.87 89.54 2382.01 89.93L2382 89.92ZM2383.3 87.64L2382.69 88.71C2382.6 88.71 2382.51 88.74 2382.4 88.73C2381.98 88.68 2381.52 88.47 2381.11 88.16C2380.7 87.84 2380.38 87.46 2380.22 87.07C2380.07 86.7 2380.07 86.38 2380.24 86.17C2380.38 85.99 2380.61 85.91 2380.9 85.91C2381.34 85.91 2381.9 86.11 2382.4 86.5C2382.85 86.84 2383.17 87.27 2383.31 87.66L2383.3 87.64ZM2384.61 85.35L2384 86.42C2383.91 86.42 2383.82 86.45 2383.71 86.44C2383.29 86.39 2382.83 86.18 2382.42 85.87C2381.6 85.24 2381.2 84.33 2381.54 83.88C2381.68 83.7 2381.91 83.62 2382.2 83.62C2382.64 83.62 2383.2 83.82 2383.7 84.2C2384.11 84.52 2384.43 84.91 2384.59 85.29C2384.59 85.31 2384.6 85.33 2384.61 85.35ZM2385.91 83.07L2385.3 84.14C2385.21 84.14 2385.12 84.17 2385.01 84.16C2384.59 84.11 2384.13 83.9 2383.72 83.59C2383.31 83.27 2382.99 82.89 2382.83 82.5C2382.68 82.13 2382.68 81.81 2382.85 81.6C2382.99 81.42 2383.22 81.34 2383.51 81.34C2383.95 81.34 2384.51 81.54 2385.01 81.92C2385.46 82.26 2385.78 82.69 2385.92 83.08L2385.91 83.07ZM2387.22 80.78L2386.61 81.85C2386.52 81.85 2386.43 81.88 2386.32 81.87C2385.9 81.82 2385.44 81.61 2385.03 81.3C2384.62 80.98 2384.3 80.6 2384.14 80.21C2383.99 79.84 2383.99 79.52 2384.16 79.31C2384.29 79.14 2384.52 79.04 2384.82 79.04C2384.89 79.04 2384.95 79.04 2385.03 79.05C2385.45 79.1 2385.91 79.31 2386.32 79.62C2386.73 79.94 2387.05 80.32 2387.21 80.71C2387.21 80.73 2387.22 80.75 2387.23 80.77L2387.22 80.78ZM2388.52 78.5L2387.9 79.59C2387.45 79.61 2386.86 79.41 2386.34 79.01C2385.52 78.38 2385.12 77.47 2385.46 77.02C2385.6 76.84 2385.83 76.76 2386.12 76.76C2386.56 76.76 2387.12 76.96 2387.62 77.34C2388.07 77.68 2388.39 78.11 2388.53 78.5H2388.52ZM2389.83 76.21L2389.22 77.28C2389.13 77.28 2389.04 77.31 2388.93 77.29C2388.51 77.24 2388.05 77.03 2387.64 76.72C2387.23 76.4 2386.91 76.02 2386.75 75.63C2386.6 75.26 2386.6 74.94 2386.77 74.73C2386.91 74.55 2387.14 74.47 2387.43 74.47C2387.87 74.47 2388.43 74.67 2388.93 75.05C2389.34 75.37 2389.66 75.75 2389.82 76.14C2389.82 76.16 2389.83 76.18 2389.84 76.2L2389.83 76.21ZM2391.13 73.93L2390.51 75.02C2390.06 75.04 2389.47 74.84 2388.94 74.44C2388.53 74.12 2388.21 73.74 2388.05 73.35C2387.9 72.98 2387.9 72.66 2388.07 72.45C2388.21 72.27 2388.44 72.19 2388.73 72.19C2389.17 72.19 2389.73 72.39 2390.23 72.77C2390.64 73.09 2390.96 73.47 2391.12 73.86C2391.12 73.88 2391.13 73.9 2391.14 73.92L2391.13 73.93ZM2392.43 71.65L2391.81 72.74C2391.36 72.76 2390.77 72.56 2390.25 72.16C2389.84 71.84 2389.52 71.46 2389.36 71.07C2389.21 70.7 2389.21 70.38 2389.38 70.17C2389.51 70 2389.74 69.9 2390.04 69.9C2390.11 69.9 2390.17 69.9 2390.25 69.91C2390.67 69.96 2391.13 70.17 2391.54 70.48C2391.99 70.82 2392.31 71.25 2392.45 71.64L2392.43 71.65ZM2393.74 69.36L2393.11 70.45C2392.66 70.47 2392.07 70.27 2391.54 69.87C2390.72 69.24 2390.32 68.33 2390.66 67.88C2390.79 67.71 2391.02 67.61 2391.32 67.61C2391.39 67.61 2391.45 67.61 2391.53 67.62C2391.95 67.67 2392.41 67.88 2392.82 68.19C2393.23 68.51 2393.55 68.89 2393.71 69.28C2393.71 69.3 2393.72 69.32 2393.73 69.34L2393.74 69.36ZM2392.09 59.08C2391.93 58.87 2391.82 58.7 2391.79 58.62C2391.83 58.57 2391.92 58.5 2392.04 58.41L2392.09 59.08ZM2392.26 61.5C2391.89 61.1 2391.49 60.61 2391.43 60.37C2391.51 60.26 2391.76 60.08 2392.14 59.84L2392.26 61.51V61.5ZM2398.53 47.43C2398.37 47.23 2398.26 47.07 2398.24 46.99C2398.28 46.95 2398.37 46.87 2398.49 46.79L2398.54 47.43H2398.53ZM2398.7 49.74C2398.34 49.36 2397.94 48.89 2397.88 48.66C2397.95 48.56 2398.21 48.38 2398.58 48.15L2398.69 49.74H2398.7ZM2427.24 148.81H2427.26L2426.86 118.76L2427.26 118.56L2427.71 148.72C2427.71 148.72 2427.5 148.75 2427.24 148.81ZM2425.54 149.25L2423.9 118.33C2424.07 118.33 2424.24 118.31 2424.39 118.28C2424.57 118.24 2424.75 118.15 2424.91 118.04C2425.41 118.73 2426.07 119.1 2426.57 118.91L2426.52 118.93L2427.08 148.86L2427.16 148.84C2426.69 148.95 2426.03 149.12 2425.54 149.25ZM2425.43 114.5L2425.38 114.52C2425.04 112.39 2424.48 109.14 2423.8 105.3L2426.2 114.53H2426.22C2425.94 114.41 2425.67 114.39 2425.43 114.49V114.5ZM2423.39 119.84C2423.5 119.78 2423.58 119.7 2423.66 119.6L2425.32 149.31C2425.24 149.33 2425.17 149.35 2425.11 149.37L2423.47 119.81L2423.4 119.84H2423.39ZM2422.54 98.26L2426.89 115.05L2426.93 115.1C2426.79 114.94 2426.64 114.8 2426.48 114.69L2426.51 114.71L2423.14 101.62C2422.94 100.52 2422.74 99.4 2422.54 98.25V98.26ZM2405.63 46.79L2404.52 47.36V45.19C2404.97 45.01 2405.3 44.9 2405.44 44.9C2405.44 44.9 2405.44 44.9 2405.45 44.9C2405.78 44.92 2406.92 45.73 2408.05 46.61C2407.75 46.67 2407.12 46.86 2406.51 47.35L2405.69 46.77L2405.64 46.79H2405.63ZM2403.32 59.14C2403.13 58.98 2402.87 58.75 2402.57 58.5L2403.03 57.68C2403.13 57.77 2403.23 57.86 2403.32 57.96V59.14ZM2400.69 57.01C2400.69 57.01 2400.76 57.01 2400.8 57.02L2400.77 57.07C2400.77 57.07 2400.72 57.03 2400.69 57.01ZM2400.5 57.54C2400.38 57.33 2400.22 57.14 2400.04 56.95C2400.22 57.07 2400.41 57.21 2400.61 57.36L2400.51 57.54H2400.5ZM2398.15 58.72C2398.21 58.76 2398.27 58.8 2398.32 58.83L2398.29 58.85C2398.29 58.85 2398.2 58.79 2398.15 58.76V58.72ZM2398.15 56.74C2398.48 56.6 2398.75 56.5 2398.92 56.46C2399.13 56.55 2399.33 56.67 2399.52 56.82C2399.89 57.1 2400.18 57.44 2400.35 57.79L2399.62 59.07C2399.62 59.07 2399.56 59.07 2399.52 59.07L2398.83 58.58L2398.78 58.61L2398.56 58.72C2398.45 58.66 2398.34 58.58 2398.24 58.5C2398.2 58.47 2398.17 58.44 2398.14 58.41V56.74H2398.15ZM2398.15 56.24C2398.15 56.24 2398.21 56.24 2398.24 56.24C2398.3 56.24 2398.36 56.28 2398.42 56.29C2398.34 56.32 2398.25 56.36 2398.16 56.39V56.23L2398.15 56.24ZM2397.08 63.53L2394.49 61.69C2394.43 61.44 2394.45 61.21 2394.58 61.04C2394.72 60.86 2394.95 60.78 2395.24 60.78C2395.68 60.78 2396.24 60.98 2396.74 61.36C2397.19 61.7 2397.51 62.13 2397.65 62.52L2397.08 63.52V63.53ZM2395.73 65.9C2395.55 65.9 2395.35 65.88 2395.14 65.82L2395.95 65.51L2395.73 65.9ZM2395.2 66.82C2395.07 66.54 2394.87 66.27 2394.61 66.02L2394.78 65.96C2395.06 66.08 2395.33 66.14 2395.58 66.15L2395.19 66.82H2395.2ZM2393.8 65.73L2394.2 66.19L2394.36 66.13C2394.66 66.41 2394.9 66.72 2395.03 67.03C2395.03 67.05 2395.04 67.07 2395.05 67.09L2394.43 68.18C2393.98 68.2 2393.39 68 2392.86 67.6C2392.04 66.97 2391.64 66.06 2391.98 65.61C2392.11 65.44 2392.34 65.34 2392.64 65.34C2392.71 65.34 2392.77 65.34 2392.85 65.35C2393.16 65.39 2393.49 65.53 2393.8 65.72V65.73ZM2392.5 60.09C2392.91 60.57 2393.35 61.04 2393.65 61.34L2392.63 61.86L2392.51 60.08L2392.5 60.09ZM2397.83 56.02C2397.56 56.06 2397.33 56.17 2397.18 56.36C2397.06 56.51 2397.01 56.7 2397.01 56.91C2395.55 57.59 2393.68 58.56 2392.44 59.29L2392.36 58.2C2393.53 57.43 2396.19 55.95 2397.82 55.15V56.02H2397.83ZM2397.83 56.55C2397.65 56.63 2397.47 56.71 2397.27 56.8C2397.29 56.69 2397.32 56.59 2397.38 56.51C2397.48 56.38 2397.64 56.32 2397.83 56.28V56.55ZM2397.83 58.11C2397.63 57.89 2397.46 57.65 2397.36 57.41C2397.32 57.32 2397.29 57.22 2397.27 57.14C2397.47 57.05 2397.65 56.97 2397.82 56.89V58.11H2397.83ZM2397.83 58.58C2397.54 58.43 2397.25 58.33 2396.97 58.3C2396.48 58.24 2396.1 58.36 2395.88 58.65C2395.44 59.23 2395.84 60.25 2396.8 60.99C2396.93 61.09 2397.07 61.18 2397.21 61.26L2397.92 62.08L2397.81 62.28C2397.63 61.9 2397.32 61.52 2396.89 61.19C2395.93 60.46 2394.83 60.34 2394.39 60.91C2394.26 61.08 2394.21 61.29 2394.22 61.52L2393.84 61.25L2393.79 61.28L2393.91 61.17C2393.42 60.66 2392.91 60.1 2392.52 59.63C2393.7 58.93 2395.58 57.94 2397.05 57.25C2397.07 57.34 2397.09 57.42 2397.13 57.51C2397.27 57.84 2397.51 58.17 2397.82 58.47V58.59L2397.83 58.58ZM2397.99 59.02L2396.19 59.94C2395.93 59.5 2395.87 59.07 2396.07 58.79C2396.2 58.62 2396.43 58.52 2396.73 58.52C2396.8 58.52 2396.86 58.52 2396.94 58.53C2397.23 58.57 2397.53 58.7 2397.83 58.86V59H2397.99V59.02ZM2399.07 56.13C2399.01 56.13 2398.94 56.15 2398.84 56.18C2398.65 56.11 2398.46 56.05 2398.27 56.03C2398.23 56.03 2398.19 56.03 2398.15 56.03V55.01C2398.22 54.98 2398.27 54.95 2398.33 54.92C2398.41 55.32 2398.67 55.75 2399.06 56.13H2399.07ZM2398.58 54.81C2398.84 54.7 2399.03 54.63 2399.12 54.62C2399.12 54.62 2399.12 54.62 2399.13 54.62C2399.4 54.62 2400.27 55.26 2401.31 56.15L2400.93 56.81C2400.51 56.78 2400.01 56.58 2399.55 56.24C2399 55.82 2398.64 55.27 2398.57 54.82L2398.58 54.81ZM2401.67 55.53L2401.48 55.85C2400.5 55.01 2399.48 54.24 2399.09 54.29C2399.03 54.29 2398.84 54.37 2398.58 54.48C2398.6 54.39 2398.63 54.3 2398.68 54.23C2398.82 54.05 2399.05 53.97 2399.34 53.97C2399.78 53.97 2400.34 54.17 2400.84 54.55C2401.22 54.84 2401.5 55.19 2401.67 55.52V55.53ZM2402.42 58.81C2402.75 59.08 2403.06 59.35 2403.34 59.59V61.77L2401.49 60.46L2402.42 58.81ZM2399.89 52.16L2401.37 53.86L2402.97 53.25L2402.24 54.52C2402.24 54.52 2402.18 54.52 2402.15 54.52C2401.73 54.47 2401.27 54.26 2400.86 53.95C2400.14 53.4 2399.75 52.64 2399.89 52.15V52.16ZM2404.2 45.02C2402.72 45.63 2400.34 46.81 2398.88 47.65L2398.8 46.61C2399.95 45.87 2402.58 44.46 2404.19 43.69V45.03L2404.2 45.02ZM2404.52 47.38L2403.14 48.08L2404.82 50.01L2404.04 51.38L2401.05 49.26L2401 49.28L2399.01 50.29C2399.01 50.29 2399.07 50.22 2399.07 50.17L2398.94 48.4C2399.36 48.87 2399.82 49.34 2400.11 49.63L2400.34 49.41C2399.86 48.93 2399.36 48.39 2398.96 47.94C2400.34 47.14 2402.72 45.95 2404.2 45.33V47.37H2404.52V47.38ZM2409.64 47.5C2408.75 46.76 2406.16 44.64 2405.47 44.6C2405.47 44.6 2405.47 44.6 2405.46 44.6C2405.31 44.6 2404.98 44.71 2404.53 44.88V43.52C2405 43.3 2405.35 43.16 2405.48 43.15C2405.48 43.15 2405.48 43.15 2405.49 43.15C2405.92 43.15 2407.91 44.76 2409.63 46.36V47.49L2409.64 47.5ZM2409.51 49.49C2408.97 48.25 2408.55 47.31 2408.36 46.87C2408.82 47.23 2409.26 47.6 2409.63 47.91V49.58L2409.5 49.49H2409.51ZM2395.58 143.74C2395.73 143.16 2395.89 142.53 2396.06 141.87C2396.17 141.92 2396.3 141.98 2396.4 142.03V144.1L2395.58 143.74ZM2396.14 141.54C2396.22 141.21 2396.31 140.86 2396.4 140.51V141.66C2396.33 141.63 2396.23 141.58 2396.14 141.54ZM2384.58 142.18L2385.35 142.53C2384.93 144.03 2384.69 144.88 2384.69 144.88L2384.58 142.19V142.18ZM2384.37 136.74C2385.05 136.99 2385.85 137.31 2386.72 137.67C2386.53 138.34 2386.35 138.97 2386.19 139.55L2384.45 138.78L2384.37 136.74ZM2387.3 109.93L2386.18 110.5L2386.97 111.45L2384.95 112.07L2383.38 111.19L2383.23 107.33L2385.4 105.52C2385.4 105.52 2384.82 104.66 2384.09 104.18L2386.28 103.77L2387.08 103.53L2387.31 109.94L2387.3 109.93ZM2387.44 135.14C2386.25 134.63 2385.15 134.19 2384.26 133.89L2383.51 114.78L2387.42 113.2L2388.13 132.69C2387.89 133.54 2387.66 134.36 2387.44 135.14ZM2387.35 135.44C2387.16 136.11 2386.98 136.74 2386.81 137.35C2385.9 136.98 2385.07 136.65 2384.36 136.39L2384.28 134.24C2385.14 134.53 2386.2 134.96 2387.36 135.45L2387.35 135.44ZM2393.11 172.8L2394.13 173.16L2393.11 172.81V172.8ZM3920.54 189.3H3926.39V276.79H3920.54V189.3ZM3897.64 90.36H3880.75V73.36H3897.64V90.36ZM3897.64 121.98H3880.75V93.41H3897.64V121.98ZM3897.64 162.25H3880.75V132.95H3897.64V162.25ZM3916.58 174.19H3903.84V162.25H3900.01V132.95H3905.32L3916.57 174.19H3916.58ZM3880.57 189.3H3890.87V202.83H3916.15V276.79H3880.57V189.3ZM3871.55 185.77H3876.18V276.79H3871.55V185.77ZM3870.7 181.02L3878.38 143.97V162.26H3877.89V174.2H3876.18V181.02H3870.7ZM3804.18 247.86H3821.48V245.18H3830.98V276.79H3804.17V247.86H3804.18ZM3792.48 247.86H3800.28V276.79H3792.48V247.86ZM3759.34 247.86H3786.63V276.79H3759.34V247.86ZM3545.44 127.64L3535.1 167.85H3518.82L3545.44 127.64ZM3584.24 177.97H3605.2V241.7H3584.24V177.97ZM3583.44 157.62H3568.82V159.08L3557.96 118.87H3570.73L3583.44 157.62ZM3560.48 177.97H3579.49V241.7H3560.48V177.97ZM3556.15 219.4H3557.92V241.7H3556.15V219.4ZM3539.28 219.4H3554.76V241.7H3539.28V219.4ZM3539.28 177.97H3557.92V209.16H3539.28V177.97ZM3538.13 167.86L3550.39 120.19L3551.26 118.88H3554.94L3568.17 167.86H3563.96V157.62H3559.21V151.77H3553V157.62H3546.88V167.86H3538.14H3538.13ZM3533.49 219.4H3535.63V241.7H3533.49V219.4ZM3526.54 219.4H3532.02V241.7H3526.54V219.4ZM3504.57 219.4H3525.08V241.7H3504.57V219.4ZM3504.57 172.73H3530.74V177.97H3535.61V209.16H3519.95V215.01H3504.56V172.73H3504.57ZM3438.97 127.64L3428.63 167.85H3412.35L3438.97 127.64ZM3494.01 219.4H3498.73V241.7H3494.01V219.4ZM3477.77 177.97H3498.73V215.01H3494.01V209.85H3491.45V215.01H3483.77V219.4H3491.45V241.7H3477.77V177.97ZM3476.97 157.62H3462.35V159.08L3451.49 118.87H3464.26L3476.97 157.62ZM3454.01 177.97H3473.02V241.7H3454.01V177.97ZM3432.81 219.4H3436.27V241.7H3432.81V219.4ZM3432.81 177.97H3451.45V241.7H3437.66V219.4H3440.4V209.16H3432.81V177.97ZM3431.66 167.86L3443.92 120.19L3444.79 118.88H3448.47L3461.7 167.86H3457.49V157.62H3452.74V151.77H3446.53V157.62H3440.41V167.86H3431.67H3431.66ZM3415 219.4H3429.16V241.7H3415V219.4ZM3408.05 219.4H3413.53V241.7H3408.05V219.4ZM3375.52 219.4H3406.59V241.7H3375.52V219.4ZM3234.42 218.07L3253.79 247.55V255.6H3234.42V218.08V218.07ZM3229.94 145.68H3210.82L3187.66 104.6L3187.19 103.77L3187.59 103.75L3188.16 104.31L3189.8 105.94L3194.06 110.16L3229.94 145.68ZM3224.18 176.14V193.89L3212.68 176.14H3224.18ZM3204.44 176.14H3206.86L3224.18 202.49V255.58H3207L3204.44 255.66V176.13V176.14ZM3183.97 223.17H3186.45L3198.27 241.33H3183.97V223.17ZM3183.97 167.85H3196.03V176.14H3199.69V235.76L3191.61 223.17H3196.03V208.26H3183.97V167.85ZM3183.15 107.4L3183.74 108.62L3201.72 145.67H3184.72L3183.15 107.4ZM3183.01 103.93L3185.93 103.81L3187.23 106.12L3209.52 145.67H3202.98L3184.27 107.12L3183.04 104.59L3183.01 103.94V103.93ZM3174.1 32.12L3160.45 32.68L3159.84 17.96L3173.49 17.4L3174.1 32.12ZM3176.62 93.31L3162.97 93.87L3160.68 38.29L3174.33 37.73L3176.62 93.31ZM3178.45 145.67H3177.73V165.51H3173.16V163.32H3167.13V160.7L3168.53 160.64L3166.23 104.63L3176.75 104.2L3178.46 145.68L3178.45 145.67ZM3177.73 239.29L3165.16 223.17H3177.73V239.29ZM3161.65 223.17H3162.23L3176.39 241.33H3161.65V223.17ZM3161.65 185.05L3176.76 208.26H3161.65V185.05ZM3161.65 174.83H3177.73V201.53L3161.65 176.47V174.83ZM3090.31 116.53L3089.33 117.86L3088.41 119.11L3085.61 122.9L3055.78 163.31H3039.51L3089.4 116.53H3090.3H3090.31ZM3149.68 150.89H3129.69L3110.94 116.53H3113.2V114.78L3149.68 150.89ZM3150.49 204.37L3127.45 174.83H3150.49V204.37ZM3147.05 223.17H3150.49V241.33H3147.05V223.17ZM3124.54 232.9L3131.32 241.32H3124.54V232.9ZM3124.54 223.17H3143.46V241.33H3134.05L3124.55 229.52V223.17H3124.54ZM3124.54 174.86L3150.49 208.14V208.27H3124.54V174.86ZM3120.56 150.89L3111.83 120.54L3128.4 150.89H3120.56ZM3119.39 150.89H3116.26L3097.52 116.53H3109.49L3119.39 150.89ZM3113.21 218.82L3118.15 224.95V241.32H3113.21V218.82ZM3113.21 174.83H3118.15V221.57L3113.21 215.44V174.84V174.83ZM3081.22 179.08L3110.28 215.19V241.33H3081.22V179.08ZM3081.22 170.81H3109.18V174.83H3110.28V211.8L3081.22 175.69V170.81ZM3078.8 163.32L3093.55 116.54H3096.23L3115.41 151.68V163.32H3078.81H3078.8ZM3077.62 163.32H3057.18L3086.72 123.29L3088.65 120.65L3089.59 119.39L3090.75 117.82L3091.7 116.54H3092.36L3077.61 163.32H3077.62ZM3027.31 174.83H3028.77V167.7H3057.83V170.81H3076.47V241.32H3035.53V226.7H3027.31V174.83ZM3012.69 222.42L3016.03 226.7H3012.69V222.42ZM3012.69 174.83H3026.7V226.7H3018.96L3012.69 218.66V174.82V174.83ZM2876.2 114.67L2875.22 116L2874.3 117.25L2871.5 121.04L2841.67 161.45H2825.4L2875.29 114.66H2876.19L2876.2 114.67ZM2920.29 133.9L2911.71 141.94L2896.83 114.67H2899.09V112.92L2920.29 133.9ZM2925.06 138.62L2917.38 149.03H2915.58L2912.27 142.97L2921.09 134.7L2925.06 138.63V138.62ZM2927.52 191.15L2913.34 172.97H2927.52V191.15ZM2918.78 149.03L2925.87 139.42L2933.75 147.22L2933.18 149.03H2918.78ZM2941.36 116.54L2940.38 117.87L2939.46 119.12L2936.66 122.91L2925.74 137.7L2921.92 133.92L2940.46 116.54H2941.36ZM2943.42 116.54L2934.13 146.01L2926.55 138.51L2937.77 123.3L2939.7 120.66L2940.64 119.4L2941.8 117.83L2942.75 116.55H2943.41L2943.42 116.54ZM2934.65 148.11L2935.58 149.03H2934.36L2934.65 148.11ZM3000.74 150.89H2980.75L2962 116.53H2964.26V114.78L3000.74 150.89ZM3001.55 204.37L2978.51 174.83H3001.55V204.37ZM2975.6 174.85L3001.55 208.13V242.42H2990.61L2979.64 221.95L2994.99 212.45L2976.71 213.18L2975.58 208.3V174.86L2975.6 174.85ZM2971.62 150.88L2962.89 120.53L2979.46 150.88H2971.62ZM2970.45 150.88H2967.32L2948.58 116.52H2960.55L2970.45 150.88ZM2964.27 174.82H2969.2V190.26H2966.49L2964.27 188.78V174.83V174.82ZM2947.55 172.95H2960.25V174.82H2961.35V190.26H2947.55V172.96V172.95ZM2937.2 149.01L2935.04 146.87L2944.61 116.51H2947.29L2966.46 151.65V163.29H2959.06V161.42H2953.03V148.99H2937.2V149.01ZM2932.29 200.98L2936.4 206.25V230.1L2932.29 234.21V200.98ZM2932.29 179.07L2936.4 184.18V202.5L2932.29 197.23V179.07ZM2932.29 172.96H2936.4V180.8L2932.29 175.69V172.96ZM2910.45 231.03L2919.04 241.7C2916.77 241.7 2913.89 241.71 2910.45 241.72V231.03ZM2910.45 172.98L2927.54 194.89V238.97L2924.83 241.68C2924.83 241.68 2923.76 241.68 2921.76 241.68L2910.45 227.63V172.97V172.98ZM2906.33 148.54L2911.43 143.75L2914.3 149.01H2906.46L2906.32 148.53L2906.33 148.54ZM2905.98 147.33L2897.74 118.67L2910.88 142.74L2905.98 147.33ZM2904.18 149.02H2902.17L2883.43 114.66H2895.4L2905.06 148.19L2904.18 149.02ZM2892.57 161.45L2901.31 153.25V161.45H2892.57ZM2895.1 168.94V172.96H2896.2V209.93L2878.38 187.79V168.94H2895.1ZM2899.12 216.95L2904.06 223.08V241.74C2902.49 241.74 2900.84 241.74 2899.12 241.75V216.95ZM2899.12 172.96H2904.06V219.7L2899.12 213.57V172.97V172.96ZM2885.7 223.16H2892.77V218.77H2889.11V211.81H2878.37V191.17L2896.19 213.31V241.75C2892.91 241.75 2889.41 241.77 2885.7 241.78V223.16ZM2867.13 225.84H2872.05V223.16H2877.76V231.85H2878.37V223.16H2881.56V241.79C2877 241.8 2872.18 241.81 2867.13 241.82V225.84ZM2867.13 177.2L2877.76 190.41V211.81H2867.13V177.2ZM2867.13 168.93H2877.76V187.02L2867.13 173.81V168.93ZM2864.71 161.44L2879.46 114.65H2882.14L2901.32 149.79V151.69L2890.93 161.43H2864.71V161.44ZM2863.53 161.44H2843.09L2872.63 121.41L2874.56 118.77L2875.5 117.51L2876.66 115.94L2877.61 114.66H2878.27L2863.52 161.45L2863.53 161.44ZM2854.75 225.84H2862.38V241.83C2859.88 241.83 2857.34 241.84 2854.75 241.85V225.84ZM2843.05 225.84H2850.85V241.85C2848.29 241.85 2845.69 241.86 2843.05 241.87V225.84ZM2809.91 225.84H2837.2V241.88C2828.36 241.9 2819.21 241.91 2809.91 241.93V225.84ZM2739.92 236.8L2743.98 242C2742.62 242 2741.27 242 2739.92 242V236.79V236.8ZM2739.92 225.84H2757.22V223.16H2766.72V241.99C2760.03 241.99 2753.4 242 2746.9 242L2739.91 233.04V225.84H2739.92ZM2736.02 228.04L2734.3 225.84H2736.02V228.04ZM2728.22 225.84H2731.37L2736.02 231.8V242.01C2733.39 242.01 2730.79 242.01 2728.22 242.01V225.84ZM2655.91 114.66L2654.93 115.99L2654.01 117.24L2651.21 121.03L2621.38 161.44H2605.11L2655 114.65H2655.9L2655.91 114.66ZM2715.29 149.02H2695.3L2676.55 114.66H2678.81V112.91L2715.29 149.02ZM2716.1 202.5L2693.06 172.96H2716.1V202.5ZM2695.08 237.16L2698.97 241.99C2697.66 241.99 2696.36 241.99 2695.08 241.99V237.16ZM2695.08 225.84H2716.1V242C2711.12 242 2706.31 242 2701.7 241.99L2695.08 233.77V225.84ZM2690.14 172.98L2716.09 206.26V218.78H2690.14V172.99V172.98ZM2686.16 149.01L2677.43 118.66L2694 149.01H2686.16ZM2684.99 149.01H2681.86L2663.12 114.65H2675.09L2684.99 149.01ZM2678.81 216.94L2683.74 223.07V241.95C2682.04 241.95 2680.4 241.95 2678.81 241.94V216.94ZM2678.81 172.95H2683.74V219.69L2678.81 213.56V172.96V172.95ZM2646.82 177.2L2675.88 213.31V241.94C2661.36 241.89 2651.59 241.81 2649.19 241.68C2648.36 241.64 2647.57 241.56 2646.81 241.46V177.21L2646.82 177.2ZM2646.82 168.93H2674.78V172.95H2675.88V209.92L2646.82 173.81V168.93ZM2644.4 161.44L2659.15 114.65H2661.83L2681.01 149.79V161.43H2644.41L2644.4 161.44ZM2643.22 161.44H2622.78L2652.32 121.41L2654.25 118.77L2655.19 117.51L2656.35 115.94L2657.3 114.66H2657.96L2643.21 161.45L2643.22 161.44ZM2469.59 225.84H2486.89V223.16H2496.39V251.92H2469.58V225.84H2469.59ZM2457.89 225.84H2465.69V251.92H2457.89V225.84ZM2431.76 262.13L2437.91 262.02V262.15H2431.76V262.13ZM2424.75 260.75H2425.67L2427.37 260.79H2424.75V260.75ZM2424.75 225.84H2452.04V251.92H2437.91V261.55L2431.54 261.64L2430.9 260.82H2428.65V256.96H2424.75V255.2L2425.19 255.25L2424.75 253.63V225.85V225.84ZM2354.22 240.05V240.84H2352.85V244.11L2349.08 235.75L2353.53 228.09L2355.66 228.26L2355.27 239.31H2354.78V239.95L2354.22 240.06V240.05ZM2358.75 247.54C2358.75 248.78 2358.98 249.94 2359.37 250.95L2357.62 250.93V249.45L2358.75 247.44C2358.75 247.47 2358.75 247.5 2358.75 247.54ZM2354.78 248.4L2354.89 248.2L2357.96 242.76V240.84H2357.62V240.05H2356.95L2356.87 239.3H2356.12L2356.42 228.33L2355.65 228.25L2363.42 228.85L2362.72 228.88L2364.19 231.73L2354.77 248.4H2354.78ZM2370.37 196.35V198.18C2369.74 198.23 2369.15 198.29 2368.58 198.36L2368.68 193.79L2367.01 191.25L2370.37 196.36V196.35ZM2368.25 184.89C2368.31 184.89 2368.36 184.88 2368.41 184.87C2368.35 184.87 2368.3 184.88 2368.24 184.89H2368.25ZM2370.37 202.37V217.99L2368.15 218.19L2368.5 202.19C2369.09 202.26 2369.71 202.32 2370.37 202.38V202.37ZM2368.69 228.63L2366.93 228.72L2368.7 228.63H2368.69ZM2364.3 178.34L2379.79 182.14L2364.31 178.34H2364.3ZM2383.34 216.79L2381.92 216.96L2374.91 217.58L2383.34 216.79ZM2376.98 184.4C2377.14 184.4 2377.31 184.4 2377.48 184.4C2377.31 184.4 2377.15 184.4 2376.98 184.4ZM2363.76 218.56L2362.83 218.64V198.56L2362.47 199.08V201.21H2361.01L2364.19 196.58L2364.14 199.24C2363.59 199.46 2363.28 199.7 2363.28 199.94V200.57C2363.28 200.81 2363.57 201.05 2364.1 201.26L2363.91 210.95H2363.86C2363.37 210.95 2362.97 211.35 2362.97 211.84V214.72C2362.97 215.19 2363.34 215.57 2363.81 215.6L2363.75 218.56H2363.76ZM2359.06 218.18V217.15H2362.48V218.18H2359.06ZM2362.48 218.56V218.67L2362.63 218.66L2359.06 218.98V218.56H2362.48ZM2359.06 216.77V215.74H2362.48V216.77H2359.06ZM2359.06 215.36V214.33H2362.48V215.36H2359.06ZM2359.06 213.95V212.92H2362.48V213.95H2359.06ZM2359.06 212.54V211.51H2362.48V212.54H2359.06ZM2359.06 211.13V210.1H2362.48V211.13H2359.06ZM2359.06 209.72V208.69H2362.48V209.72H2359.06ZM2359.06 208.31V207.28H2362.48V208.31H2359.06ZM2359.06 206.9V205.87H2362.48V206.9H2359.06ZM2359.06 205.49V204.46H2362.48V205.49H2359.06ZM2359.06 204.08L2359.77 203.05H2362.47V204.08H2359.06ZM2360.03 202.67L2360.74 201.63H2362.46V202.67H2360.02H2360.03ZM2353.65 219.5L2354.9 217.19H2355.84L2354.58 219.41L2353.64 219.49L2353.65 219.5ZM2346.83 236.93L2347.12 237.55L2347.02 237.72H2345.7L2346.16 236.92H2346.83V236.93ZM2346.46 236.41L2346.53 236.28L2346.59 236.41H2346.46ZM2346.25 239.04H2344.93L2345.39 238.24H2346.71L2345.48 240.35H2344.15L2344.61 239.55H2345.93L2346.23 239.03L2346.25 239.04ZM2342.43 245.63H2341.1L2342.33 243.52H2343.66L2343.2 244.32H2341.87L2341.57 244.84H2342.9L2340.15 249.59H2338.81L2339.27 248.79H2340.61L2340.91 248.27H2339.57L2340.03 247.47H2341.36L2341.66 246.95H2340.33L2340.79 246.15H2342.12L2342.42 245.63H2342.43ZM2342.63 243L2343.09 242.2H2344.42L2343.96 243H2342.63ZM2343.4 241.68L2343.86 240.88H2345.19L2344.73 241.68H2343.4ZM2346.77 230.68L2348.56 227.75L2350.48 227.9L2347.69 232.72L2346.77 230.69V230.68ZM2348.17 233.78L2348.1 233.62L2348.47 232.99H2349.79L2349.33 233.79H2348.18L2348.17 233.78ZM2349.02 234.3L2348.68 234.89L2348.41 234.3H2349.02ZM2350.55 231.67L2350.09 232.47H2348.77L2349.23 231.67H2350.54H2350.55ZM2349.54 231.15L2350 230.35H2351.31L2350.85 231.15H2349.54ZM2350.77 229.04H2352.08L2351.62 229.84H2350.31L2350.77 229.04ZM2351.07 228.52L2351.39 227.98L2352.64 228.08L2352.38 228.53H2351.07V228.52ZM2353.29 250.94L2338.11 250.8L2338.51 250.11H2339.85L2339.46 250.79H2340.36L2347.54 238.45L2353.29 250.94ZM2337.65 250.04V245.64L2338.66 243.99L2340.43 245.24L2337.65 250.04ZM2338.88 243.63L2341.83 238.8L2343.51 239.94L2340.66 244.86L2338.88 243.64V243.63ZM2342.03 238.46L2345.17 233.32L2346.13 235.41L2343.71 239.58L2342.03 238.46ZM2346.22 227.58L2348.19 227.73L2346.6 230.33L2345.72 228.39L2346.21 227.58H2346.22ZM2346.54 219.04V220.14L2349.46 219.83V218.06L2359.06 204.11L2358.75 204.56L2358.68 217.2V219.06L2355.14 219.37L2356.39 217.19H2358.69V216.63H2354.8L2353.18 219.54L2346.55 220.13V219.03L2346.54 219.04ZM2387.12 178.03L2385.84 177.65L2366.05 171.83L2357.79 176.75L2357.73 176.77L2348.1 179.26L2348.14 179.25L2357.79 176.76L2366.05 171.84L2387.12 178.04V178.03ZM2383.38 198.15V191.73C2384.64 191.65 2385.83 191.54 2386.95 191.41L2387 198.53C2385.94 198.38 2384.72 198.26 2383.38 198.16V198.15ZM2387.02 202.1L2387.08 211.59L2385.96 211.3L2384.99 212.1L2383.38 209.65V202.46C2384.73 202.37 2385.95 202.24 2387.02 202.09V202.1ZM2388.06 216.26L2383.38 216.83V216.81L2388.06 216.26ZM2392.96 176.25L2392.78 179.43L2392.72 180.51L2392.97 176.25H2392.96ZM2406.61 218.69L2392.49 216.53L2390.99 212.73L2390.84 201.15C2391.15 200.98 2391.32 200.8 2391.32 200.62V200C2391.32 199.81 2391.14 199.64 2390.82 199.46L2390.78 196.02L2406.62 218.69H2406.61ZM2412.28 219.56L2407.32 218.8L2409.13 219.08L2412.28 219.56ZM2414.9 226.31L2409.59 226.58L2408.81 226.62L2414.9 226.31ZM2402.71 249.7L2411.19 230.88L2419 251.9L2419.11 252.3L2418.15 252.12L2402.97 251.88L2402.7 251.5V249.71L2402.71 249.7ZM2397.15 241.74L2391.22 227.53L2408.7 226.63V229.16L2402.09 244.04V241.73H2397.15V241.74ZM2382.49 241.74L2388.9 231.3L2393.26 241.74H2382.49ZM2379.82 253.97L2377.65 249.62L2380.16 245.53V251.51L2378.58 251.49L2379.59 253.52H2380.15V255.94H2378.57V253.88L2379.81 253.96L2379.82 253.97ZM2375.01 242.61L2369.25 228.65L2382.74 227.96L2375.01 242.61ZM2372.38 247.59L2370.53 251.1L2368.5 251.08L2369.25 248.87H2368.81H2369.43C2369.43 248.87 2369.61 248.55 2369.61 247.86C2369.61 247.17 2369.43 246.85 2369.43 246.85H2368.87C2368.6 243.27 2366.45 240.49 2363.83 240.49C2363.4 240.49 2362.98 240.57 2362.57 240.72L2365.83 234.93L2372.38 247.6V247.59ZM2365.28 254.4C2365.92 254.13 2366.5 253.7 2367.01 253.12L2369.45 253.15L2369.25 253.52H2371.27V255.94H2368.72V254.39H2365.27L2365.28 254.4ZM2334.1 252.76L2360.58 253.05C2361.46 254.08 2362.59 254.7 2363.82 254.7C2364.3 254.7 2364.76 254.6 2365.2 254.43V255.95H2364.73L2364.46 256.36H2342.94V254.03H2339.99L2339.92 256.36H2337.43L2335.89 254.91H2334.09V252.76H2334.1ZM2333.98 247.59L2344.55 230.33L2344.12 231.03L2345.01 232.95L2337.22 245.68V250.79L2334.11 250.76V247.58H2333.99L2333.98 247.59ZM2283.41 174.72H2292.67V241.98L2285.85 235.16H2283.41V174.72ZM2156.81 122.91L2117.31 165.46H2104.67L2156.82 122.54V122.91H2156.81ZM2180.06 145.95L2156.36 165.46H2152.83L2161 123.3H2161.82L2180.07 145.95H2180.06ZM2188.68 150.43L2193.47 145.27L2201.96 156.32H2193.42L2188.67 150.43H2188.68ZM2201.72 174.72L2202.51 175.5V188.07L2189.04 174.72H2201.72ZM2187.45 148.9L2184.3 144.99L2189.78 140.48L2192.26 143.71L2187.44 148.9H2187.45ZM2184.77 151.79L2172.08 165.46H2159.44L2181.3 147.47L2184.78 151.79H2184.77ZM2176.58 123.3L2188.6 138.93L2183.08 143.47L2166.83 123.29H2176.58V123.3ZM2194.35 134.2L2190.11 137.69L2179.04 123.29H2179.49V119.37L2194.36 134.19L2194.35 134.2ZM2197.85 137.69L2193.61 142.26L2191.29 139.24L2195.73 135.58L2197.85 137.69ZM2211.58 122.9L2199.18 136.26L2197.25 134.33L2211.58 122.53V122.9ZM2207.65 144.7L2200.56 137.63L2211.25 126.12L2207.65 144.7ZM2210.53 150.32L2216.54 156.31H2209.37L2210.53 150.32ZM2279.1 156.31H2259.18L2233.79 123.28H2234.24V118.05L2279.1 156.31ZM2270.5 174.7H2278.54V235.14H2270.5V174.7ZM2258.07 230.56L2262.69 235.14H2258.07V230.56ZM2258.07 214.42H2265.95V235.13H2265.45L2258.06 227.81V214.42H2258.07ZM2258.07 200.04H2265.95V212.11H2258.07V200.04ZM2258.07 186.88H2265.95V196.93H2258.07V186.88ZM2258.07 174.69H2265.95V184.5H2258.07V174.69ZM2256.72 156.3H2248.18L2221.58 123.27H2231.33L2256.72 156.3ZM2255.14 224.91L2244.55 214.42H2255.14V224.91ZM2243.93 231.86L2247.23 235.14H2243.93V231.86ZM2243.93 216.55L2255.14 227.66V235.14H2250L2243.93 229.12V216.55ZM2243.93 200.05H2255.14V212.12H2243.93V200.05ZM2243.93 186.89H2255.14V196.94H2243.93V186.89ZM2243.93 174.7H2255.14V184.51H2243.93V174.7ZM2243.17 156.31H2219.29L2210.97 148.01L2215.76 123.28H2216.58L2243.18 156.31H2243.17ZM2226.87 214.96L2240.52 228.49V235.15H2226.87V214.97V214.96ZM2226.87 199.65L2240.52 213.18V225.75L2226.87 212.22V199.65ZM2226.87 174.71H2240.52V210.43L2226.87 196.9V174.7V174.71ZM2205.91 232.44L2208.64 235.15H2205.91V232.44ZM2205.91 194.19L2221.02 209.17V235.15H2211.41L2205.91 229.7V194.19ZM2205.91 178.88L2221.02 193.86V206.43L2205.91 191.45V178.88ZM2205.91 174.71H2221.02V191.11L2205.91 176.13V174.71ZM2204.41 156.32L2194.8 143.82L2199.22 139.06L2207.19 147L2205.39 156.31H2204.42L2204.41 156.32ZM2186.9 223.62H2197.01L2202.5 229.06V235.15H2186.9V223.61V223.62ZM2186.9 213.6L2190.57 217.24H2186.9V213.6ZM2186.9 175.35L2202.5 190.81V226.32L2199.78 223.62V217.24H2193.35L2186.91 210.86V175.35H2186.9ZM2186.9 156.32V165.45H2174.72L2185.99 153.31L2188.41 156.31H2186.9V156.32ZM2176.81 223.62H2183V235.16H2176.81V223.62ZM2150.83 223.62H2171.18V235.16H2150.83V223.62ZM2150.83 177.85L2183 209.74V217.24H2150.83V177.85ZM2150.83 172.28H2183V206.99L2150.83 175.1V172.27V172.28ZM2148.85 165.46H2119.96L2156.47 126.13L2148.85 165.46ZM2126.1 223.62H2146.45V235.16H2140.36V248.32H2126.1V223.63V223.62ZM1951.39 191.4H1957.24V278.89H1951.39V191.4ZM1928.49 92.46H1911.6V75.46H1928.49V92.46ZM1928.49 124.08H1911.6V95.51H1928.49V124.08ZM1928.49 164.35H1911.6V135.05H1928.49V164.35ZM1947.43 176.29H1934.69V164.35H1930.86V135.05H1936.17L1947.42 176.29H1947.43ZM1911.42 191.4H1921.72V204.93H1947V278.89H1911.42V191.4ZM1902.4 187.87H1907.03V278.89H1902.4V187.87ZM1901.55 183.12L1909.23 146.07V164.36H1908.74V176.3H1907.03V183.12H1901.55ZM1835.03 249.96H1852.33V247.28H1861.83V278.89H1835.02V249.96H1835.03ZM1823.33 249.96H1831.13V278.89H1823.33V249.96ZM1790.19 249.96H1817.48V278.89H1790.19V249.96ZM1576.29 129.74L1565.95 169.95H1549.67L1576.29 129.74ZM1615.09 180.07H1636.05V243.8H1615.09V180.07ZM1614.29 159.72H1599.67V161.18L1588.81 120.97H1601.58L1614.29 159.72ZM1591.33 180.07H1610.34V243.8H1591.33V180.07ZM1587 221.5H1588.77V243.8H1587V221.5ZM1570.13 221.5H1585.61V243.8H1570.13V221.5ZM1570.13 180.07H1588.77V211.26H1570.13V180.07ZM1568.98 169.96L1581.24 122.29L1582.11 120.98H1585.79L1599.02 169.96H1594.81V159.72H1590.06V153.87H1583.85V159.72H1577.73V169.96H1568.99H1568.98ZM1564.34 221.5H1566.48V243.8H1564.34V221.5ZM1557.39 221.5H1562.87V243.8H1557.39V221.5ZM1535.42 221.5H1555.93V243.8H1535.42V221.5ZM1535.42 174.83H1561.59V180.07H1566.46V211.26H1550.8V217.11H1535.41V174.83H1535.42ZM1469.82 129.74L1459.48 169.95H1443.2L1469.82 129.74ZM1524.86 221.5H1529.58V243.8H1524.86V221.5ZM1508.62 180.07H1529.58V217.11H1524.86V211.95H1522.3V217.11H1514.62V221.5H1522.3V243.8H1508.62V180.07ZM1507.82 159.72H1493.2V161.18L1482.34 120.97H1495.11L1507.82 159.72ZM1484.86 180.07H1503.87V243.8H1484.86V180.07ZM1463.66 221.5H1467.12V243.8H1463.66V221.5ZM1463.66 180.07H1482.3V243.8H1468.51V221.5H1471.24V211.26H1463.65V180.07H1463.66ZM1462.51 169.96L1474.77 122.29L1475.64 120.98H1479.32L1492.55 169.96H1488.34V159.72H1483.59V153.87H1477.38V159.72H1471.26V169.96H1462.52H1462.51ZM1445.85 221.5H1460.01V243.8H1445.85V221.5ZM1438.9 221.5H1444.38V243.8H1438.9V221.5ZM1406.37 221.5H1437.44V243.8H1406.37V221.5ZM1265.27 220.17L1284.64 249.65V257.7H1265.27V220.18V220.17ZM1260.79 147.78H1241.67L1218.51 106.7L1218.04 105.87L1218.44 105.85L1219.01 106.41L1220.65 108.04L1224.91 112.26L1260.79 147.78ZM1255.03 178.24V195.99L1243.53 178.24H1255.03ZM1235.29 178.24H1237.71L1255.03 204.59V257.68H1237.85L1235.29 257.76V178.23V178.24ZM1214.82 225.27H1217.3L1229.12 243.43H1214.82V225.27ZM1214.82 169.95H1226.88V178.24H1230.54V237.86L1222.46 225.27H1226.88V210.36H1214.82V169.95ZM1214 109.51L1214.59 110.73L1232.57 147.78H1215.57L1214 109.51ZM1213.86 106.04L1216.78 105.92L1218.08 108.23L1240.37 147.78H1233.83L1215.12 109.23L1213.89 106.7L1213.86 106.05V106.04ZM1204.95 34.23L1191.3 34.79L1190.69 20.07L1204.34 19.51L1204.95 34.23ZM1207.47 95.42L1193.82 95.98L1191.53 40.4L1205.18 39.84L1207.47 95.42ZM1209.3 147.78H1208.58V167.62H1204.01V165.43H1197.98V162.81L1199.38 162.75L1197.08 106.74L1207.6 106.31L1209.31 147.79L1209.3 147.78ZM1208.58 241.4L1196.01 225.28H1208.58V241.4ZM1192.5 225.28H1193.08L1207.24 243.44H1192.5V225.28ZM1192.5 187.16L1207.61 210.37H1192.5V187.16ZM1192.5 176.94H1208.58V203.64L1192.5 178.58V176.94ZM1121.16 118.64L1120.18 119.97L1119.26 121.22L1116.46 125.01L1086.63 165.42H1070.36L1120.25 118.64H1121.15H1121.16ZM1180.54 153H1160.55L1141.8 118.64H1144.06V116.89L1180.54 153ZM1181.35 206.48L1158.31 176.94H1181.35V206.48ZM1177.91 225.28H1181.35V243.44H1177.91V225.28ZM1155.4 235.01L1162.18 243.43H1155.4V235.01ZM1155.4 225.28H1174.32V243.44H1164.91L1155.41 231.63V225.28H1155.4ZM1155.4 176.97L1181.35 210.25V210.38H1155.4V176.97ZM1151.42 153L1142.69 122.65L1159.26 153H1151.42ZM1150.25 153H1147.12L1128.38 118.64H1140.35L1150.25 153ZM1144.07 220.93L1149.01 227.06V243.43H1144.07V220.93ZM1144.07 176.94H1149.01V223.68L1144.07 217.55V176.95V176.94ZM1112.08 181.19L1141.14 217.3V243.44H1112.08V181.19ZM1112.08 172.92H1140.04V176.94H1141.14V213.91L1112.08 177.8V172.92ZM1109.66 165.43L1124.41 118.65H1127.09L1146.27 153.79V165.43H1109.67H1109.66ZM1108.48 165.43H1088.04L1117.59 125.4L1119.52 122.76L1120.46 121.5L1121.62 119.93L1122.57 118.65H1123.23L1108.48 165.43ZM1058.16 176.94H1059.62V169.81H1088.68V172.92H1107.32V243.43H1066.38V228.81H1058.15V176.94H1058.16ZM1043.54 224.53L1046.88 228.81H1043.54V224.53ZM1043.54 176.94H1057.55V228.81H1049.8L1043.53 220.77V176.93L1043.54 176.94ZM907.05 116.77L906.07 118.1L905.15 119.35L902.35 123.14L872.52 163.55H856.25L906.14 116.76H907.04L907.05 116.77ZM951.14 136L942.56 144.04L927.68 116.77H929.94V115.02L951.14 136ZM955.91 140.72L948.23 151.13H946.43L943.12 145.07L951.94 136.8L955.91 140.73V140.72ZM958.37 193.25L944.19 175.07H958.37V193.25ZM949.63 151.13L956.72 141.52L964.6 149.32L964.03 151.13H949.63ZM972.21 118.64L971.23 119.97L970.31 121.22L967.51 125.01L956.59 139.8L952.77 136.02L971.31 118.64H972.21ZM974.27 118.64L964.98 148.11L957.4 140.61L968.62 125.4L970.55 122.76L971.49 121.5L972.65 119.93L973.6 118.65H974.26L974.27 118.64ZM965.5 150.21L966.43 151.13H965.21L965.5 150.21ZM1031.59 152.99H1011.6L992.85 118.63H995.11V116.88L1031.59 152.99ZM1032.4 206.47L1009.36 176.93H1032.4V206.47ZM1006.45 176.95L1032.4 210.23V244.52H1021.46L1010.49 224.05L1025.84 214.55L1007.56 215.28L1006.43 210.4V176.96L1006.45 176.95ZM1002.47 152.98L993.74 122.63L1010.31 152.98H1002.47ZM1001.3 152.98H998.17L979.43 118.62H991.4L1001.3 152.98ZM995.12 176.92H1000.06V192.36H997.35L995.13 190.88V176.93L995.12 176.92ZM978.4 175.05H991.1V176.92H992.2V192.36H978.4V175.06V175.05ZM968.05 151.11L965.89 148.97L975.46 118.61H978.14L997.32 153.75V165.39H989.92V163.52H983.89V151.09H968.06L968.05 151.11ZM963.14 203.08L967.25 208.35V232.2L963.14 236.31V203.08ZM963.14 181.17L967.25 186.28V204.6L963.14 199.33V181.17ZM963.14 175.06H967.25V182.9L963.14 177.79V175.06ZM941.3 233.13L949.89 243.8C947.62 243.8 944.74 243.81 941.3 243.82V233.13ZM941.3 175.08L958.39 196.99V241.07L955.68 243.78C955.68 243.78 954.61 243.78 952.61 243.78L941.3 229.73V175.07V175.08ZM937.18 150.64L942.28 145.85L945.15 151.11H937.31L937.17 150.63L937.18 150.64ZM936.83 149.43L928.59 120.77L941.73 144.84L936.83 149.43ZM935.03 151.12H933.02L914.28 116.76H926.25L935.91 150.29L935.03 151.12ZM923.42 163.55L932.16 155.35V163.55H923.42ZM925.95 171.04V175.06H927.05V212.03L909.23 189.89V171.04H925.95ZM929.97 219.05L934.91 225.18V243.84C933.34 243.84 931.69 243.84 929.97 243.85V219.05ZM929.97 175.06H934.91V221.8L929.97 215.67V175.07V175.06ZM916.55 225.26H923.62V220.87H919.96V213.91H909.22V193.27L927.04 215.41V243.85C923.76 243.85 920.26 243.87 916.55 243.88V225.26ZM897.98 227.94H902.9V225.26H908.61V233.95H909.22V225.26H912.41V243.89C907.85 243.9 903.03 243.91 897.98 243.92V227.94ZM897.98 179.3L908.61 192.51V213.91H897.98V179.3ZM897.98 171.03H908.61V189.12L897.98 175.91V171.03ZM895.56 163.54L910.31 116.75H912.99L932.17 151.89V153.79L921.78 163.53H895.56V163.54ZM894.38 163.54H873.94L903.48 123.51L905.41 120.87L906.35 119.61L907.51 118.04L908.46 116.76H909.12L894.37 163.55L894.38 163.54ZM885.6 227.94H893.23V243.93C890.73 243.93 888.19 243.94 885.6 243.95V227.94ZM873.9 227.94H881.7V243.95C879.14 243.95 876.54 243.96 873.9 243.97V227.94ZM840.76 227.94H868.05V243.98C859.21 244 850.06 244.01 840.76 244.03V227.94ZM770.77 238.9L774.83 244.1C773.47 244.1 772.12 244.1 770.77 244.1V238.89V238.9ZM770.77 227.94H788.07V225.26H797.57V244.09C790.88 244.09 784.25 244.1 777.75 244.1L770.76 235.14V227.94H770.77ZM766.87 230.14L765.15 227.94H766.87V230.14ZM759.07 227.94H762.22L766.87 233.9V244.11C764.24 244.11 761.64 244.11 759.07 244.11V227.94ZM686.76 116.76L685.78 118.09L684.86 119.34L682.06 123.13L652.23 163.54H635.96L685.85 116.75H686.75L686.76 116.76ZM746.14 151.12H726.15L707.4 116.76H709.66V115.01L746.14 151.12ZM746.95 204.6L723.91 175.06H746.95V204.6ZM725.93 239.26L729.82 244.09C728.51 244.09 727.21 244.09 725.93 244.09V239.26ZM725.93 227.94H746.95V244.1C741.97 244.1 737.15 244.1 732.55 244.09L725.93 235.87V227.94ZM720.99 175.08L746.94 208.36V220.88H720.99V175.09V175.08ZM717.01 151.11L708.28 120.76L724.85 151.11H717.01ZM715.84 151.11H712.71L693.97 116.75H705.94L715.84 151.11ZM709.66 219.04L714.6 225.17V244.05C712.9 244.05 711.26 244.05 709.66 244.04V219.04ZM709.66 175.05H714.6V221.79L709.66 215.66V175.06V175.05ZM677.67 179.3L706.73 215.41V244.04C692.21 243.99 682.44 243.91 680.04 243.78C679.21 243.74 678.42 243.66 677.66 243.56V179.31L677.67 179.3ZM677.67 171.03H705.63V175.05H706.73V212.02L677.67 175.91V171.03ZM675.25 163.54L690 116.75H692.68L711.86 151.89V163.53H675.26L675.25 163.54ZM674.07 163.54H653.63L683.17 123.51L685.1 120.87L686.04 119.61L687.2 118.04L688.15 116.76H688.81L674.06 163.55L674.07 163.54ZM500.44 227.94H517.74V225.26H527.24V254.02H500.43V227.94H500.44ZM488.74 227.94H496.54V254.02H488.74V227.94ZM462.61 264.23L468.76 264.12V264.25H462.61V264.23ZM455.6 262.85H456.52L458.22 262.89H455.6V262.85ZM455.6 227.94H482.89V254.02H468.76V263.65L462.39 263.74L461.75 262.92H459.5V259.06H455.6V257.3L456.04 257.35L455.6 255.73V227.95V227.94ZM385.07 242.15V242.94H383.7V246.21L379.93 237.85L384.38 230.19L386.51 230.36L386.12 241.41H385.63V242.05L385.07 242.16V242.15ZM389.61 249.64C389.61 250.88 389.84 252.04 390.23 253.05L388.48 253.03V251.55L389.61 249.54C389.61 249.57 389.61 249.6 389.61 249.64ZM385.64 250.5L385.75 250.3L388.82 244.86V242.94H388.48V242.15H387.81L387.73 241.4H386.98L387.28 230.43L386.51 230.35L394.28 230.95L393.58 230.98L395.05 233.83L385.63 250.5H385.64ZM401.23 198.45V200.28C400.6 200.33 400 200.39 399.44 200.46L399.54 195.89L397.87 193.35L401.23 198.46V198.45ZM399.11 186.99C399.17 186.99 399.22 186.98 399.27 186.97C399.21 186.97 399.16 186.98 399.1 186.99H399.11ZM401.23 204.47V220.09L399.01 220.29L399.36 204.29C399.95 204.36 400.57 204.42 401.23 204.48V204.47ZM395.16 180.44L410.65 184.24L395.17 180.44H395.16ZM414.2 218.89L412.78 219.06L405.77 219.68L414.2 218.89ZM407.84 186.5C408 186.5 408.17 186.5 408.34 186.5C408.17 186.5 408.01 186.5 407.84 186.5ZM395.43 220.59L393.69 220.74V200.66L393.33 201.18V203.31H391.87L395.05 198.68L395 201.34C394.45 201.56 394.14 201.8 394.14 202.04V202.67C394.14 202.91 394.43 203.15 394.96 203.36L394.77 213.05H394.72C394.23 213.05 393.83 213.45 393.83 213.94V216.82C393.83 217.29 394.2 217.67 394.67 217.7L394.61 220.66L395.42 220.59H395.43ZM389.92 220.28V219.25H393.34V220.28H389.92ZM393.34 220.66V220.77L393.49 220.76L389.92 221.08V220.66H393.34ZM389.92 218.87V217.84H393.34V218.87H389.92ZM389.92 217.46V216.43H393.34V217.46H389.92ZM389.92 216.05V215.02H393.34V216.05H389.92ZM389.92 214.64V213.61H393.34V214.64H389.92ZM389.92 213.23V212.2H393.34V213.23H389.92ZM389.92 211.82V210.79H393.34V211.82H389.92ZM389.92 210.41V209.38H393.34V210.41H389.92ZM389.92 209V207.97H393.34V209H389.92ZM389.92 207.59V206.56H393.34V207.59H389.92ZM389.92 206.18L390.63 205.15H393.33V206.18H389.92ZM390.89 204.77L391.6 203.73H393.33V204.77H390.89ZM384.51 221.6L385.76 219.29H386.7L385.44 221.51L384.5 221.59L384.51 221.6ZM377.69 239.03L377.98 239.65L377.88 239.82H376.56L377.02 239.02H377.69V239.03ZM377.32 238.51L377.39 238.38L377.45 238.51H377.32ZM377.11 241.14H375.79L376.25 240.34H377.57L376.34 242.45H375.01L375.47 241.65H376.79L377.09 241.13L377.11 241.14ZM373.29 247.73H371.96L373.19 245.62H374.52L374.06 246.42H372.73L372.43 246.94H373.76L371.01 251.69H369.67L370.13 250.89H371.47L371.77 250.37H370.43L370.89 249.57H372.22L372.52 249.05H371.19L371.65 248.25H372.98L373.28 247.73H373.29ZM373.49 245.1L373.95 244.3H375.28L374.82 245.1H373.49ZM374.26 243.78L374.72 242.98H376.05L375.59 243.78H374.26ZM377.63 232.78L379.42 229.85L381.34 230L378.55 234.82L377.63 232.79V232.78ZM379.03 235.88L378.96 235.72L379.33 235.09H380.65L380.19 235.89H379.04L379.03 235.88ZM379.88 236.4L379.54 236.99L379.27 236.4H379.88ZM381.41 233.77L380.95 234.57H379.63L380.09 233.77H381.4H381.41ZM380.4 233.25L380.86 232.45H382.17L381.71 233.25H380.4ZM381.63 231.14H382.94L382.48 231.94H381.17L381.63 231.14ZM381.93 230.62L382.25 230.08L383.5 230.18L383.24 230.63H381.93V230.62ZM384.15 253.04L368.97 252.9L369.37 252.21H370.71L370.32 252.89H371.22L378.4 240.55L384.15 253.04ZM368.51 252.14V247.74L369.52 246.09L371.29 247.34L368.51 252.14ZM369.74 245.73L372.69 240.9L374.37 242.04L371.52 246.96L369.74 245.74V245.73ZM372.89 240.56L376.03 235.42L376.99 237.51L374.57 241.68L372.89 240.56ZM377.08 229.68L379.05 229.83L377.46 232.43L376.58 230.49L377.07 229.68H377.08ZM377.4 221.14V222.24L380.32 221.93V220.16L389.92 206.21L389.61 206.66L389.54 219.3V221.16L386 221.47L387.25 219.29H389.55V218.73H385.66L384.04 221.64L377.41 222.23V221.13L377.4 221.14ZM417.98 180.13L416.7 179.75L396.91 173.93L388.65 178.85L388.59 178.87L378.96 181.36L379 181.35L388.65 178.86L396.91 173.94L417.98 180.14V180.13ZM414.24 200.25V193.83C415.5 193.75 416.69 193.64 417.81 193.51L417.86 200.63C416.8 200.48 415.58 200.36 414.24 200.26V200.25ZM417.88 204.2L417.94 213.69L416.82 213.4L415.85 214.21L414.24 211.76V204.57C415.59 204.48 416.81 204.35 417.88 204.2ZM418.92 218.36L414.24 218.93V218.91L418.92 218.36ZM423.82 178.35L423.64 181.53L423.58 182.61L423.83 178.35H423.82ZM437.47 220.79L423.35 218.63L421.85 214.83L421.7 203.25C422.01 203.08 422.18 202.9 422.18 202.72V202.1C422.18 201.91 422 201.74 421.68 201.56L421.63 198.12L437.47 220.79ZM443.14 221.66L438.18 220.9L439.99 221.18L443.14 221.66ZM445.76 228.41L440.45 228.68L439.67 228.72L445.76 228.41ZM433.57 251.8L442.05 232.98L449.86 254L449.97 254.4L449.01 254.22L433.84 253.98L433.57 253.6V251.81V251.8ZM428.01 243.84L422.08 229.63L439.56 228.73V231.26L432.95 246.14V243.83H428.01V243.84ZM413.35 243.84L419.76 233.4L424.12 243.84H413.35ZM410.68 256.07L408.51 251.72L411.02 247.63V253.61L409.44 253.59L410.45 255.62H411.01V258.04H409.43V255.98L410.67 256.06L410.68 256.07ZM405.87 244.71L400.11 230.75L413.6 230.06L405.87 244.71ZM403.24 249.69L401.39 253.2L399.36 253.18L400.11 250.97H399.67H400.29C400.29 250.97 400.47 250.65 400.47 249.96C400.47 249.27 400.29 248.95 400.29 248.95H399.73C399.46 245.37 397.31 242.58 394.69 242.58C394.26 242.58 393.84 242.66 393.43 242.81L396.69 237.02L403.24 249.69ZM396.14 256.5C396.78 256.23 397.36 255.8 397.87 255.22L400.31 255.25L400.11 255.62H402.13V258.04H399.58V256.49H396.13L396.14 256.5ZM364.96 254.86L391.44 255.15C392.32 256.18 393.45 256.8 394.68 256.8C395.16 256.8 395.62 256.7 396.06 256.53V258.05H395.59L395.32 258.46H373.8V256.13H370.85L370.78 258.46H368.29L366.75 257.01H364.95V254.86H364.96ZM364.84 249.69L375.41 232.43L374.98 233.13L375.87 235.05L368.08 247.78V252.89L364.97 252.86V249.68H364.85L364.84 249.69ZM314.27 176.82H323.53V244.08L316.71 237.26H314.27V176.82ZM187.67 125.01L148.17 167.56H135.53L187.68 124.64V125.01H187.67ZM210.92 148.05L187.22 167.56H183.69L191.86 125.4H192.68L210.93 148.05H210.92ZM219.54 152.53L224.33 147.37L232.83 158.42H224.29L219.54 152.53ZM232.58 176.82L233.37 177.6V190.17L219.9 176.82H232.58ZM218.31 151L215.16 147.09L220.64 142.58L223.12 145.81L218.3 151H218.31ZM215.63 153.89L202.94 167.56H190.3L212.16 149.57L215.64 153.89H215.63ZM207.44 125.4L219.46 141.03L213.94 145.57L197.69 125.39H207.44V125.4ZM225.21 136.3L220.97 139.79L209.9 125.39H210.35V121.47L225.21 136.29V136.3ZM228.71 139.79L224.47 144.36L222.15 141.34L226.59 137.68L228.71 139.79ZM242.44 125L230.04 138.36L228.11 136.43L242.44 124.63V125ZM238.51 146.8L231.42 139.73L242.11 128.22L238.51 146.8ZM241.39 152.42L247.4 158.41H240.23L241.39 152.42ZM309.96 158.41H290.04L264.65 125.38H265.1V120.15L309.96 158.41ZM301.36 176.8H309.4V237.24H301.36V176.8ZM288.93 232.66L293.55 237.24H288.93V232.66ZM288.93 216.52H296.81V237.23H296.31L288.92 229.91V216.52H288.93ZM288.93 202.14H296.81V214.21H288.93V202.14ZM288.93 188.98H296.81V199.03H288.93V188.98ZM288.93 176.79H296.81V186.6H288.93V176.79ZM287.58 158.4H279.04L252.44 125.37H262.19L287.58 158.4ZM286 227.01L275.41 216.52H286V227.01ZM274.79 233.96L278.09 237.24H274.79V233.96ZM274.79 218.65L286 229.76V237.24H280.86L274.79 231.22V218.65ZM274.79 202.15H286V214.22H274.79V202.15ZM274.79 188.99H286V199.04H274.79V188.99ZM274.79 176.8H286V186.61H274.79V176.8ZM274.03 158.41H250.15L241.82 150.11L246.61 125.38H247.43L274.03 158.41ZM257.73 217.06L271.38 230.59V237.25H257.73V217.07V217.06ZM257.73 201.75L271.38 215.28V227.85L257.73 214.32V201.75ZM257.73 176.81H271.38V212.53L257.73 199V176.8V176.81ZM236.77 234.54L239.5 237.25H236.77V234.54ZM236.77 196.29L251.88 211.27V237.25H242.27L236.77 231.8V196.29ZM236.77 180.98L251.88 195.96V208.53L236.77 193.55V180.98ZM236.77 176.81H251.88V193.21L236.77 178.23V176.81ZM235.27 158.42L225.66 145.92L230.08 141.16L238.05 149.1L236.25 158.41H235.28L235.27 158.42ZM217.76 225.72H227.87L233.36 231.16V237.25H217.76V225.71V225.72ZM217.76 215.7L221.43 219.34H217.76V215.7ZM217.76 177.45L233.36 192.91V228.42L230.64 225.72V219.34H224.21L217.77 212.96V177.45H217.76ZM217.76 158.42V167.55H205.58L216.85 155.41L219.27 158.41H217.76V158.42ZM207.67 225.72H213.86V237.26H207.67V225.72ZM181.69 225.72H202.04V237.26H181.69V225.72ZM181.69 179.95L213.86 211.84V219.34H181.69V179.95ZM181.69 174.38H213.86V209.09L181.69 177.2V174.37V174.38ZM179.71 167.56H150.82L187.33 128.23L179.71 167.56ZM156.96 225.72H177.31V237.26H171.22V250.42H156.96V225.73V225.72Z" fill="#7C1818"/>
</svg>
