<svg width="4567" height="390" viewBox="0 0 4567 390" fill="none" xmlns="http://www.w3.org/2000/svg">
<path d="M0 142.71V389.93H2053.67V355.75H4107.28L4182.68 358L4566.5 349.3L4463.08 239.22C4409.71 193.69 4376.59 162.93 4363.73 146.92C4344.43 122.91 4301.29 77.08 4273.24 77.08C4245.19 77.08 4199.24 52.7 4169.41 48.38C4141.51 44.34 4132.04 65.86 4107.29 75.3V74.34H4038.56V101.52H4019.91V115.89H4007.49V122.88H3997.4V87.93H3977.2V79.39H3947.69V134.53H3909.64V119.77H3907.52V23.4H3954.58V65.6L3950.54 68.9H3950.13L3950.79 70.78H3958.29L3959.69 68.9H3958.81L3955.35 65.56H3955.25V23.4H3966.12L3971.39 21.52H3914.73V11.57H3907.15V3.24002L3902.54 0.280029V20.17H3898.26V12.64H3878.75V20.17H3875.86V25.01H3902.54V119.77H3890.23L3885.18 114.72H3856.72V101.1L3857.34 99.4L3856.73 98.76V57.93H3856.62V98.82L3855.9 99.31L3856.62 100.87V114.71H3851.4L3832.76 120.54V139.18H3824.1V84.83L3825.37 83.14L3855.64 55.9L3856.74 56.14C3856.74 56.14 3856.63 57.7 3856.69 57.88C3856.74 58.05 3857.85 57.77 3857.85 57.77L3856.57 53.99L3852.27 56.82L3816.96 64.91H3816.17V65.78L3815.33 66.18L3815.22 77.57L3813.01 78.27V83.32H3817.01V84.54L3820.47 85.59V139.19H3786.16V129.1H3782.35V42.38H3806.11V38.07H3803.54V31.38H3786.17V38.07H3782.35V20.37L3778.24 23.01V30.42H3771.5V39.27H3721.06L3725.74 40.94H3735.42V78.47H3735.33L3732.25 81.45H3731.46L3732.71 83.12H3739.37L3739.97 81.45H3739.6L3736.01 78.52V40.94H3777.91V129.09H3744.22V139.18H3723.24V74.34H3662.67V95.69H3646.35V79.38L3625.38 92.58V129.08H3611.4V139.17H3599.75V91.02H3592.77V82.48H3574.12V89.46H3567.91V132.96H3562.48L3550.06 111.21H3536.85V134.51H3513.55V118.98H3477.05V142.28H3463.65V81.23H3522.49V91.42L3519.11 95.65H3526.03L3522.92 91.39V81.23H3526.27L3523.65 79.05H3469.04V71.91H3463.65V64.15L3460.16 58.71V79.05H3457.83V71.91H3445.89V79.05H3444V81.23H3460.16V142.28H3459.18L3454.52 146.93H3435.88V128.29H3386.18V117.42H3358.99V138.4H3339.57V146.93H3334V62.67H3357.18V58.47H3354.67V51.94H3337.73V58.47H3334V41.2L3330 43.77V51.01H3323.43V59.65H3274.22L3278.8 61.28H3288.24V75.71H3288.15L3285.15 78.61H3284.38L3285.59 80.24H3292.1L3292.67 78.61H3292.31L3288.81 75.76V61.29H3329.68V146.95H3323.26V155.5H3309.28V138.41L3301.12 130.25V98.02L3295.1 92H3263.45L3255.97 99.49V129.87L3250.77 135.06H3225.39V101.52L3214.32 90.45H3201.31V101.52H3189.67V74.34L3185.79 56.08H3166.37L3157.83 74.72V108.89H3144.62L3135.69 117.82V101.51H3115.11V111.99H3091.03V16.46H3082.49V101.5H3067.73L3045.8 123.44V97.22H2991.62V85.96H2969.87L2961.13 94.7V114.31H2846.38L2825.02 92.95H2802.1V64.6H2749.29V94.11H2732.98V57.61H2715.11V38.09H2693.55V83.77H2666.71V38.09H2611.62V55.05H2602.43V38.09H2535.65V119.8H2513.44V38.09H2465.82V94.11H2414.56V70.81H2365.63V127.89H2342.33V101.49L2322.52 90.62V68.48H2303.88V101.49H2288.73V23.05H2274.75L2265.43 32.36H2256.11L2246.5 22.75H2233.98V85.37H2193.2V97.61H2167.57V116.25H2154.76V91.21H2148.94C2148.94 91.21 2148.94 80.14 2140.2 80.14C2131.46 80.14 2130.88 90.62 2130.88 90.62H2121.56V115.66H2115.63V49.67L2120.28 48.26V46.62H2125.67V39.81L2122.7 38.88L2122.55 23.55L2121.41 23V21.83H2120.35L2072.81 10.94L2067.01 7.13004L2065.29 12.21C2065.29 12.21 2066.77 12.6 2066.85 12.36C2066.93 12.12 2066.77 10.02 2066.77 10.02L2068.26 9.70004L2109.02 46.39L2110.73 48.66V115.67H2093.02C2093.02 115.67 2091.27 105.98 2087.77 101.5L2084.28 97.03C2084.28 97.03 2082.53 94.9 2081.36 101.5C2080.2 108.1 2078.45 115.67 2078.45 115.67L2072.62 122.66L2058.06 121.49V108.68L2053.59 108.5L1984.93 108.51V135.69H1966.28V150.06H1953.86V157.05H1943.77V122.1H1923.57V113.56H1894.06V168.7H1856.01V153.94H1853.9V57.57H1900.96V99.77L1896.92 103.07H1896.51L1897.17 104.95H1904.67L1906.07 103.07H1905.19L1901.73 99.73H1901.63V57.57H1912.5L1917.77 55.69H1861.11V45.74H1853.53V37.41L1848.92 34.45V54.34H1844.64V46.81H1825.13V54.34H1822.24V59.18H1848.92V153.94H1836.61L1831.56 148.89H1803.1V135.27L1803.72 133.57L1803.11 132.93V92.1H1803V132.99L1802.28 133.48L1803 135.04V148.88H1797.78L1779.14 154.71V173.35H1770.48V119L1771.75 117.31L1802.02 90.07L1803.12 90.31C1803.12 90.31 1803.01 91.87 1803.07 92.05C1803.12 92.22 1804.23 91.94 1804.23 91.94L1802.95 88.16L1798.65 90.99L1763.34 99.08H1762.55V99.95L1761.71 100.35L1761.6 111.74L1759.39 112.44V117.49H1763.39V118.71L1766.85 119.76V173.36H1732.54V163.27H1728.73V76.55H1752.49V72.24H1749.92V65.55H1732.55V72.24H1728.73V54.54L1724.62 57.18V64.59H1717.88V73.44H1667.44L1672.12 75.11H1681.8V112.64H1681.71L1678.63 115.62H1677.84L1679.09 117.29H1685.75L1686.35 115.62H1685.98L1682.39 112.69V75.11H1724.28V163.26H1690.59V173.35H1669.61V108.51H1609.04V129.86H1592.72V113.55L1571.75 126.76V163.26H1557.77V173.35H1546.12V125.2H1539.14V116.66H1520.49V123.64H1514.28V167.14H1508.85L1496.43 145.39H1483.22V168.69H1459.92V153.16H1423.42V176.46H1410.02V115.41H1468.86V125.6L1465.48 129.83H1472.4L1469.29 125.57V115.41H1472.64L1470.02 113.23H1415.41V106.09H1410.02V98.33L1406.53 92.89V113.23H1404.2V106.09H1392.26V113.23H1390.37V115.41H1406.53V176.46H1405.55L1400.89 181.11H1382.25V162.47H1332.55V151.6H1305.36V172.58H1285.94V181.11H1280.37V96.85H1303.55V92.65H1301.04V86.12H1284.1V92.65H1280.37V75.38L1276.37 77.95V85.19H1269.8V93.83H1220.59L1225.17 95.46H1234.61V109.89H1234.52L1231.52 112.79H1230.75L1231.96 114.42H1238.47L1239.05 112.79H1238.69L1235.19 109.94V95.47H1276.06V181.13H1269.64V189.68H1255.66V172.59L1247.5 164.43V132.2L1241.48 126.18H1209.83L1202.35 133.67V164.05L1197.15 169.24H1171.77V135.7L1160.7 124.63H1147.69V135.7H1136.05V108.52L1132.17 90.26H1112.75L1104.21 108.9V143.07H1091L1082.07 152V135.69H1061.49V146.17H1037.41V50.64H1028.87V135.68H1014.11L992.18 157.62V131.4H938V120.14H916.25L907.51 128.88V148.49H792.76L771.4 127.13H748.48V98.78H695.67V128.29H679.36V91.79H661.49V72.27H639.93V117.95H613.09V72.27H558V89.23H548.81V72.27H482.03V153.98H459.82V72.27H412.2V128.29H360.94V104.99H312.01V162.07H288.71V135.67L268.9 124.8V102.66H250.26V135.67H235.11V57.23H221.14L211.82 66.54H202.5L192.89 56.93H180.37V119.55H139.59V131.79H113.96V150.43H101.15V125.39H95.33C95.33 125.39 95.33 114.32 86.59 114.32C77.85 114.32 77.27 124.8 77.27 124.8H67.95V149.84H62.03V83.85L66.68 82.44V80.8H72.07V73.99L69.1 73.06L68.95 57.73L67.81 57.18V56.01H66.75L19.21 45.12L13.41 41.31L11.7 46.39C11.7 46.39 13.18 46.78 13.26 46.54C13.34 46.3 13.18 44.2 13.18 44.2L14.67 43.88L55.43 80.57L57.14 82.84V149.85H39.43C39.43 149.85 37.68 140.16 34.18 135.68L30.69 131.21C30.69 131.21 28.94 129.08 27.77 135.68C26.61 142.28 24.86 149.85 24.86 149.85L19.03 156.84L4.47 155.67V142.86L0 142.71ZM1235.19 110.18V110.11L1238.53 112.81H1231.81L1234.62 109.98V110.18H1235.19ZM1469.29 125.93L1472.06 129.72H1465.87L1468.86 125.93H1469.3H1469.29ZM1682.39 112.94V112.86L1685.82 115.63H1678.93L1681.81 112.73V112.94H1682.4H1682.39ZM1900.96 99.98V100.06H1901.62V99.82L1904.85 103.08H1897.11L1900.96 99.97V99.98ZM3288.8 75.99V75.92L3292.14 78.62H3285.42L3288.23 75.79V75.99H3288.8ZM3522.9 91.74L3525.67 95.53H3519.48L3522.47 91.74H3522.91H3522.9ZM3736 78.75V78.67L3739.43 81.44H3732.54L3735.42 78.54V78.75H3736.01H3736ZM3954.57 65.79V65.87H3955.23V65.63L3958.46 68.89H3950.72L3954.57 65.78V65.79ZM3818.85 77.57H3815.43V66.58L3818.85 77.57ZM3822.1 78.38L3818.09 66.12L3817.04 65.54L3816.98 65.22L3851.67 57.18L3852.04 56.93L3850.27 58.1L3825.52 79.54L3822.09 78.38H3822.1ZM2117.79 38.9L2122.39 24.11V38.9H2117.79ZM2113.41 40L2108.79 41.56L2075.47 12.7L2073.59 11.46L2120.29 22.28L2120.21 22.71L2118.8 23.49L2113.4 40H2113.41ZM1765.24 111.75H1761.82V100.76L1765.24 111.75ZM1768.49 112.56L1764.48 100.3L1763.43 99.72L1763.37 99.4L1798.06 91.36L1798.43 91.11L1796.66 92.28L1771.91 113.72L1768.48 112.56H1768.49ZM64.18 73.1L68.78 58.31V73.1H64.18ZM59.8 74.2L55.18 75.76L21.86 46.9L19.97 45.66L66.67 56.48L66.59 56.91L65.18 57.69L59.78 74.2H59.8Z" fill="#BB310E"/>
</svg>
