<svg width="7415" height="601" viewBox="0 0 7415 601" fill="none" xmlns="http://www.w3.org/2000/svg">
<path d="M0.100098 156.3H148.38V252.22H191.75V226.78H233.28V283.21H292.36V261.75H350.5V171.93H324.89V168.94H327.89V159.21H346.8V168.94H350.5V141.19L356.02 148.62V159.21H364.56V168.94H451.08L455.25 171.93H449.93V185.78L454.86 191.6H443.89L449.23 185.83V171.93H356.01V245.05H424.31V197.52H473.23V243.46H539.67V261.75H567.37V244.26H581.21V266.79H628.28V246.64H701.18V224.39H769.06V173.81H681.14V220.83L688.68 226.12H689.46L688.23 229.14H674.22L671.61 226.12H673.25L679.72 220.74H679.91V173.8H659.62L649.76 170.78H755.59V154.79H769.76V141.38L778.36 136.62V168.62H786.35V156.52H822.82V168.62H828.2V176.4H778.36V224.38H785.17V266.78H805.78V258.59H839.97V266.64H840.22V266.79H866.81V232.49H898.2V266.79H937.44V130.59H1030.66V263.34L1067.56 251.42H1156.16V140.92L1180.17 125.02L1186.62 101.97L1193.09 125.81L1215.25 140.92V113.89H1242.01L1251.23 62.2199L1259.55 113.89L1277.09 130.59V241.09H1330.61V225.98H1369.38V266.79H1398.91V87.6599C1398.91 87.6599 1420.12 90.0499 1425.67 101.97C1431.22 113.89 1421.97 122.65 1421.97 122.65L1434.89 126.61L1458.9 176.69L1535.5 230.75V209.29L1579.8 222.01V257.78L1689.32 258.84V97.1999H1699.77V29.3799H1761.3L1766.23 266.79H1781V232.86L1795.77 231.8V99.3099H1891.76C1891.76 99.3099 1886.83 114.15 1881.9 139.59C1876.99 165.03 1881.9 225.45 1881.9 225.45L1896.6 227.4V227.12L1905.9 228.48V228.64L1913.89 229.68L1923.75 111.5H1938.67V45.9899H1850.75V78.8599L1858.29 85.3499H1859.05L1857.84 89.0499H1843.83L1841.22 85.3499H1842.86L1849.33 78.7499H1849.52V45.9899H1829.21L1819.37 42.2799H1925.19V22.6799H1939.34V6.24993L1947.97 0.429932V39.6499H1955.96V24.8099H1992.41V39.6499H1997.79V49.1799H1947.97V111.51H2033.87V259.37L2053.69 258.58V156.3H2201.97V252.22H2245.34V226.78H2286.87V283.21H2345.95V261.75H2404.09V171.93H2378.48V168.94H2381.48V159.21H2400.39V168.94H2404.09V141.19L2409.61 148.62V159.21H2418.15V168.94H2504.67L2508.84 171.93H2503.52V185.78L2508.45 191.6H2497.48L2502.82 185.83V171.93H2409.6V245.05H2477.9V197.52H2526.82V243.46H2593.26V261.75H2620.96V244.26H2634.8V266.79H2681.87V246.64H2754.78V224.39H2822.66V173.81H2734.74V220.83L2742.28 226.12H2743.06L2741.83 229.14H2727.82L2725.21 226.12H2726.85L2733.32 220.74H2733.5V173.8H2713.21L2703.35 170.78H2809.18V154.79H2823.35V141.38L2831.95 136.62V168.62H2839.94V156.52H2876.41V168.62H2881.79V176.4H2831.95V224.38H2838.77V266.78H2859.38V258.59H2893.57V266.64H2893.82V266.79H2920.4V232.49H2951.79V266.79H2991.03V130.59H3084.25V263.34L3121.15 251.42H3209.75V140.92L3233.76 125.02L3240.21 101.97L3246.68 125.81L3268.84 140.92V113.89H3295.6L3304.82 62.2199L3313.14 113.89L3330.68 130.59V241.09H3384.2V225.98H3422.97V266.79H3452.5V87.6599C3452.5 87.6599 3473.71 90.0499 3479.26 101.97C3484.81 113.89 3475.56 122.65 3475.56 122.65L3488.48 126.61L3512.49 176.69L3589.09 230.75V209.29L3633.39 222.01V257.78L3742.91 258.84V97.1999H3753.36V29.3799H3814.89L3819.82 266.79H3834.59V232.86L3849.36 231.8V99.3099H3945.35C3945.35 99.3099 3940.42 114.15 3935.49 139.59C3930.58 165.03 3935.49 225.45 3935.49 225.45L3950.19 227.4V227.12L3959.49 228.48V228.64L3967.48 229.68L3977.34 111.5H3992.26V45.9899H3904.34V78.8599L3911.88 85.3499H3912.64L3911.43 89.0499H3897.42L3894.81 85.3499H3896.45L3902.92 78.7499H3903.1V45.9899H3882.79L3872.95 42.2799H3978.77V22.6799H3992.92V6.24993L4001.55 0.429932V39.6499H4009.54V24.8099H4045.99V39.6499H4051.37V49.1799H4001.55V111.51H4087.45V199.21C4108.97 194.35 4131.07 194.59 4153.74 199.95C4189.42 208.39 4292.09 262.8 4309.52 275.37C4360.71 312.27 4570.51 302.64 4604.45 311.03C4638.39 319.42 4631.29 324.82 4659.04 324.82C4686.79 324.82 4716.76 347.53 4814.74 360.57C4912.72 373.62 4881.71 345.21 4925.89 360.57C4938.46 364.94 5000.07 400.42 5046.02 407.61C5108.86 417.44 5204.6 439.43 5264.12 441.03C5314.01 442.38 5359.25 419.67 5372.32 423.37C5434.73 441.03 5535.53 432.24 5578.15 441.03C5592.28 443.95 5652.76 427.1 5690.47 441.03C5698.32 443.93 5707.48 444.84 5717.97 443.75V376.59L5801.91 390.62C5801.91 390.62 5819.58 390.62 5851.39 408.16C5883.2 425.7 5915.01 404.65 5925.61 408.16C5936.21 411.67 6049.31 418.68 6088.19 425.7C6127.07 432.72 6127.07 425.7 6144.74 425.7C6162.41 425.7 6211.89 425.7 6314.39 425.7C6416.89 425.7 6360.34 425.7 6423.96 425.7C6487.58 425.7 6476.98 432.72 6519.39 443.24C6561.8 453.76 6590.08 464.29 6600.68 473.17C6611.28 482.05 6689.04 460.78 6703.18 473.37C6717.32 485.96 6756.2 471.3 6766.8 473.37C6777.4 475.44 6816.28 478.31 6855.16 473.93C6894.04 469.55 6947.05 492.35 6957.66 492.35C6968.27 492.35 6993 492.35 7031.88 481.83C7070.76 471.31 7155.58 471.31 7201.53 481.83C7247.48 492.35 7414.48 589.69 7414.48 589.69H5717.97V600.16H4084.28V435.61H2053.66H0.100098V156.3Z" fill="#E57335"/>
</svg>
