<svg width="4829" height="487" viewBox="0 0 4829 487" fill="none" xmlns="http://www.w3.org/2000/svg">
<path fill-rule="evenodd" clip-rule="evenodd" d="M35.1601 111.87V176.21H43.8701V230.63H55.0001V221.44H65.1601V163.63H76.0401V158.31H84.2601V165.08H88.6101V196.28H92.4801V151.05H97.3201V146.21H92.4801V134.6H100.95V138.47H116.19V146.69H122.96V206.67H127.8V198.45H135.06V189.5H139.17V95.9H142.31V171.85H155.61V159.51H167.7V172.81H172.12V153.68L171.24 151.24L172.1 150.32V91.67H172.27V150.41L173.3 151.12L172.26 153.37V172.81H176.4V176.44H179.79V171.36H185.84L189.47 174.99V185.63H196.97V195.79H200.6V201.84H213.66V196.76H218.98V130.32L217.14 127.9L173.66 88.76L172.07 89.09C172.07 89.09 172.24 91.34 172.15 91.59C172.07 91.84 170.48 91.42 170.48 91.42L172.32 86L179.07 90.44L178.51 90.07L229.23 101.69H230.36V102.94L231.57 103.52L231.74 119.88L234.91 120.88V128.14H229.15V129.89L224.19 131.39V196.74H227.68V191.66H254.29V196.01H260.82V222.62H276.54V232.29H290.33V135.78H315V139.16H322.26V135.29L339.43 129.24V139.4L443.92 147.62V134.32H501.24V153.67H503.9V164.07H509.22V176.77H522.16L529.05 183.66V218.97H551.79V203.41H558.16V181.4H563.64V175.6H567.43V169.71H570.41C571.62 157.29 576.7 156.81 576.7 156.81C583.47 160.68 582.26 169.63 582.26 169.63H584.44V175.43H588.79V181.72H595.08V203.73H610.08V195.75H617.09V189.94H623.62V180.51H628.94V166.97H648.77L654.09 144.72L656.99 166.97H694.96V177.37H721.57L738.5 194.3H750.11V173.74H773.09L776.72 168.66L781.07 155.6L786.88 168.9H812.52V176.16H833.56V208.33H855.57V225.99H867.66V176.16H902.01V169.99H915.43L918.7 173.26H931.52V189.95H936.36V179.31H962.97V209.67H968.77V200.83H987.88V214.01H1000.09L1004.56 218.48H1034.31L1044.71 228.88V236.38H1059.22V221.87H1065.99V96.83H1069.86V219.94H1112.67V205.19H1122.1V179.67H1177.13L1183.06 173.75H1207.73V161.17H1223.45V155.12H1258.52V161.89H1265.78V231.55H1274.25L1331.09 138.43V192.85H1352.62V162.62H1419.38V188.02H1428.81V98.05H1517.89V35.36H1491.77V30.62H1494.59V23.25H1513.7V30.62H1517.89V11.19L1522.4 14.08V22.24H1529.82V31.97H1585.29L1580.13 33.81H1569.49V50.07H1569.59L1572.98 53.34H1573.85L1572.48 55.18H1565.14L1564.5 53.34H1564.9L1568.85 50.12V33.81H1522.77V98.07H1530.64V90.81H1551.68V61.06H1624V77.99L1617.47 90.57V102.66H1622.31V164.34L1628.6 170.63H1647.22V162.89H1666.81V186.84H1673.58L1682.05 178.37V131.45H1719.06V185.39H1744.21V196.03H1754.13V169.67H1776.14V155.88H1788.23V130.56H1800.08C1801.05 118.31 1807.5 116.05 1807.5 116.05L1810.73 100.57L1812.99 116.69C1819.76 120.88 1820.73 131.85 1820.73 131.85H1829.76V156.04H1842.66V169.59H1849.11V196.03H1859.11V181.52H1871.69V78H1903.29V173.13H1930.7V153.78H1992.94V132.5H2013.9V151.53H2024.54V178.62H2045.69V100.67H2079.99V165.01H2088.7V219.43H2099.83V210.24H2109.99V152.43H2120.87V147.11H2129.09V153.88H2133.44V185.08H2137.31V139.85H2142.15V135.01H2137.31V123.4H2145.78V127.27H2161.02V135.49H2167.79V195.47H2172.63V187.25H2179.89V178.3H2184V84.7H2187.14V160.65H2200.44V148.31H2212.53V161.61H2216.95V142.48L2216.07 140.04L2216.93 139.12V80.47H2217.1V139.21L2218.13 139.92L2217.09 142.17V161.61H2221.23V165.24H2224.62V160.16H2230.67L2234.3 163.79V174.43H2241.8V184.59H2245.43V190.64H2258.49V185.56H2263.81V119.12L2261.97 116.7L2218.49 77.56L2216.9 77.89C2216.9 77.89 2217.07 80.14 2216.98 80.39C2216.9 80.64 2215.31 80.22 2215.31 80.22L2217.15 74.8L2223.9 79.24L2223.34 78.87L2274.06 90.49H2275.19V91.74L2276.4 92.32L2276.57 108.68L2279.74 109.68V116.94H2273.98V118.69L2269.02 120.19V185.54H2272.51V180.46H2299.12V184.81H2305.65V211.42H2321.37V221.09H2335.16V124.58H2359.83V127.96H2367.09V124.09L2384.26 118.04V128.2L2488.75 136.42V123.12H2546.07V142.47H2548.73V152.87H2554.05V165.57H2566.99L2573.88 172.46V207.77H2596.62V192.21H2602.99V170.2H2608.47V164.4H2612.26V158.51H2615.24C2616.45 146.09 2621.53 145.61 2621.53 145.61C2628.3 149.48 2627.09 158.43 2627.09 158.43H2629.27V164.23H2633.62V170.52H2639.91V192.53H2654.91V184.55H2661.92V178.74H2668.45V169.31H2673.77V155.77H2693.6L2698.92 133.52L2701.82 155.77H2739.79V166.17H2766.4L2783.33 183.1H2794.94V162.54H2817.92L2821.55 157.46L2825.9 144.4L2831.71 157.7H2857.35V164.96H2878.39V197.13H2900.4V214.79H2912.49V164.96H2946.84V158.79H2960.26L2963.53 162.06H2976.35V178.75H2981.19V168.11H3007.8V198.47H3013.61V189.63H3032.72V202.81H3044.93L3049.4 207.28H3079.15L3089.55 217.68V225.18H3104.06V210.67H3110.83V85.62H3114.7V208.73H3157.51V193.98H3166.94V168.46H3221.97L3227.9 162.54H3252.57V149.96H3268.29V143.91H3303.36V150.68H3310.62V220.34H3319.09L3375.93 127.22V181.64H3397.46V151.41H3464.22V176.81H3473.65V86.84H3562.73V24.15H3536.61V19.41H3539.43V12.04H3558.54V19.41H3562.73V0L3567.24 2.89V11.05H3574.66V20.78H3630.13L3624.97 22.62H3614.33V38.88H3614.43L3617.82 42.15H3618.69L3617.32 43.99H3609.98L3609.34 42.15H3609.74L3613.69 38.93V22.62H3567.61V86.88H3575.48V79.62H3596.52V49.87H3668.84V66.8L3662.31 79.38V91.47H3667.15V153.15L3673.44 159.44H3692.06V151.7H3711.65V175.65H3718.42L3726.89 167.18V120.26H3763.9V174.2H3789.05V184.84H3798.97V158.48H3820.98V144.69H3833.07V119.37H3844.92C3845.89 107.12 3852.34 104.86 3852.34 104.86L3855.57 89.38L3857.83 105.5C3864.6 109.69 3865.57 120.66 3865.57 120.66H3874.6V144.85H3887.5V158.4H3893.95V184.84H3903.95V170.33H3916.53V66.81H3948.13V161.94H3975.54V142.59H4037.78V121.31H4058.74V140.34H4069.38V167.43H4099.37V181.97C4138.9 186.33 4161.78 188.51 4167.98 188.51C4168.78 188.51 4169.59 188.69 4170.41 188.98C4171.6 189.09 4172.82 189.55 4174.05 190.26V191.06C4182.17 197.22 4190.73 212.41 4197.34 212.41C4205.63 212.41 4255.56 210.59 4274.88 212.41C4294.2 214.23 4291.64 216.96 4300.63 216.96C4309.62 216.96 4315.59 216.96 4320.48 216.96C4325.37 216.96 4323.86 214.48 4333.16 216.96C4342.46 219.44 4360.59 222.79 4364.26 230.58C4367.92 238.37 4376.86 237.99 4382.02 239.58C4387.18 241.17 4386.53 241.22 4390.02 243.26C4393.51 245.3 4403.61 241.22 4415.23 243.26C4426.85 245.3 4441.64 245.69 4447.83 249.79C4451.96 252.52 4462.13 253.42 4478.33 252.47C4485.96 254.99 4490.77 256.8 4492.75 257.91C4495.72 259.58 4507.65 261.88 4511.59 263.35C4515.53 264.82 4522.14 273.07 4527.41 271.6C4532.68 270.13 4536.24 275.94 4549.23 275.94C4562.22 275.94 4556 276.61 4569.97 279C4583.94 281.38 4604.14 287.85 4611.4 293.05C4618.66 298.25 4613.72 297.78 4624.22 300.9C4634.72 304.02 4636.47 305.48 4641.83 309.7C4647.19 313.93 4646.37 325.91 4655.77 329.47C4665.17 333.03 4665.47 337 4674.42 342.74C4683.37 348.49 4686.41 369.71 4701.42 377.86C4716.43 386.01 4740.28 387.5 4749.87 389.23C4759.46 390.95 4792.34 404.99 4792.34 411.09C4792.34 415.16 4804.39 425.97 4828.49 443.53H4174.04V443.97H4099.36V475.63H2054.54V486.82H0.870117V111.87H35.1701H35.1601Z" fill="#EBA921"/>
</svg>
