<svg id="Groupe_1409" data-name="Groupe 1409" xmlns="http://www.w3.org/2000/svg" xmlns:xlink="http://www.w3.org/1999/xlink" width="1123.476" height="381.083" viewBox="0 0 1123.476 381.083">
  <defs>
    <clipPath id="clip-path">
      <rect id="Rectangle_377" data-name="Rectangle 377" width="1123.476" height="381.082" fill="none"/>
    </clipPath>
  </defs>
  <g id="Groupe_1408" data-name="Groupe 1408" clip-path="url(#clip-path)">
    <path id="Tracé_1273" data-name="Tracé 1273" d="M725.282,2.059,421.919,1.935l-.057,132.494,62.519.026.031-71.4,152.751.062L405.328,309.915l-56.83-.023-.139-307.9L.179,0,.151,66.775l112.36,2.856-.2,152.35q-.012,31.97-4.817,49.374T90.439,296.739q-12.253,7.989-37.118,7.973c-17.049-.005-32.926-2.622-53.288-7.829L0,372.533a199.52,199.52,0,0,0,58.974,8.549q70.679.031,102.31-36.715Q192.9,307.605,192.942,218.1l.193-148.443L274.877,67l.1,242.865-58.252-.023-.026,65.354,188.6.077v0l319.828.131.054-137.473-63.937-.026-.033,72.157-171.221-.072L725.256,67.77Z" transform="translate(-0.002)" fill="#fff"/>
    <path id="Tracé_1274" data-name="Tracé 1274" d="M668.434,190.438q0,52.478-25.038,96.036a186.263,186.263,0,0,1-68.256,68.942q-43.217,25.377-95.694,25.382-54.2,0-97.753-25.382a179.121,179.121,0,0,1-67.739-68.942q-24.182-43.552-24.182-96.036,0-54.872,24.182-98.095a174.479,174.479,0,0,1,67.4-67.742Q424.568.085,479.447.081q53.16,0,96.38,25.894a187.616,187.616,0,0,1,67.911,69.456q24.695,43.564,24.7,95.008M479.447,311.857a107.452,107.452,0,0,0,57.964-16.463,114.416,114.416,0,0,0,41.159-44.246,127.5,127.5,0,0,0,14.749-60.709,126.112,126.112,0,0,0-14.749-60.023,118.282,118.282,0,0,0-41.159-44.76A109.558,109.558,0,0,0,420.8,85.311a117.639,117.639,0,0,0-41.5,44.763,128.285,128.285,0,0,0,0,120.732,115.464,115.464,0,0,0,41.845,44.588,109.166,109.166,0,0,0,58.308,16.463" transform="translate(455.045 0.127)" fill="#fff"/>
  </g>
</svg>
